<?xml version="1.0" standalone="no"?>
<!DOCTYPE svg PUBLIC "-//W3C//DTD SVG 1.1//EN" "http://www.w3.org/Graphics/SVG/1.1/DTD/svg11.dtd" >
<svg>
<metadata>
Created by FontForge 20090914 at Tue Aug  9 15:23:59 2016
 By www-data
FREE FOR PERSONAL USE
</metadata>
<defs>
<font id="AtlantideStarlight" horiz-adv-x="155" >
  <font-face 
    font-family="Atlantide Starlight"
    font-weight="400"
    font-style="italic"
    font-stretch="normal"
    units-per-em="1000"
    panose-1="2 0 5 6 0 0 0 9 0 2"
    ascent="750"
    descent="-250"
    x-height="196.999"
    cap-height="450.002"
    bbox="-715.004 -284.005 927 529.002"
    underline-thickness="50"
    underline-position="-50"
    slope="-12"
    unicode-range="U+0020-U+FB02"
  />
<missing-glyph horiz-adv-x="150" 
 />
    <glyph glyph-name=".notdef" horiz-adv-x="150" 
 />
    <glyph glyph-name="space" unicode=" " horiz-adv-x="150" 
 />
    <glyph glyph-name="exclam" unicode="!" horiz-adv-x="351" 
d="M34 12c-5.33301 -6.66699 -10.668 -11.834 -16.001 -15.501s-9.66602 -5.5 -12.999 -5.5s-5 1.83301 -5 5.5s3 9.83398 9 18.501c2.66699 4 5 7.66699 7 11c5.33301 7.33301 10.666 9 15.999 5c3.33301 -1.33301 4.83301 -4.33301 4.5 -9s-1.16602 -8 -2.49902 -10z
M326.998 470c7.33301 0 11.667 -2.33203 13 -6.99902s2 -8.66699 2 -12c-15.333 -13.333 -32.333 -30.833 -51 -52.5s-37.834 -45.667 -57.501 -72l-59 -82l-54.5 -81.5l-44.5 -71c-13 -21.333 -22.5 -38.333 -28.5 -51c-1.33301 -1.33301 -3.16602 -0.833008 -5.49902 1.5
s-2.83301 4.83301 -1.5 7.5l22 42l44 80.5l57.5 99c21 35 41.667 67.167 62 96.5s39.5 53.666 57.5 72.999s32.667 29 44 29z" />
    <glyph glyph-name="quotedbl" unicode="&#x22;" horiz-adv-x="142" 
d="M52 392c2 2 4.83105 3.66797 8.49805 5.00098s7.5 2 11.5 2s7.16699 -0.333008 9.5 -1s2.83301 -2 1.5 -4l-73 -82c0 4.66699 1.83301 11.167 5.5 19.5s7.83398 16.666 12.501 24.999s9.33398 15.833 14.001 22.5s8 11 10 13zM97.998 392.001
c2 2 4.83105 3.66797 8.49805 5.00098s7.5 2 11.5 2s7.16699 -0.333008 9.5 -1s2.83301 -2 1.5 -4l-73 -82c0 4.66699 1.83301 11.167 5.5 19.5s7.83398 16.666 12.501 24.999s9.33398 15.833 14.001 22.5s8 11 10 13z" />
    <glyph glyph-name="numbersign" unicode="#" horiz-adv-x="469" 
d="M30 151c-2 3.33301 -2.16895 6.3291 -0.501953 8.99609s3.5 4.66699 5.5 6c9.33301 -3.33301 22.333 -5.66602 39 -6.99902s35.334 -2.66602 56.001 -3.99902l46 95c-25.333 0 -46.833 1.33301 -64.5 4s-28.167 7 -31.5 13c-2 3.33301 -2.33301 6.16602 -1 8.49902
s3.33301 4.16602 6 5.49902c10 -3.33301 24 -5.83301 42 -7.5s38 -3.16699 60 -4.5l24 44c8 14 15.667 26.167 23 36.5s14 18.5 20 24.5s11 9 15 9c4.66699 0 7.83398 -1.16699 9.50098 -3.5s2.5 -4.83301 2.5 -7.5c-9.33301 -8.66699 -20.5 -22.167 -33.5 -40.5
s-26.5 -39.166 -40.5 -62.499c36.667 -1.33301 74 -1.33301 112 0l24 44c8 14 15.667 26.167 23 36.5s14 18.5 20 24.5s11.333 9 16 9s7.66699 -1.16699 9 -3.5s2 -4.83301 2 -7.5c-9.33301 -8.66699 -20.333 -22.167 -33 -40.5s-26 -39.166 -40 -62.499
c26 0.666992 49.333 1.66699 70 3s35.667 2.66602 45 3.99902c1.33301 0.666992 1.66602 -0.333008 0.999023 -3s-2 -4 -4 -4c-4 -0.666992 -17.167 -2.16699 -39.5 -4.5s-48.833 -4.83301 -79.5 -7.5c-10.667 -17.333 -20.834 -34.666 -30.501 -51.999l-28.5 -52
c30 0.666992 57 1.83398 81 3.50098s41 3.16699 51 4.5c0.666992 0.666992 0.666992 -0.166016 0 -2.49902s-2 -3.5 -4 -3.5c-4 -1.33301 -18.833 -3.33301 -44.5 -6s-55.5 -5.33398 -89.5 -8.00098c-11.333 -20 -20.666 -37.833 -27.999 -53.5l-16 -34.5
c0 -1.33301 -1 -1.16602 -3 0.500977s-2.33301 3.5 -1 5.5l11.5 27.5c6.33301 15 14.5 33.167 24.5 54.5l-63 -4c-21.333 -1.33301 -41.666 -2 -60.999 -2l-24.5 -49.5l-15.5 -32.5c0 -1.33301 -1 -1.16602 -3 0.500977s-2.33301 3.5 -1 5.5
c1.33301 2.66699 4.83301 11 10.5 25s13.167 31 22.5 51c-24 0.666992 -44.333 2.16699 -61 4.5s-26.667 6.16602 -30 11.499zM311.998 255.996l-58.4971 -4c-19.667 -1.33301 -38.834 -2 -57.501 -2l-27.5 -48.5l-26.5 -47.5c19.333 -1.33301 39.166 -2 59.499 -2
s40.166 0.333008 59.499 1l24 50.5z" />
    <glyph glyph-name="dollar" unicode="$" horiz-adv-x="272" 
d="M189 468c6.66699 1.33301 11.9951 0.668945 15.9951 -1.99805s6.66699 -4.66699 8 -6c-5.33301 -4 -9 -7 -11 -9c4 0 9.33301 -0.166992 16 -0.5s13 -1.33301 19 -3s11.333 -4 16 -7s7 -7.16699 7 -12.5c0 -8.66699 -3.83301 -16.334 -11.5 -23.001
s-16.167 -12.167 -25.5 -16.5s-18.166 -7.66602 -26.499 -9.99902s-13.166 -3.5 -14.499 -3.5c-2 0 -3.16699 1.83301 -3.5 5.5s-0.5 6.5 -0.5 8.5c0 2.66699 0.666992 4.33398 2 5.00098s3.66602 1.66699 6.99902 3l2 1c23.333 10 39 17 47 21s12 7.66699 12 11
c0 5.33301 -5 8.66602 -15 9.99902s-18.667 2 -26 2c-6.66699 0 -11.334 -0.333008 -14.001 -1c-12.667 -13.333 -25.167 -30.166 -37.5 -50.499s-24.166 -41.833 -35.499 -64.5c10.667 -5.33301 18.667 -10.333 24 -15s9 -8.83398 11 -12.501
s2.83301 -6.83398 2.5 -9.50098s-0.5 -4.66699 -0.5 -6c0 -4.66699 -0.666992 -8.5 -2 -11.5s-3 -6.5 -5 -10.5c0 0.666992 -1.5 -1.83301 -4.5 -7.5s-7.66699 -11.834 -14 -18.501s-14.5 -12.834 -24.5 -18.501s-22 -8.5 -36 -8.5h-3l-6 -20
c0 -0.666992 -1.83301 -0.5 -5.5 0.5s-5.5 2.16699 -5.5 3.5c0 2.66699 1.66699 8.33398 5 17.001c-9.33301 2.66699 -17 6.66699 -23 12s-9 12.333 -9 21c-1.33301 10.667 4.33398 19 17.001 25s25.334 9.66699 38.001 11c3.33301 6.66699 6.16602 13.334 8.49902 20.001
s5.16602 13.334 8.49902 20.001c-5.33301 3.33301 -11.166 6.66602 -17.499 9.99902s-13.166 7.33301 -20.499 12c-2 1.33301 -4.66699 3 -8 5s-6.66602 4.5 -9.99902 7.5s-6.16602 6.66699 -8.49902 11s-3.5 9.5 -3.5 15.5c0 10.667 4.66699 20 14 28
s20.833 14.833 34.5 20.5s28.334 10.167 44.001 13.5s30.167 5.66602 43.5 6.99902c9.33301 11.333 17.666 18 24.999 20zM41.9951 377.003c2.66699 -9.33301 10.501 -17.5 23.501 -24.5s25.167 -12.833 36.5 -17.5l26 56c8.66699 18 17.667 33.333 27 46
c-14 -2.66699 -27.833 -5.83398 -41.5 -9.50098s-26 -8 -37 -13s-19.833 -10.667 -26.5 -17s-9.33398 -13.166 -8.00098 -20.499zM139.996 283.003c0 7.33301 -2.16895 12.666 -6.50195 15.999s-11.166 7.33301 -20.499 12l-15 -32c4 0 7 -1 9 -3
c3.33301 -4.66699 4.33301 -8.16699 3 -10.5s-4.33301 -3.5 -9 -3.5h-9h-2l-18 -45c12 0.666992 22.333 4.16699 31 10.5s15.834 13.333 21.501 21s9.66699 14.834 12 21.501s3.5 11 3.5 13zM34.9941 237.003c0 -3.33301 2.66797 -6.83496 8.00098 -10.502
s10.666 -6.16699 15.999 -7.5l14 41c-8.66699 -1.33301 -17.167 -3.66602 -25.5 -6.99902s-12.5 -8.66602 -12.5 -15.999z" />
    <glyph glyph-name="percent" unicode="%" horiz-adv-x="198" 
d="M126 405c-4.66699 -6.66699 -9.66797 -11.834 -15.001 -15.501s-9.66602 -5.5 -12.999 -5.5s-5.16602 1.83301 -5.49902 5.5s2.5 9.83398 8.5 18.501c1.33301 2 2.33301 3.83301 3 5.5s1.66699 3.5 3 5.5c4 7.33301 9 9 15 5
c3.33301 -1.33301 5.16602 -4.33301 5.49902 -9s-0.166992 -8 -1.5 -10zM155.999 -25c-4.66699 -6.66699 -9.66797 -11.834 -15.001 -15.501s-9.66602 -5.5 -12.999 -5.5s-5.16602 1.83301 -5.49902 5.5s2.5 9.83398 8.5 18.501c1.33301 2 2.33301 3.83301 3 5.5
s1.66699 3.5 3 5.5c4 7.33301 9 9 15 5c3.33301 -1.33301 5.16602 -4.33301 5.49902 -9s-0.166992 -8 -1.5 -10zM283.998 470c7.33301 0 11.8311 -2.33496 13.498 -7.00195s2.83398 -8.66699 3.50098 -12c-14 -13.333 -30.667 -33.666 -50 -60.999
s-39.666 -58.333 -60.999 -93l-64 -108.5l-59.5 -108l-47.5 -92c-13.333 -27 -22.666 -46.833 -27.999 -59.5c-0.666992 -1.33301 -2.33398 -0.833008 -5.00098 1.5s-3.33398 4.83301 -2.00098 7.5c1.33301 4 5.83301 14.667 13.5 32l29 64.5l39.5 85.5l46.5 95.5l49.5 94.5
c16.667 30.667 32.667 57.834 48 81.501s29.333 42.667 42 57s23.334 21.5 32.001 21.5z" />
    <glyph glyph-name="quotesingle" unicode="'" horiz-adv-x="104" 
d="M123 392c2 2 4.83105 3.66797 8.49805 5.00098s7.5 2 11.5 2s7.16699 -0.333008 9.5 -1s2.83301 -2 1.5 -4l-73 -82c0 4.66699 1.83301 11.167 5.5 19.5s7.83398 16.666 12.501 24.999s9.33398 15.833 14.001 22.5s8 11 10 13z" />
    <glyph glyph-name="parenleft" unicode="(" horiz-adv-x="275" 
d="M107 -43c-20.667 0 -39.168 5.16797 -55.501 15.501s-26.166 28.166 -29.499 53.499c-4 28.667 -0.833008 59.667 9.5 93s24.833 66.333 43.5 99s39.667 64.167 63 94.5s46.666 56.833 69.999 79.5c12 12 25.167 24 39.5 36s29.166 23 44.499 33s31.5 18.167 48.5 24.5
s34.5 9.5 52.5 9.5c15.333 0 28 -4.5 38 -13.5s16 -19.833 18 -32.5c0 -5.33301 -2 -8.5 -6 -9.5s-8.33301 -0.833008 -13 0.5s-8.66699 3.33301 -12 6s-4.33301 5 -3 7c-2 4.66699 -4.83301 7.33398 -8.5 8.00098s-7.5 1 -11.5 1c-24.667 0 -50.5 -7.5 -77.5 -22.5
s-53.5 -34.333 -79.5 -58s-50.667 -50.167 -74 -79.5s-43.666 -58.333 -60.999 -87l-24.5 -44c-8.33301 -15.333 -15.666 -31 -21.999 -47s-11.333 -32.333 -15 -49s-4.83398 -33 -3.50098 -49c3.33301 -20.667 10.5 -34.334 21.5 -41.001s24.167 -11 39.5 -13
c7.33301 -1.33301 12.333 -4 15 -8s0.333984 -6.33301 -6.99902 -7z" />
    <glyph glyph-name="parenright" unicode=")" horiz-adv-x="363" 
d="M-82 -12c-2.66699 5.33301 -1.66406 8 3.00293 8s9.66699 -2 15 -6c8.66699 -8 18.667 -13.667 30 -17s26.666 -0.333008 45.999 9c32 17.333 60.333 39.833 85 67.5s46.334 54.5 65.001 80.5c18.667 26.667 36.5 55.5 53.5 86.5s30.833 61 41.5 90s17 56 19 81
s-2.33301 45.5 -13 61.5c-1.33301 2.66699 -3.33301 5.16699 -6 7.5s-6.66699 2.83301 -12 1.5c-1.33301 -2.66699 -4 -3.33398 -8 -2.00098s-7.5 3.5 -10.5 6.5s-5 6.33301 -6 10s1.16699 6.83398 6.5 9.50098c12 5.33301 24.5 7.33301 37.5 6s23.5 -7 31.5 -17
c8 -11.333 12.833 -24.166 14.5 -38.499s1.16699 -29.333 -1.5 -45s-6.66699 -31.334 -12 -47.001s-11 -30.834 -17 -45.501c-10.667 -27.333 -24.834 -57 -42.501 -89s-37.834 -63 -60.501 -93s-47.334 -57.667 -74.001 -83s-54.334 -45 -83.001 -59
c-24 -11.333 -44.667 -14.666 -62 -9.99902s-30.666 13.667 -39.999 27z" />
    <glyph glyph-name="asterisk" unicode="*" horiz-adv-x="293" 
d="M254 316c4.66699 -4.66699 3.66602 -10.3379 -3.00098 -17.0049c-2.66699 -3.33301 -5.16699 -5.5 -7.5 -6.5s-5.5 0.5 -9.5 4.5c-1.33301 0.666992 -3 2.5 -5 5.5s-5.33301 7.16699 -10 12.5c-2 -18 -3 -28.333 -3 -31s-2 -4 -6 -4c-3.33301 0 -7.33301 0.666992 -12 2
s-7.66699 4 -9 8c0 0.666992 0.166992 3.66699 0.5 9s0.833008 10.333 1.5 15c-11.333 -9.33301 -18.166 -14.833 -20.499 -16.5s-4.83301 -1.16699 -7.5 1.5s-4.5 6.83398 -5.5 12.501s-0.5 10.167 1.5 13.5c0.666992 0.666992 1.66699 1.33398 3 2.00098
s2.33301 1.33398 3 2.00098l3 3h-9c-7.33301 0 -11 4.66699 -11 14c0 4 0.5 7.33301 1.5 10s4.16699 4 9.5 4h17l-11 11c-4.66699 5.33301 -4 11.333 2 18c3.33301 2.66699 6.16602 4.5 8.49902 5.5s5.5 -0.166992 9.5 -3.5c0.666992 -1.33301 2.16699 -3 4.5 -5
s5.5 -5.33301 9.5 -10c1.33301 16 2.5 25.167 3.5 27.5s3.16699 3.5 6.5 3.5c2.66699 0 6.33398 -0.333008 11.001 -1s7.66699 -3 9 -7v-8.5c0 -4.33301 -0.333008 -9.16602 -1 -14.499c10.667 9.33301 17 14.333 19 15s4.33301 0 7 -2c1.33301 -2 3 -5.5 5 -10.5
s2 -9.16699 0 -12.5c-0.666992 -1.33301 -3.66699 -4.66602 -9 -9.99902h11c6.66699 0 10 -4.66699 10 -14c0 -4 -0.5 -7.33301 -1.5 -10s-4.16699 -4 -9.5 -4h-18c3.33301 -3.33301 5.83301 -6 7.5 -8s3.16699 -3.33301 4.5 -4z" />
    <glyph glyph-name="plus" unicode="+" horiz-adv-x="157" 
d="M132 201c6.66699 0 9.99609 -4.66797 9.99609 -14.001c0 -4 -0.5 -7.33301 -1.5 -10s-4.16699 -4 -9.5 -4c-1.33301 0 -5.66602 0.166992 -12.999 0.5s-16.666 1.16602 -27.999 2.49902l-3 -30l-1.5 -15c-0.333008 -3.33301 -1 -5.16602 -2 -5.49902s-2.5 -0.5 -4.5 -0.5
c-3.33301 0 -7.33301 1.5 -12 4.5s-7.66699 6.5 -9 10.5c0 1.33301 0.666992 6.5 2 15.5s2.66602 15.833 3.99902 20.5c-9.33301 0.666992 -17 1 -23 1h-11c-7.33301 0 -11 4.66699 -11 14c0 4 0.5 7.33301 1.5 10s4.16699 4 9.5 4h11.5c6.33301 0 15.5 -0.666992 27.5 -2
c0.666992 12.667 1.33398 22.334 2.00098 29.001s1.33398 11.5 2.00098 14.5s1.5 4.66699 2.5 5s2.5 0.5 4.5 0.5c2.66699 0 6.33398 -1 11.001 -3s7.66699 -5 9 -9c1.33301 -3.33301 0 -16 -4 -38c9.33301 0 17.333 -0.166992 24 -0.5s10.667 -0.5 12 -0.5z" />
    <glyph glyph-name="comma" unicode="," horiz-adv-x="67" 
d="M57 12c-3.33301 -5.33301 -8.83301 -10.832 -16.5 -16.499s-15.5 -11.167 -23.5 -16.5c-1.33301 -0.666992 -3.16602 -0.666992 -5.49902 0s-2.83301 1.66699 -1.5 3c6.66699 7.33301 11.167 13.166 13.5 17.499l8.5 15.5c1.33301 2 2.33301 3.83301 3 5.5
s1.66699 3.5 3 5.5c4 7.33301 9 9 15 5c3.33301 -1.33301 5.16602 -4.33301 5.49902 -9s-0.166992 -8 -1.5 -10z" />
    <glyph glyph-name="hyphen" unicode="-" horiz-adv-x="163" 
d="M27 137c-4 0 -6.83301 0.332031 -8.5 0.999023s-2.5 3.66699 -2.5 9c0 4 0.5 7.16699 1.5 9.5s4.16699 3.5 9.5 3.5h109c4 0 6.83301 -0.166992 8.5 -0.5s2.5 -3.16602 2.5 -8.49902c0 -4 -0.5 -7.33301 -1.5 -10s-4.16699 -4 -9.5 -4h-109v0z" />
    <glyph glyph-name="period" unicode="." horiz-adv-x="65" 
d="M55 12c-4.66699 -6.66699 -9.66797 -11.834 -15.001 -15.501s-9.66602 -5.5 -12.999 -5.5s-5.16602 1.83301 -5.49902 5.5s2.5 9.83398 8.5 18.501c1.33301 2 2.33301 3.83301 3 5.5s1.66699 3.5 3 5.5c4 7.33301 9 9 15 5c3.33301 -1.33301 5.16602 -4.33301 5.49902 -9
s-0.166992 -8 -1.5 -10z" />
    <glyph glyph-name="slash" unicode="/" horiz-adv-x="310" 
d="M284 470c7.33301 0 11.8311 -2.33496 13.498 -7.00195s2.83398 -8.66699 3.50098 -12c-14 -13.333 -30.667 -33.666 -50 -60.999s-39.666 -58.333 -60.999 -93l-64 -108.5l-59.5 -108l-47.5 -92c-13.333 -27 -22.666 -46.833 -27.999 -59.5
c-0.666992 -1.33301 -2.33398 -0.833008 -5.00098 1.5s-3.33398 4.83301 -2.00098 7.5c1.33301 4 5.83301 14.667 13.5 32l29 64.5l39.5 85.5l46.5 95.5l49.5 94.5c16.667 30.667 32.667 57.834 48 81.501s29.333 42.667 42 57s23.334 21.5 32.001 21.5z" />
    <glyph glyph-name="zero" unicode="0" horiz-adv-x="379" 
d="M286 446c17.333 -0.666992 30.6729 -6.16113 40.0059 -16.4941s16.166 -22.833 20.499 -37.5s6.66602 -30 6.99902 -46s0.166016 -30 -0.500977 -42c-1.33301 -12.667 -5 -28.334 -11 -47.001s-14 -38.334 -24 -59.001s-22 -41.5 -36 -62.5s-29.167 -40 -45.5 -57
s-33.666 -30.667 -51.999 -41s-37.5 -15.5 -57.5 -15.5c-9.33301 0 -17.333 1.33301 -24 4s-12 5.66699 -16 9c-11.333 9.33301 -18 16.666 -20 21.999s-3 8.33301 -3 9c-1.33301 3.33301 -1 5 1 5c0.666992 0 2.66699 -2 6 -6l3.5 -5
c2.33301 -3.33301 5.5 -7.16602 9.5 -11.499s8.83301 -8.16602 14.5 -11.499s12.167 -5 19.5 -5c17.333 0 34.5 5.16699 51.5 15.5s33.167 23.166 48.5 38.499c20.667 20.667 38.5 43.167 53.5 67.5s27 48.833 36 73.5s15 49 18 73s2.83301 46.667 -0.5 68
c-0.666992 4 -1.83398 8.66699 -3.50098 14s-3.83398 10.333 -6.50098 15s-6.16699 8.5 -10.5 11.5s-9.5 4.5 -15.5 4.5c-10.667 0 -23.5 -3.83301 -38.5 -11.5s-31.833 -18.167 -50.5 -31.5c-15.333 -11.333 -32.333 -27.833 -51 -49.5s-35.667 -46.334 -51 -74.001
s-27.5 -57 -36.5 -88s-11.167 -61.167 -6.5 -90.5c3.33301 -19.333 10.333 -34.333 21 -45s26.667 -16 48 -16c20 0 39.167 4.66699 57.5 14s35 20.166 50 32.499s27.5 24.333 37.5 36l20 23.5c1.33301 1.33301 2 0.666016 2 -2.00098
c1.33301 -6.66699 -3.5 -16.667 -14.5 -30s-25 -26.5 -42 -39.5s-35.333 -24.5 -55 -34.5s-37.834 -15 -54.501 -15c-14.667 0 -27.167 2.5 -37.5 7.5s-18.833 11.333 -25.5 19s-11.834 16.167 -15.501 25.5s-6.16699 18.333 -7.5 27c-4 25.333 -3.33301 52.166 2 80.499
s13.833 56.333 25.5 84s26 54.334 43 80.001s35.167 48.167 54.5 67.5s39.5 34.666 60.5 45.999s41.5 17 61.5 17z" />
    <glyph glyph-name="one" unicode="1" horiz-adv-x="299" 
d="M300 452c7.33301 0 11.999 -2.33789 13.999 -7.00488s3.33301 -8.66699 4 -12c0.666992 -6 -0.666016 -11.5 -3.99902 -16.5s-8.33301 -11.167 -15 -18.5l-23 -26c-8.66699 -10 -18.334 -23 -29.001 -39c-17.333 -22 -35.666 -48 -54.999 -78s-37 -59.667 -53 -89
s-29.167 -56.666 -39.5 -81.999s-14.833 -45 -13.5 -59c0.666992 -6 2.33398 -10.333 5.00098 -13s5.66699 -4.5 9 -5.5s6.5 -1.66699 9.5 -2s4.5 -0.833008 4.5 -1.5c0 -1.33301 -0.666992 -2.66602 -2 -3.99902s-3.66602 -2 -6.99902 -2c-11.333 0 -18.833 3.5 -22.5 10.5
s-5.83398 14.833 -6.50098 23.5v14c0 4.66699 0.833008 10.5 2.5 17.5s4.5 16 8.5 27s9.66699 25.167 17 42.5c0 0.666992 3.83301 10.167 11.5 28.5s23.834 48.5 48.501 90.5c-12.667 -11.333 -26.834 -21 -42.501 -29s-31.167 -12 -46.5 -12
c-10.667 0 -20 2.16699 -28 6.5s-14.833 9.83301 -20.5 16.5s-10 13.834 -13 21.501s-4.83301 14.834 -5.5 21.501c-0.666992 12.667 2 19 8 19c4 0 9 -1.5 15 -4.5s9 -5.83301 9 -8.5c-0.666992 -2 -1.33398 -4.33301 -2.00098 -7c-0.666992 -2 -1.16699 -4.5 -1.5 -7.5
s-0.166016 -6.16699 0.500977 -9.5c1.33301 -11.333 5.66602 -20.166 12.999 -26.499s15.333 -9.5 24 -9.5c12.667 0 26 4.33301 40 13s27.5 19.5 40.5 32.5s25.5 27 37.5 42l32 41.5l34 56.5c8 13.667 14.5 23.667 19.5 30s9 10.333 12 12s6.5 2.5 10.5 2.5z" />
    <glyph glyph-name="two" unicode="2" horiz-adv-x="379" 
d="M365 86c2.66699 -3.33301 4.16699 -6.49707 4.5 -9.49707s0.5 -6.16699 0.5 -9.5c-2.66699 -13.333 -9.16699 -24.833 -19.5 -34.5s-22.166 -17.5 -35.499 -23.5s-27.5 -10.333 -42.5 -13s-28.5 -4 -40.5 -4c-18 0 -35.833 1.66699 -53.5 5s-34.5 7.33301 -50.5 12
s-30.667 9.33398 -44 14.001s-24.333 8.33398 -33 11.001c-14.667 -10 -28 -15.333 -40 -16h-5.5c-2.33301 0 -4.66602 0.666992 -6.99902 2s-4.33301 3.66602 -6 6.99902s-2.16699 8 -1.5 14c0 6 2.5 12.333 7.5 19s13.167 10 24.5 10c10.667 0 23.334 -2.33301 38.001 -7
l92.5 104c29.667 34 56.167 65.667 79.5 95s42 55.5 56 78.5s21.667 40.833 23 53.5c0.666992 10.667 -4.33301 18.667 -15 24s-22.334 8.66602 -35.001 9.99902c2.66699 -1.33301 5.33398 -3 8.00098 -5s4 -4.66699 4 -8c0 -0.666992 -0.333008 -1.33398 -1 -2.00098
s-1.33398 -1.66699 -2.00098 -3c0 -1.33301 -1.66699 -3.5 -5 -6.5s-8 -6.16699 -14 -9.5s-13 -6.33301 -21 -9s-16.667 -4 -26 -4c-2.66699 0 -6 0.333008 -10 1s-8 2 -12 4s-7.66699 5 -11 9s-5.66602 9.66699 -6.99902 17c1.33301 10 10.833 18.667 28.5 26
s39.5 11 65.5 11c30.667 0 52.667 -5.33301 66 -16s20.666 -23.334 21.999 -38.001c-4.66699 -23.333 -15.334 -47.833 -32.001 -73.5s-37.167 -52.334 -61.5 -80.001s-52 -56.834 -83 -87.501l-95.5 -96c10.667 -4.66699 23 -9.66699 37 -15s28.667 -10.333 44 -15
s31.166 -8.66699 47.499 -12s32.166 -5 47.499 -5c12 0 24.5 1.83301 37.5 5.5s24.667 8.33398 35 14.001s19 12 26 19s10.833 13.833 11.5 20.5s-0.166016 11 -2.49902 13s-4.83301 3 -7.5 3c-2 0 -4 -0.333008 -6 -1s-3.66699 -1 -5 -1c-2.66699 0 -4 1.33301 -4 4
c0 0.666992 0.666992 1.66699 2 3s4.33301 2 9 2c1.33301 0 3.83301 -0.333008 7.5 -1s7.16699 -2.66699 10.5 -6zM247 429.003c-13.333 0 -26.3301 -0.833008 -38.9971 -2.5s-22.334 -5.5 -29.001 -11.5c-0.666992 -6.66699 1.66602 -11 6.99902 -13s10.666 -3 15.999 -3
c6.66699 0 12.667 1.5 18 4.5s9.83301 6.33301 13.5 10s6.5 7 8.5 10s3.66699 4.5 5 4.5v1zM11.0029 26.0029c4 0 8.5 1 13.5 3s9.16699 4.66699 12.5 8c-6.66699 1.33301 -11 2 -13 2c-4 0 -7.5 -1.83301 -10.5 -5.5s-3.83301 -6.16699 -2.5 -7.5z" />
    <glyph glyph-name="three" unicode="3" horiz-adv-x="336" 
d="M325 450c6.66699 -8.66699 7.33789 -22.3281 2.00488 -40.9951s-13.666 -37.667 -24.999 -57s-23.833 -37 -37.5 -53s-25.167 -25.333 -34.5 -28c2 -0.666992 6.16699 -2.33398 12.5 -5.00098s13 -6.66699 20 -12s13.167 -12.333 18.5 -21s8 -19.334 8 -32.001v-4v-3v-2
c0 -23.333 -4 -46.833 -12 -70.5s-19.5 -44.834 -34.5 -63.501s-33.167 -33.834 -54.5 -45.501s-45.333 -17.5 -72 -17.5c-19.333 0 -35.833 3 -49.5 9s-24.834 14 -33.501 24s-15 21.167 -19 33.5s-6 24.833 -6 37.5c0 17.333 1.5 31.666 4.5 42.999s5.16699 17 6.5 17
c2.66699 0 4 -1.66699 4 -5c0 -2 -0.5 -6.5 -1.5 -13.5s-1.5 -16.167 -1.5 -27.5c2.66699 -32.667 11.5 -56.167 26.5 -70.5s36.5 -21.5 64.5 -21.5c20 0 39.833 5 59.5 15s37 23.167 52 39.5s27.167 35.166 36.5 56.499s14 43.333 14 66c0 12.667 -5 22.834 -15 30.501
s-20.5 14 -31.5 19s-20 9.33301 -27 13s-7.83301 7.5 -2.5 11.5c1.33301 0.666992 2.16602 1.16699 2.49902 1.5s1.16602 1 2.49902 2l7.5 5.5c3.66699 2.66699 9.83398 6.66699 18.501 12c12 8 23.167 19.667 33.5 35s19.166 30.833 26.499 46.5
s12.666 29.334 15.999 41.001s3.66602 17.5 0.999023 17.5h-8c-22.667 0 -45 -3 -67 -9s-43.667 -9 -65 -9c-4 0 -7.16699 2.16699 -9.5 6.5s-3.5 9.16602 -3.5 14.499s8 10 24 14s34.333 6.83301 55 8.5s40.167 2 58.5 1s30.166 -4.16699 35.499 -9.5z" />
    <glyph glyph-name="four" unicode="4" horiz-adv-x="258" 
d="M207 76c0.666992 -2 0.673828 -5.17285 0.00683594 -9.50586s-1.33398 -7.16602 -2.00098 -8.49902c-0.666992 -2 -1.5 -3.66699 -2.5 -5s-3.33301 -2.16602 -7 -2.49902s-8.83398 -0.666016 -15.501 -0.999023s-16 -0.833008 -28 -1.5
c-4.66699 -6 -9.83398 -12.167 -15.501 -18.5l-16 -17.5l-12.5 -13.5c-3.33301 -3.66699 -5.33301 -5.5 -6 -5.5c-2.66699 0 -4 1.33301 -4 4c-0.666992 0.666992 2.33301 6 9 16s14 21.667 22 35c-4 -0.666992 -11.5 -1.5 -22.5 -2.5s-22.5 -1.5 -34.5 -1.5
s-22.5 0.833008 -31.5 2.5s-12.833 4.83398 -11.5 9.50098c1.33301 6.66699 2.5 11.5 3.5 14.5s4.33301 8.33301 10 16l27.5 36c12.667 16.333 31 41.5 55 75.5l30.5 42.5c11.667 16.333 23.167 33.5 34.5 51.5s21.5 36.167 30.5 54.5s15.167 36.166 18.5 53.499
c2.66699 12.667 2.33398 22.5 -0.999023 29.5s-12.333 10.5 -27 10.5c-9.33301 0 -22.333 -2.33301 -39 -7s-34 -12.5 -52 -23.5s-34.833 -25.833 -50.5 -44.5s-26.834 -42 -33.501 -70l-2 -8c-2 -11.333 -2 -22.166 0 -32.499s4.66699 -19.666 8 -27.999
s6.5 -15.333 9.5 -21s4.5 -9.16699 4.5 -10.5c-0.666992 -2.66699 -2.83398 -6.33398 -6.50098 -11.001s-8.16699 -7 -13.5 -7c-2 0 -3.5 0.333008 -4.5 1s-2.16699 1.66699 -3.5 3c-2.66699 3.33301 -5.66699 7.66602 -9 12.999s-6.33301 11.5 -9 18.5
s-4.33398 15.333 -5.00098 25s0.333008 20.834 3 33.501c4 20.667 13 41.834 27 63.501s30.833 41.5 50.5 59.5s41.167 32.667 64.5 44s46.666 17 69.999 17c10.667 0 18.834 -2.16699 24.501 -6.5s9.66699 -9.5 12 -15.5s3.16602 -12.5 2.49902 -19.5
s-1.33398 -13.167 -2.00098 -18.5c-3.33301 -16.667 -9 -34.167 -17 -52.5s-17 -36.833 -27 -55.5s-20.667 -36.5 -32 -53.5l-32 -46.5l-43.5 -60.5c-10.333 -14.333 -18.166 -25.5 -23.499 -33.5s-9.66602 -14.167 -12.999 -18.5s-7.33301 -9.16602 -12 -14.499
c11.333 0.666992 25.5 2.16699 42.5 4.5s32.5 5.5 46.5 9.5c7.33301 10.667 13 19.167 17 25.5s7.16699 11 9.5 14s4.16602 4.83301 5.49902 5.5s3 1 5 1c4.66699 0 9 -2 13 -6s5.33301 -8.33301 4 -13c-0.666992 -1.33301 -2 -2.83301 -4 -4.5s-6.66699 -7.16699 -14 -16.5
c5.33301 0.666992 8.83301 1.16699 10.5 1.5s3.16699 0.5 4.5 0.5c5.33301 0 8.66602 -2 9.99902 -6z" />
    <glyph glyph-name="five" unicode="5" horiz-adv-x="316" 
d="M328 434c10.667 -1.33301 14.9951 -5.99805 12.9951 -13.998c-1.33301 -4.66699 -3.66602 -8.83398 -6.99902 -12.501s-9 -5.5 -17 -5.5c-2.66699 0 -8.83398 0.833008 -18.501 2.5s-21.167 3.83398 -34.5 6.50098s-27.5 5.33398 -42.5 8.00098s-29 4.83398 -42 6.50098
s-24.5 2.66699 -34.5 3s-16.333 -0.833984 -19 -3.50098c-0.666992 -0.666992 -2 -3 -4 -7s-4 -8.5 -6 -13.5l-6 -15c-2 -5 -3.66699 -8.83301 -5 -11.5c-10.667 -25.333 -19.5 -47.333 -26.5 -66l-18 -47.5c-5 -13 -9.33301 -23.5 -13 -31.5s-7.16699 -14.333 -10.5 -19
c11.333 0 26 0.666992 44 2s36 2 54 2c18.667 0 33.334 -1.83301 44.001 -5.5s18.5 -8 23.5 -13s7.83301 -10 8.5 -15s0.666992 -8.83301 0 -11.5c-1.33301 -5.33301 -2.83301 -9.5 -4.5 -12.5s-3.16699 -6.83301 -4.5 -11.5l-13 -23
c-8.66699 -15.333 -20.167 -32.333 -34.5 -51s-31.5 -35.667 -51.5 -51s-41.333 -23 -64 -23c-8 0 -15.833 2.16699 -23.5 6.5s-14 10 -19 17s-8.66699 15 -11 24s-2.5 17.833 -0.5 26.5c2 8 5.5 14.833 10.5 20.5s10.333 10.334 16 14.001s10.834 6.16699 15.501 7.5
s7.66699 2 9 2c4 0 5.66699 -1 5 -3l-6 -1.5c-4 -1 -8.5 -2.66699 -13.5 -5s-9.83301 -6 -14.5 -11s-7.66699 -11.833 -9 -20.5c-1.33301 -6 -1 -12.333 1 -19s5.16699 -12.834 9.5 -18.501s9.16602 -10.5 14.499 -14.5s11 -6 17 -6c10 0 19.833 2.83301 29.5 8.5
s18.834 12.5 27.501 20.5s16.5 16.5 23.5 25.5l18.5 24.5c9.33301 12.667 16.5 23.167 21.5 31.5s8.66699 15 11 20s3.83301 8.66699 4.5 11s1.33398 4.5 2.00098 6.5c2 8 -1.5 13.833 -10.5 17.5s-20.333 6.16699 -34 7.5s-28.667 1.83301 -45 1.5
s-31.166 -0.333008 -44.499 0s-23.833 1.66602 -31.5 3.99902s-9.5 6.5 -5.5 12.5c0 0.666992 1.5 5 4.5 13s8.16699 20.667 15.5 38l29.5 68c12.333 28 28.5 62 48.5 102c3.33301 4.66699 6.33301 7.66699 9 9s6 2.66602 10 3.99902
c34.667 1.33301 68.834 0.666016 102.501 -2.00098s67.5 -5.66699 101.5 -9z" />
    <glyph glyph-name="six" unicode="6" horiz-adv-x="321" 
d="M315 460c6.66699 -0.666992 9.33203 -2.66699 7.99902 -6c0 -1.33301 -2 -2 -6 -2h-6c-13.333 0 -29.166 -5.66699 -47.499 -17s-37.333 -26.5 -57 -45.5s-39.167 -40.5 -58.5 -64.5s-36.833 -48.5 -52.5 -73.5s-28.834 -49.5 -39.501 -73.5s-16.667 -45.333 -18 -64
c-3.33301 -28.667 3.33398 -51.5 20.001 -68.5s40 -25.5 70 -25.5c8.66699 0 19.5 1.33301 32.5 4s25.833 7.33398 38.5 14.001s24.334 15.834 35.001 27.501s18 26.5 22 44.5c1.33301 12.667 -0.333984 24.334 -5.00098 35.001s-10.834 19.667 -18.501 27
s-16.167 13.166 -25.5 17.499s-17.666 6.5 -24.999 6.5c-5.33301 0 -10.5 -0.666992 -15.5 -2s-9.5 -2.66602 -13.5 -3.99902c-12.667 -4.66699 -22 -8.83398 -28 -12.501s-10.667 -7 -14 -10l-8 -7c-2 -1.66699 -5 -2.5 -9 -2.5c-3.33301 0 -6.5 1.66699 -9.5 5
s-4.5 6.66602 -4.5 9.99902c0.666992 2 2 4.66699 4 8s5.66699 7 11 11l6.5 5c4.33301 3.33301 10.333 6.66602 18 9.99902s16.334 6.5 26.001 9.5s20.167 4.5 31.5 4.5c18 0 33 -3.83301 45 -11.5s21.667 -17 29 -28s12.333 -22.5 15 -34.5s3.66699 -22.667 3 -32
c-2 -17.333 -8 -33.333 -18 -48s-22.5 -27.334 -37.5 -38.001s-31.5 -19 -49.5 -25s-36 -9 -54 -9c-32 0 -58 9.66699 -78 29s-28.333 47 -25 83c2 22.667 9 47.334 21 74.001s26.833 53.167 44.5 79.5s37.5 51.666 59.5 75.999s44 45.833 66 64.5
s43.167 33.334 63.5 44.001s38.166 15.667 53.499 15z" />
    <glyph glyph-name="seven" unicode="7" horiz-adv-x="277" 
d="M279 453c7.33301 0 14.4971 -3.50391 21.4971 -10.5039s9.83301 -14.5 8.5 -22.5c-0.666992 -2.66699 -2.33398 -5.5 -5.00098 -8.5s-5.66699 -4.5 -9 -4.5c-5.33301 0 -12.5 0.833008 -21.5 2.5s-15.5 2.5 -19.5 2.5c-1.33301 0 -6.16602 -7.83301 -14.499 -23.5
l-30 -56.5l-36 -69l-31.5 -61l32.5 -2.5c4.33301 -0.333008 6.16602 -1.16602 5.49902 -2.49902c-0.666992 -3.33301 -3.5 -5.5 -8.5 -6.5s-17.833 -2.83301 -38.5 -5.5l-56 -106.5l-30 -55.5c-6.66699 -12 -11.5 -19.167 -14.5 -21.5s-6.16699 -3.5 -9.5 -3.5
s-6.5 0.833008 -9.5 2.5s-3.83301 5.83398 -2.5 12.501c0.666992 4 1.66699 7.83301 3 11.5s5 10.834 11 21.501l27.5 47l53.5 88l-29 -3.5c-8 -1 -12.667 -1.5 -14 -1.5c-4 0 -6.66699 0.833008 -8 2.5s-1.66602 5.16699 -0.999023 10.5l3.5 12.5
c1 3.66699 4.16699 5.83398 9.5 6.50098c1.33301 0 7.16602 -0.333008 17.499 -1s21.833 -1.66699 34.5 -3l35 59l34 57.5l30 51l24 40.5c-12 0.666992 -25 1.66699 -39 3s-28 2.5 -42 3.5s-27.667 1.83301 -41 2.5s-25 1 -35 1c-11.333 0 -18 -0.166992 -20 -0.5
s-4.33301 -0.5 -7 -0.5s-6.16699 1.5 -10.5 4.5s-5.83301 7.83301 -4.5 14.5c0.666992 3.33301 3.33398 6.5 8.00098 9.5s10.334 4.5 17.001 4.5c4.66699 0 14 -1 28 -3s29.667 -4.5 47 -7.5l55 -9.5l53 -9c2.66699 5.33301 4.83398 9.83301 6.50098 13.5
s3.33398 6.5 5.00098 8.5s3.66699 3.5 6 4.5s5.83301 1.5 10.5 1.5zM269.997 422.996c2 0 1.83301 1.33301 -0.5 4s-4.16602 4.66699 -5.49902 6l-2 -4c-0.666992 -1.33301 -1.33398 -3 -2.00098 -5c1.33301 0 3 -0.166992 5 -0.5s3.66699 -0.5 5 -0.5z" />
    <glyph glyph-name="eight" unicode="8" horiz-adv-x="300" 
d="M236 292c12 -0.666992 21.8311 -4.49805 29.498 -11.498s13.834 -16 18.501 -27s7.66699 -23.333 9 -37s1.33301 -26.834 0 -39.501c-2 -22 -7.83301 -43.667 -17.5 -65s-22.167 -40.5 -37.5 -57.5s-33.333 -30.667 -54 -41s-43 -15.5 -67 -15.5
c-37.333 0 -64.5 8.33301 -81.5 25s-26.167 37.5 -27.5 62.5s3.5 51.833 14.5 80.5s25.833 55 44.5 79c3.33301 4 8.33301 9.33301 15 16s14.167 13 22.5 19s17 11.167 26 15.5s17.5 6.5 25.5 6.5c-7.33301 7.33301 -11.666 15.666 -12.999 24.999
s-1.66602 17.333 -0.999023 24c0.666992 5.33301 1.5 11.5 2.5 18.5s3.5 14.167 7.5 21.5c1.33301 3.33301 4.16602 8.66602 8.49902 15.999s9.83301 14.5 16.5 21.5s14.834 13.167 24.501 18.5s20.834 8 33.501 8h-1h2c3.33301 0 8.66602 -0.666992 15.999 -2
s14.5 -4.5 21.5 -9.5s12.833 -12.667 17.5 -23s5.66699 -24.166 3 -41.499c-3.33301 -22.667 -9.33301 -40 -18 -52s-16.834 -20.5 -24.501 -25.5s-13.667 -7.83301 -18 -8.5s-3.5 -1 2.5 -1zM157.998 334.002c3.33301 -10.667 9.66797 -17.168 19.001 -19.501
s16.666 -3.5 21.999 -3.5c0.666992 0 4.5 0.666992 11.5 2s14.5 4.83301 22.5 10.5s15.667 13.834 23 24.501s12 25.334 14 44.001c1.33301 15.333 -2.33398 26.666 -11.001 33.999s-18.667 11 -30 11c-13.333 0 -25.166 -3.33301 -35.499 -10s-18.833 -15 -25.5 -25
s-11 -21 -13 -33s-1 -23.667 3 -35zM120 23.001c20.667 0.666992 39.668 6.50098 57.001 17.501s32.166 24.667 44.499 41s21.666 34.666 27.999 54.999s9.16602 40.5 8.49902 60.5c-4 24 -9.66699 43.5 -17 58.5s-20.666 25.167 -39.999 30.5
c-20.667 3.33301 -40.5 2.5 -59.5 -2.5s-40.167 -19.5 -63.5 -43.5c-18.667 -19.333 -32.667 -41.5 -42 -66.5s-12.666 -48.5 -9.99902 -70.5s11.5 -40.667 26.5 -56s37.5 -23.333 67.5 -24z" />
    <glyph glyph-name="nine" unicode="9" horiz-adv-x="330" 
d="M314 419c1.33301 -2.66699 3.50195 -8.16797 6.50195 -16.501s4.5 -19.166 4.5 -32.499c0 -29.333 -6.16699 -58.833 -18.5 -88.5s-28.333 -58.167 -48 -85.5s-41.334 -53.166 -65.001 -77.499s-46.834 -45.5 -69.501 -63.5s-43.5 -32.167 -62.5 -42.5
s-33.167 -15.5 -42.5 -15.5c-7.33301 0 -11 1.66699 -11 5c0 2 2 3 6 3c12 0 27.5 5.83301 46.5 17.5s38.833 27.167 59.5 46.5s41.5 41.333 62.5 66s39.833 50.334 56.5 77.001s30.167 53 40.5 79s15.5 50 15.5 72c0 27.333 -8.33301 47.833 -25 61.5s-39 20.5 -67 20.5
c-18 0 -35.833 -2.83301 -53.5 -8.5s-33.334 -14 -47.001 -25s-24.834 -24.5 -33.501 -40.5s-13 -34 -13 -54c0 -14 2.5 -26.833 7.5 -38.5s11.5 -21.5 19.5 -29.5s17.333 -14.167 28 -18.5s22 -6.5 34 -6.5c10 0 19.5 2 28.5 6s17.5 8.5 25.5 13.5l22 13.5
c6.66699 4 12.334 6 17.001 6c4 0 7.5 -1.66699 10.5 -5s4.5 -6.66602 4.5 -9.99902c-4.66699 -12.667 -15 -24.334 -31 -35.001s-40.333 -16 -73 -16c-14 0 -27.5 2.66699 -40.5 8s-24.5 12.833 -34.5 22.5s-18 21.167 -24 34.5s-9 27.666 -9 42.999
c0 20.667 4.16699 41 12.5 61s20.166 37.833 35.499 53.5s34 28.167 56 37.5s46.667 13.666 74 12.999c10 0 19.833 -1.5 29.5 -4.5s18.834 -7 27.501 -12s16.334 -10.5 23.001 -16.5s11.667 -12 15 -18z" />
    <glyph glyph-name="colon" unicode=":" horiz-adv-x="90" 
d="M55 63c-4.66699 -6.66699 -9.66797 -11.834 -15.001 -15.501s-9.66602 -5.5 -12.999 -5.5s-5.16602 1.83301 -5.49902 5.5s2.5 9.83398 8.5 18.501c1.33301 2 2.33301 3.83301 3 5.5s1.66699 3.5 3 5.5c4 7.33301 9 9 15 5c3.33301 -1.33301 5.16602 -4.33301 5.49902 -9
s-0.166992 -8 -1.5 -10zM79.999 166c-4.66699 -6.66699 -9.66797 -11.834 -15.001 -15.501s-9.66602 -5.5 -12.999 -5.5s-5.16602 1.83301 -5.49902 5.5s2.5 9.83398 8.5 18.501c1.33301 2 2.33301 3.83301 3 5.5s1.66699 3.5 3 5.5c4 7.33301 9 9 15 5
c3.33301 -1.33301 5.16602 -4.33301 5.49902 -9s-0.166992 -8 -1.5 -10z" />
    <glyph glyph-name="semicolon" unicode=";" horiz-adv-x="92" 
d="M82 166c-4.66699 -6.66699 -9.66797 -11.834 -15.001 -15.501s-9.66602 -5.5 -12.999 -5.5s-5.16602 1.83301 -5.49902 5.5s2.5 9.83398 8.5 18.501c1.33301 2 2.33301 3.83301 3 5.5s1.66699 3.5 3 5.5c4 7.33301 9 9 15 5
c3.33301 -1.33301 5.16602 -4.33301 5.49902 -9s-0.166992 -8 -1.5 -10zM56.999 62c-3.33301 -5.33301 -8.83301 -10.832 -16.5 -16.499s-15.5 -11.167 -23.5 -16.5c-1.33301 -0.666992 -3.16602 -0.666992 -5.49902 0s-2.83301 1.66699 -1.5 3
c6.66699 7.33301 11.167 13.166 13.5 17.499l8.5 15.5c1.33301 2 2.33301 3.83301 3 5.5s1.66699 3.5 3 5.5c4 7.33301 9 9 15 5c3.33301 -1.33301 5.16602 -4.33301 5.49902 -9s-0.166992 -8 -1.5 -10z" />
    <glyph glyph-name="less" unicode="&#x3c;" horiz-adv-x="146" 
d="M38 127c-1.33301 5.33301 -1.49707 9.16699 -0.49707 11.5s3.5 5.5 7.5 9.5c10.667 7.33301 23.5 12.833 38.5 16.5s30.5 10.5 46.5 20.5h1c3.33301 0 5 -2 5 -6s-3.5 -9 -10.5 -15s-15 -12 -24 -18s-17.833 -11.5 -26.5 -16.5l-18 -10.5
c-0.666992 -4 -0.833984 -10.167 -0.500977 -18.5s0.166016 -17 -0.500977 -26s-1.83398 -16.833 -3.50098 -23.5s-4.5 -10 -8.5 -10c-1.33301 0 -2 0.666992 -2 2c0.666992 5.33301 1 10.333 1 15v13c0 9.33301 -0.5 18 -1.5 26s-2.16699 18 -3.5 30z" />
    <glyph glyph-name="equal" unicode="=" horiz-adv-x="151" 
d="M21 103c-4 0 -6.83301 0.332031 -8.5 0.999023s-2.5 3.66699 -2.5 9c0 4 0.5 7.16699 1.5 9.5s4.16699 3.5 9.5 3.5h109c4 0 6.83301 -0.166992 8.5 -0.5s2.5 -3.16602 2.5 -8.49902c0 -4 -0.5 -7.33301 -1.5 -10s-4.16699 -4 -9.5 -4h-109zM21 151.999
c-4 0 -6.83301 0.332031 -8.5 0.999023s-2.5 3.66699 -2.5 9c0 4 0.5 7.16699 1.5 9.5s4.16699 3.5 9.5 3.5h109c4 0 6.83301 -0.166992 8.5 -0.5s2.5 -3.16602 2.5 -8.49902c0 -4 -0.5 -7.33301 -1.5 -10s-4.16699 -4 -9.5 -4h-109z" />
    <glyph glyph-name="greater" unicode="&#x3e;" horiz-adv-x="99" 
d="M87 112c2 -4.66699 3 -8.33203 3 -10.999s-1.33301 -6.33398 -4 -11.001c-8.66699 -9.33301 -19.667 -17.833 -33 -25.5s-26.666 -18.5 -39.999 -32.5h-1c-4 -1.33301 -6 0 -6 4c-1.33301 4 0.666992 9.5 6 16.5s11.666 14.333 18.999 22s14.5 14.667 21.5 21
s11.833 11.166 14.5 14.499c-0.666992 4 -2.16699 10.333 -4.5 19s-4.5 17.5 -6.5 26.5s-3 17.167 -3 24.5s2 11.666 6 12.999c0.666992 0.666992 1.66699 0.333984 3 -0.999023c0.666992 -5.33301 1.5 -10.333 2.5 -15s2.16699 -8.66699 3.5 -12
c2 -9.33301 4.5 -17.666 7.5 -24.999z" />
    <glyph glyph-name="question" unicode="?" horiz-adv-x="316" 
d="M24 179c-1.33301 2 -3.16406 6.50195 -5.49707 13.502s-3.5 15.833 -3.5 26.5c0 20 7 41.5 21 64.5s31.5 44.833 52.5 65.5s44 39.167 69 55.5s48.167 28.166 69.5 35.499s39.166 8.83301 53.499 4.5s21.833 -16.5 22.5 -36.5c-2 -18 -6.83301 -37 -14.5 -57
s-17 -39.833 -28 -59.5s-22.667 -38.334 -35 -56.001s-23.833 -33.167 -34.5 -46.5l-65 -80c-15.333 -19.333 -28.333 -32.333 -39 -39c9.33301 -1.33301 16.166 -2.16602 20.499 -2.49902s6.5 -2.16602 6.5 -5.49902s-1.16699 -8.66602 -3.5 -15.999s-4.83301 -11 -7.5 -11
l-6 3.5l-14 8.5c-5.33301 3.33301 -10.166 7 -14.499 11s-6.5 8 -6.5 12c0 2 0.166992 4 0.5 6s1.33301 4.66699 3 8s4.66699 7.66602 9 12.999s10.833 12.666 19.5 21.999c2 2.66699 7.33301 8.66699 16 18s19.167 21.5 31.5 36.5l40.5 51c14.667 19 29 39.5 43 61.5
l18 28.5c6.66699 10.333 12.834 20.833 18.501 31.5s10.334 21.5 14.001 32.5s5.5 21.833 5.5 32.5c0 11.333 -5.83301 17.166 -17.5 17.499s-26.334 -3.16699 -44.001 -10.5s-36.834 -17.833 -57.501 -31.5s-39.834 -29 -57.501 -46s-32.334 -34.833 -44.001 -53.5
s-17.5 -36.334 -17.5 -53.001c0 -17.333 2.16699 -29.333 6.5 -36s6.5 -11.667 6.5 -15s-1.66699 -7.16602 -5 -11.499s-7.33301 -6.5 -12 -6.5c-5.33301 0 -10.333 4.66699 -15 14zM69.002 39.002c7.33301 -5.33301 10.999 -12.667 10.999 -22
c0 -7.33301 -2.5 -13.333 -7.5 -18s-10.833 -7 -17.5 -7c-7.33301 0 -13.666 2.66699 -18.999 8s-8 11.333 -8 18c0 7.33301 2.5 13.333 7.5 18s11.167 7 18.5 7c5.33301 0 10.333 -1.33301 15 -4z" />
    <glyph glyph-name="at" unicode="@" horiz-adv-x="368" 
d="M287 351c28.667 -2.66699 48.1748 -12.8271 58.5078 -30.4941s14 -39.167 11 -64.5s-11.333 -52.333 -25 -81s-29.834 -55.167 -48.501 -79.5s-38.834 -44.5 -60.501 -60.5s-41.834 -24 -60.501 -24c-19.333 0 -28 7.66699 -26 23c1.33301 3.33301 3.66602 8 6.99902 14
s5.66602 9.66699 6.99902 11c-7.33301 -7.33301 -13 -12.833 -17 -16.5l-9.5 -8.5c-2.33301 -2 -4.33301 -3.5 -6 -4.5s-3.5 -2.5 -5.5 -4.5c-10 -8.66699 -20 -13.334 -30 -14.001s-18 3.33301 -24 12c-4.66699 8.66699 -2.83398 21.334 5.49902 38.001
s19.333 33.834 33 51.501s28.334 34.334 44.001 50.001s28.5 26.5 38.5 32.5c8 5.33301 16.167 9.16602 24.5 11.499s17.166 1.16602 26.499 -3.50098c3.33301 -1.33301 6.16602 -2.66602 8.49902 -3.99902s4.16602 -1.66602 5.49902 -0.999023l8 8
c2 2.66699 5.33301 4.66699 10 6s9.33398 2.16602 14.001 2.49902s8.5 0 11.5 -1s3.83301 -2.83301 2.5 -5.5c-21.333 -22.667 -42.833 -47.334 -64.5 -74.001s-40.834 -54.334 -57.501 -83.001c-1.33301 -2 -3.16602 -5.83301 -5.49902 -11.5s-2.5 -9.5 -0.5 -11.5
c2 -3.33301 5 -3.66602 9 -0.999023c12.667 0 26.834 7.16699 42.501 21.5s30.667 32.166 45 53.499s27.166 44.5 38.499 69.5s19 48.167 23 69.5s3.66699 39.166 -1 53.499s-16 21.5 -34 21.5c-29.333 0 -59.333 -9.5 -90 -28.5s-58.5 -43.5 -83.5 -73.5
s-45.5 -63.333 -61.5 -100s-24 -72.334 -24 -107.001c0 -20.667 5 -36.5 15 -47.5s26 -16.5 48 -16.5c20.667 0 41.5 5 62.5 15s40.167 21.333 57.5 34s32.166 25.167 44.499 37.5l24.5 24.5c0.666992 0.666992 1 0 1 -2c0.666992 -7.33301 -5.83301 -17.833 -19.5 -31.5
s-30.334 -27.334 -50.001 -41.001s-40.667 -25.667 -63 -36s-42.166 -15.5 -59.499 -15.5c-15.333 0 -28 2.5 -38 7.5s-18 11.5 -24 19.5s-10.167 16.833 -12.5 26.5s-3.5 19.167 -3.5 28.5c0 26.667 4 53.667 12 81s18.833 53.5 32.5 78.5s29.5 48.667 47.5 71
s37.333 41.666 58 57.999s42 29.166 64 38.499s43.333 14 64 14zM100.008 32.0068c5.33301 3.33301 11.8301 8.66797 19.4971 16.001l23 23c7.66699 8 14.834 15.833 21.501 23.5s11.334 13.5 14.001 17.5c4 4.66699 8.66699 11 14 19l15 23.5
c4.66699 7.66699 8.16699 14.667 10.5 21s2.16602 10.166 -0.500977 11.499c-3.33301 2.66699 -6.16602 3.66699 -8.49902 3s-4.5 -1.66699 -6.5 -3c-0.666992 0 -3.16699 -2 -7.5 -6l-15.5 -15l-18.5 -19c-6.33301 -6.66699 -11.5 -13 -15.5 -19l-34 -45.5
c-11.333 -15 -19.333 -29.167 -24 -42.5c-1.33301 -4.66699 -0.666016 -7.66699 2.00098 -9c0.666992 -0.666992 2.16699 -1 4.5 -1s4.5 0.666992 6.5 2z" />
    <glyph glyph-name="A" unicode="A" horiz-adv-x="500" 
d="M200 191c0 15.333 -8.33594 22.999 -25.0029 22.999c-18 0 -36.167 -4.33301 -54.5 -13s-35.166 -20.167 -50.499 -34.5s-27.833 -30.666 -37.5 -48.999s-14.5 -37.166 -14.5 -56.499c0 -16 5 -31.667 15 -47s24 -23 42 -23c19.333 0 40.833 7.16699 64.5 21.5
s47.167 31.333 70.5 51s45.666 39.834 66.999 60.501s39.666 37.667 54.999 51l-29 -2c-12.667 0 -22.667 1 -30 3s-13 4.66699 -17 8s-6.66699 7.16602 -8 11.499s-2 9.16602 -2 14.499c0 2.66699 0.666992 6.16699 2 10.5s3 8.5 5 12.5s4.5 7.5 7.5 10.5s6.5 4.5 10.5 4.5
c1.33301 0 2.5 -0.833008 3.5 -2.5s1.5 -3.16699 1.5 -4.5c0 -4 -2.5 -9 -7.5 -15s-9 -12 -12 -18s-3 -11.167 0 -15.5s12.5 -6.5 28.5 -6.5c11.333 0 23.333 1.5 36 4.5s24.334 5.5 35.001 7.5l146.5 131c45.667 41.333 91.834 79 138.501 113
c8 4.66699 15.667 6.66699 23 6s11.666 -2 12.999 -4s2.66602 -4.33301 3.99902 -7s2.5 -5.66699 3.5 -9s1.5 -7.33301 1.5 -12c0 -1.33301 -4.33301 -6.66602 -13 -15.999l-34.5 -37.5l-48.5 -53.5l-55.5 -63l-56 -67c-18.333 -22.667 -34.666 -44.167 -48.999 -64.5
s-26 -39 -35 -56s-13.5 -30.833 -13.5 -41.5c0 -4.66699 1.5 -7.33398 4.5 -8.00098s6.5 -1 10.5 -1c2.66699 0 6.33398 1 11.001 3s9 4.66699 13 8s7.5 6.83301 10.5 10.5s4.5 7.5 4.5 11.5s-1.5 7.16699 -4.5 9.5s-6.5 4.5 -10.5 6.5s-7.5 3.66699 -10.5 5
s-4.5 2.66602 -4.5 3.99902s1 3.33301 3 6s4.66699 4 8 4c8.66699 0 16.667 -4.16699 24 -12.5s9.66602 -16.833 6.99902 -25.5c-3.33301 -11.333 -10.333 -22 -21 -32s-22.667 -15 -36 -15c-7.33301 0 -12.833 1 -16.5 3s-6.33398 4.5 -8.00098 7.5s-2.5 6 -2.5 9
s-0.333008 5.83301 -1 8.5c0 15.333 4.5 31.666 13.5 48.999s21.167 38 36.5 62c37.333 55.333 77 108.833 119 160.5s87.667 100.834 137 147.501c-7.33301 2.66699 -15.666 1 -24.999 -5c-1.33301 0 -8.5 -5.5 -21.5 -16.5s-30.5 -26.667 -52.5 -47l-78 -72.5l-97 -93
c0.666992 0.666992 2.16699 1 4.5 1h5.5c1.33301 0 4.33301 -0.666992 9 -2s9.33398 -3 14.001 -5s8.83398 -4.33301 12.501 -7s5.5 -5.33398 5.5 -8.00098c0 -0.666992 -3.16699 -1.16699 -9.5 -1.5s-13.666 -0.666016 -21.999 -0.999023l-26 -1
c-9 -0.333008 -15.833 -0.5 -20.5 -0.5l-56 -58c-22 -22.667 -45.5 -44.5 -70.5 -65.5s-50.833 -39.333 -77.5 -55s-52.334 -24.167 -77.001 -25.5c-13.333 -0.666992 -25.166 1.33301 -35.499 6s-19.166 11.167 -26.499 19.5s-13 18 -17 29s-6 22.5 -6 34.5
c0 20.667 4.5 41.5 13.5 62.5s21.167 39.833 36.5 56.5s33.166 30.334 53.499 41.001s42.166 16 65.499 16c18.667 0 33.167 -5.5 43.5 -16.5s15.5 -25.167 15.5 -42.5v-7c0 -4 -0.666992 -7.66699 -2 -11c-2 -8 -5.33301 -16.167 -10 -24.5s-9.5 -16 -14.5 -23
s-9.66699 -12.667 -14 -17l-7.5 -7.5c-3.33301 -1.33301 -7.16602 -0.666016 -11.499 2.00098s-7.5 5 -9.5 7c-3.33301 2 -4.66602 3.83301 -3.99902 5.5s2.66699 4.16699 6 7.5l2 2c17.333 28.667 27.666 48.167 30.999 58.5s5 16.166 5 17.499z" />
    <glyph glyph-name="B" unicode="B" horiz-adv-x="470" 
d="M47 26c0 23.333 6 49.1631 18 77.4961s29 57.666 51 87.999s48.5 61 79.5 92s65.5 60.833 103.5 89.5c9.33301 7.33301 20.333 15.333 33 24s26.5 16.667 41.5 24s30.667 13.5 47 18.5s32.833 7.5 49.5 7.5c20 0 37.667 -3.5 53 -10.5s28 -15.5 38 -25.5
s17.667 -21 23 -33s8.33301 -23 9 -33c0.666992 -23.333 -3 -45.166 -11 -65.499s-19.667 -39.333 -35 -57s-33.5 -33.834 -54.5 -48.501s-43.833 -28 -68.5 -40c5.33301 -13.333 6.33301 -26.5 3 -39.5s-8.66602 -25.833 -15.999 -38.5
c4.66699 -1.33301 10.5 -5.66602 17.5 -12.999s10.5 -13.666 10.5 -18.999c0 -3.33301 -2.33301 -5 -7 -5c-1.33301 0 -2.66602 1.16699 -3.99902 3.5l-4.5 8c-1.66699 3 -4 6.16699 -7 9.5s-6.83301 6.33301 -11.5 9c-14 -19.333 -31.5 -36.166 -52.5 -50.499
s-43.167 -21.5 -66.5 -21.5c-9.33301 0 -17 1.33301 -23 4s-10.667 5.83398 -14 9.50098s-5.66602 7.5 -6.99902 11.5s-2 7.66699 -2 11c0 8 2.5 15.833 7.5 23.5s11.667 14.334 20 20.001s17.833 10.167 28.5 13.5s21.667 5 33 5c12 0 23.333 -0.833008 34 -2.5
s20.334 -4.16699 29.001 -7.5c4 10 6.66699 20.5 8 31.5s-1 20.5 -7 28.5c-9.33301 -2.66699 -16.5 -4.16699 -21.5 -4.5s-12.5 -0.5 -22.5 -0.5h-5c-2 0 -4.66699 0.333008 -8 1c-4 0 -9.66699 1.83301 -17 5.5s-11 8.5 -11 14.5c0 10.667 5.33301 20.167 16 28.5
s21.667 12.5 33 12.5c8 0 17.167 -1.66699 27.5 -5s17.5 -8.33301 21.5 -15c13.333 4 26.166 9.83301 38.499 17.5s24.166 16.167 35.499 25.5c6.66699 5.33301 14.667 12.5 24 21.5s18.166 19.333 26.499 31s15.333 24.5 21 38.5s8.5 29 8.5 45
c0 8.66699 -2.16699 17.834 -6.5 27.501s-10.5 18.5 -18.5 26.5s-17.667 14.667 -29 20s-24 8 -38 8c-26 0 -54.167 -6.66699 -84.5 -20s-60.666 -30.833 -90.999 -52.5s-59.5 -46.334 -87.5 -74.001s-52.833 -56 -74.5 -85s-39 -57.167 -52 -84.5
s-19.5 -51.666 -19.5 -72.999c0 -11.333 1.83301 -18.333 5.5 -21s8.16699 -5 13.5 -7c16.667 0 32.834 4.66699 48.501 14s30.667 21 45 35s27.333 29 39 45l30.5 43c11.333 16.667 20 30.667 26 42s11.667 20.333 17 27s11.166 11.5 17.499 14.5s15.5 4.5 27.5 4.5
c5.33301 0 8 -1.33301 8 -4c0 -1.33301 -1.33301 -3.83301 -4 -7.5l-9 -12l-10.5 -14c-3.66699 -5 -6.83398 -9.16699 -9.50098 -12.5c-20.667 -33.333 -42.334 -63.333 -65.001 -90c-20 -23.333 -42.833 -44.833 -68.5 -64.5s-52.5 -30.834 -80.5 -33.501
c-9.33301 0 -16.833 1 -22.5 3s-10 4.66699 -13 8s-5 7 -6 11s-1.5 7.66699 -1.5 11zM337 144.997c8 0 15.1689 0.333008 21.502 1s13.166 2.66699 20.499 6c-4.66699 8 -11.334 12 -20.001 12c-4.66699 0 -10.167 -2.5 -16.5 -7.5s-9.5 -8.16699 -9.5 -9.5
c0 -0.666992 0.333008 -1 1 -1zM294.002 -3.00293c20 0 38.1689 5.33398 54.502 16.001s29.166 24.667 38.499 42c-5.33301 1.33301 -11.5 2.5 -18.5 3.5s-14.167 1.5 -21.5 1.5c-8 0 -16.667 -0.833008 -26 -2.5s-17.833 -4.5 -25.5 -8.5s-14.334 -9.16699 -20.001 -15.5
s-9.16699 -14.5 -10.5 -24.5c0 -0.666992 1.16699 -2.83398 3.5 -6.50098s10.833 -5.5 25.5 -5.5z" />
    <glyph glyph-name="C" unicode="C" horiz-adv-x="311" 
d="M89 -28c-19.333 0 -35.9971 4.66406 -49.9971 13.9971s-21 25 -21 47c0 25.333 6.66699 52.833 20 82.5s30.5 59 51.5 88s44 56.833 69 83.5s49.5 50 73.5 70l40.5 32.5c14.333 11 29.333 20.833 45 29.5s31.5 15.834 47.5 21.501s32.333 8.5 49 8.5
c14.667 0 26 -4 34 -12s12 -17.667 12 -29c0 -15.333 -5 -33.166 -15 -53.499s-21.5 -40.166 -34.5 -59.499s-26.333 -36.5 -40 -51.5s-23.834 -24.833 -30.501 -29.5c-5.33301 -3.33301 -10.333 -5.33301 -15 -6s-10.334 -1 -17.001 -1c-4 0 -7.5 0.333008 -10.5 1
s-4.5 1.66699 -4.5 3c0 0.666992 0.333008 1.33398 1 2.00098c10 10 22.333 23.167 37 39.5s29.167 33.833 43.5 52.5s26.833 37.5 37.5 56.5s16.667 35.833 18 50.5c-1.33301 4 -3.66602 6.33301 -6.99902 7s-7 1 -11 1c-22.667 0 -47.167 -6.66699 -73.5 -20
s-52.833 -30.5 -79.5 -51.5s-52.5 -44.5 -77.5 -70.5s-47.167 -51.667 -66.5 -77c-18.667 -24.667 -36.5 -51.5 -53.5 -80.5s-26.5 -58.167 -28.5 -87.5c0 -18 4.83301 -30.167 14.5 -36.5s21.5 -10.166 35.5 -11.499c10 -1.33301 22.167 -0.833008 36.5 1.5
s30.166 7.16602 47.499 14.499s36.333 17.5 57 30.5s42 29.833 64 50.5c7.33301 6.66699 12 12.5 14 17.5s3.66699 7.5 5 7.5s2.66602 -0.5 3.99902 -1.5s2 -2.5 2 -4.5c0 -3.33301 -2.16699 -7 -6.5 -11s-7.83301 -7.66699 -10.5 -11l-19.5 -19
c-11 -10.667 -25.667 -22.334 -44 -35.001s-39.833 -24.167 -64.5 -34.5s-51 -16.5 -79 -18.5z" />
    <glyph glyph-name="D" unicode="D" horiz-adv-x="414" 
d="M137 -20c-34 1.33301 -62.167 10.8398 -84.5 28.5068s-33.5 42.167 -33.5 73.5c0 20 4 37.667 12 53s18 28.166 30 38.499s24.833 18.333 38.5 24s26.167 8.5 37.5 8.5c3.33301 0 5 -1.66699 5 -5c0 -4.66699 -2.66699 -7 -8 -7c-3.33301 0 -10.5 -1.5 -21.5 -4.5
s-22.5 -8.5 -34.5 -16.5s-22.667 -19 -32 -33s-14 -32 -14 -54c0 -28 9.83301 -50.333 29.5 -67s43.5 -25 71.5 -25c39.333 0 77.5 10.833 114.5 32.5s70 49.334 99 83.001s52.167 71 69.5 112s26 81.167 26 120.5c0 10 -0.666992 19.667 -2 29s-4.33301 17.5 -9 24.5
s-11 12.667 -19 17s-18.667 6.5 -32 6.5c-4.66699 0 -8.66699 -0.333008 -12 -1s-8.66602 -1 -15.999 -1c-24 -4.66699 -48.333 -11.5 -73 -20.5s-47.167 -20.167 -67.5 -33.5s-36.833 -28.833 -49.5 -46.5s-19 -37.5 -19 -59.5s8.66699 -40.667 26 -56l4.5 6.5
c1.66699 2.33301 3.16699 4.83301 4.5 7.5c27.333 40 47.5 70.667 60.5 92s22.833 36.833 29.5 46.5s12.167 15 16.5 16s11.166 1.5 20.499 1.5c2.66699 0 4 -0.666992 4 -2c0 -2.66699 -3.33301 -8 -10 -16s-12 -15 -16 -21l-32 -46l-32.5 -45.5
c-12.333 -17 -24.833 -33.167 -37.5 -48.5c0.666992 -0.666992 3 -2 7 -4l12.5 -6c4.33301 -2 8 -4 11 -6s4.16699 -3.33301 3.5 -4s-4 -0.166992 -10 1.5s-16.333 4.83398 -31 9.50098l-44 -52c-10 -12 -17.167 -20.833 -21.5 -26.5s-7 -8.83398 -8 -9.50098
s-1.83301 -1 -2.5 -1c-1.33301 0 -2 0.666992 -2 2c0 2 6.83301 10.833 20.5 26.5s28.834 38.5 45.501 68.5c-10.667 7.33301 -18.834 17.166 -24.501 29.499s-8.5 25.166 -8.5 38.499c0 26.667 8.5 51.334 25.5 74.001s38.167 42.334 63.5 59.001s53 29.667 83 39
s58 14 84 14c24 0 42.5 -4.83301 55.5 -14.5s22.333 -20.834 28 -33.501s9 -25.334 10 -38.001s1.5 -22.334 1.5 -29.001c0 -40.667 -9.83301 -81.334 -29.5 -122.001s-45.667 -77.334 -78 -110.001s-69 -59.834 -110 -81.501s-82.833 -33.834 -125.5 -36.501zM176 181.007
l-0.000976562 7.50195c0 3 2.33301 3.83301 7 2.5c15.333 -5.33301 30.833 -5.33301 46.5 0s33.5 16 53.5 32c5.33301 4.66699 9.5 7.16699 12.5 7.5s6.16699 -1.16699 9.5 -4.5c2 -2 4.66699 -5.16699 8 -9.5s4 -7.5 2 -9.5c-16 -15.333 -32.167 -25.333 -48.5 -30
s-31.166 -6.83398 -44.499 -6.50098s-24.333 2.16602 -33 5.49902z" />
    <glyph glyph-name="E" unicode="E" horiz-adv-x="496" 
d="M157 102c-16 -2 -32.1641 -1.32129 -48.4971 2.01172s-31.333 9.16602 -45 17.499s-24.834 19.166 -33.501 32.499s-13 29 -13 47c0 34.667 10.333 62 31 82s47 35.167 79 45.5s67.333 17 106 20s76 4.5 112 4.5c19.333 0 37.666 -0.166992 54.999 -0.5
s33.333 -0.5 48 -0.5c13.333 0 24.833 0.333008 34.5 1s17.167 2 22.5 4l16.5 25.5c6.33301 9.66699 13.333 19 21 28s16.167 16.667 25.5 23s19.666 9.83301 30.999 10.5c1.33301 0 3.66602 -0.166992 6.99902 -0.5s6.83301 -1.66602 10.5 -3.99902
s6.83398 -5.83301 9.50098 -10.5s4 -11.334 4 -20.001c0 -14 -3.66699 -25.833 -11 -35.5s-16.666 -17.5 -27.999 -23.5s-23.666 -10.667 -36.999 -14s-26 -6 -38 -8c-0.666992 0 -2.66699 -2.5 -6 -7.5s-6.66602 -11.167 -9.99902 -18.5l6 -0.5
c4 -0.333008 8.16699 -1.33301 12.5 -3s8.33301 -3.66699 12 -6s5.5 -5.5 5.5 -9.5c0 -6.66699 -3.83301 -12.667 -11.5 -18s-16.834 -8 -27.501 -8c-7.33301 0 -13 2.16699 -17 6.5s-6 10.166 -6 17.499c0 2 0.166992 4.16699 0.5 6.5s0.5 4.16602 0.5 5.49902
c-26 0 -52.667 -4 -80 -12s-53.833 -19.333 -79.5 -34s-49.167 -32.334 -70.5 -53.001s-38.333 -43.334 -51 -68.001c15.333 2.66699 28.666 9 39.999 19s20 19.333 26 28l14 20c3.33301 4.66699 6.66602 8.16699 9.99902 10.5s6.83301 3.66602 10.5 3.99902
s9.16699 0.5 16.5 0.5c8.66699 0 13 -1.33301 13 -4c0 -0.666992 -1 -2.33398 -3 -5.00098s-4.5 -5.83398 -7.5 -9.50098l-9 -11.5c-3 -4 -5.5 -7 -7.5 -9c-15.333 -18 -29.833 -31.333 -43.5 -40s-25.5 -14.834 -35.5 -18.501s-17.833 -5.66699 -23.5 -6
s-8.5 -0.833008 -8.5 -1.5c-1.33301 -18.667 1.33398 -35 8.00098 -49s15.834 -25.833 27.501 -35.5s25.167 -17 40.5 -22s30.666 -7.5 45.999 -7.5c8 0 19.333 1.16699 34 3.5s29.167 6.16602 43.5 11.499s26.833 12.166 37.5 20.499s16 18.5 16 30.5
c0 7.33301 -2.83301 12 -8.5 14s-11.834 3.16699 -18.501 3.5s-12.834 1 -18.501 2s-8.5 3.83301 -8.5 8.5c0 7.33301 3 11 9 11c5.33301 0 11 -0.666992 17 -2s11.833 -3.5 17.5 -6.5s10.5 -6.66699 14.5 -11s6.33301 -9.83301 7 -16.5c0 -15.333 -5.33301 -28.5 -16 -39.5
s-24 -20.167 -40 -27.5s-33.167 -12.666 -51.5 -15.999s-35.166 -5 -50.499 -5c-18 0 -35.833 3 -53.5 9s-33 14.5 -46 25.5s-22.833 24.667 -29.5 41s-8.66699 35.166 -6 56.499zM560.003 383.012c-3.33301 -2.66699 -6.16992 -5.50098 -8.50293 -8.50098
s-5.16602 -6.16699 -8.49902 -9.5c39.333 10.667 59 25.334 59 44.001c0 1.33301 -0.666992 2 -2 2h1c-1.33301 0 -5.16602 -1.33301 -11.499 -4s-16.166 -10.667 -29.499 -24zM494.999 291.011c-1.33301 -2.66699 -2 -6.00098 -2 -10.001
c0 -1.33301 0.5 -2.66602 1.5 -3.99902s3.83301 -2 8.5 -2c2 0 5.33301 0.5 10 1.5s7 2.83301 7 5.5c0 3.33301 -3.5 5.83301 -10.5 7.5s-11.833 2.16699 -14.5 1.5zM266.999 322.01c-24.667 0 -50.668 -0.999023 -78.001 -2.99902s-52.5 -7 -75.5 -15
s-42.167 -20.167 -57.5 -36.5s-23 -39.166 -23 -68.499c0 -15.333 4.83301 -28.666 14.5 -39.999s21.167 -20.333 34.5 -27s27.5 -10.834 42.5 -12.501s27.833 -0.166992 38.5 4.5c16 37.333 37.833 67.666 65.5 90.999s56.834 41.666 87.501 54.999s60.5 22.333 89.5 27
s53.167 7 72.5 7c2 6 4.66699 12.667 8 20c-34 -1.33301 -68.5 -2 -103.5 -2h-115.5z" />
    <glyph glyph-name="F" unicode="F" horiz-adv-x="293" 
d="M45 -22c-11.333 0 -21.665 3.66797 -30.998 11.001s-14 17.666 -14 30.999c0 14 2.66699 27 8 39s10.666 21 15.999 27l4.5 5c3 3.33301 7.16699 7 12.5 11s11.166 7.66699 17.499 11s13.166 5 20.499 5c2 0 3.33301 -2 4 -6s1 -7.66699 1 -11
c0 -4.66699 -3.83301 -7.83398 -11.5 -9.50098s-16 -4.5 -25 -8.5s-17.333 -10.667 -25 -20s-11.5 -23.666 -11.5 -42.999c2 -9.33301 5.16699 -16.333 9.5 -21s12.166 -7 23.499 -7c23.333 0 48 8.66699 74 26s51.333 38.333 76 63s48 50.334 70 77.001l56 68l-60 1
c-8 0 -16.5 -1.16699 -25.5 -3.5s-16.167 -3.5 -21.5 -3.5c-2 0 -4.5 0.833008 -7.5 2.5s-4.5 4.5 -4.5 8.5c0 2 1.5 3.66699 4.5 5s6.5 2.33301 10.5 3s8 1.16699 12 1.5s7 0.5 9 0.5h23.5c12.333 0 35.5 -0.666992 69.5 -2l18 22l16 20
c-10.667 -1.33301 -24.334 -2.33301 -41.001 -3s-34.667 -1.33398 -54 -2.00098s-39 -1.5 -59 -2.5s-38.833 -2.33301 -56.5 -4s-33.167 -3.83398 -46.5 -6.50098s-23 -6 -29 -10c-10.667 -7.33301 -17.5 -15.666 -20.5 -24.999s-4 -18.5 -3 -27.5s2.83301 -17.667 5.5 -26
s4 -14.833 4 -19.5c0 -2.66699 -0.666992 -6.16699 -2 -10.5s-3 -8.5 -5 -12.5s-4.16699 -7.33301 -6.5 -10s-4.5 -4 -6.5 -4s-4.83301 3.5 -8.5 10.5s-7.16699 15.5 -10.5 25.5s-6.16602 20.667 -8.49902 32s-2.83301 21.333 -1.5 30
c0.666992 3.33301 1.5 8.16602 2.5 14.499s4 12.833 9 19.5s13.167 13 24.5 19s27.333 10.333 48 13c40 4.66699 84.5 7.16699 133.5 7.5s96.833 3.16602 143.5 8.49902c8 10 17.833 23.333 29.5 40s24.5 33 38.5 49s28.333 29.833 43 41.5s28.667 17.5 42 17.5
c10.667 0 17.5 -3.66699 20.5 -11s4.5 -14.666 4.5 -21.999c0 -38 -13 -67.167 -39 -87.5s-62 -33.166 -108 -38.499l-18 -22.5l-23 -27.5c4 -1.33301 6 -3 6 -5c0 -4.66699 -1.5 -7.33398 -4.5 -8.00098s-7.5 -1 -13.5 -1c-1.33301 -2 -4 -5 -8 -9
c-21.333 -25.333 -43.666 -50.333 -66.999 -75s-50.666 -50.667 -81.999 -78l-33 -27.5c-12 -9.66699 -24.5 -18.667 -37.5 -27s-26.5 -15.166 -40.5 -20.499s-27.667 -8 -41 -8zM426.001 311.001c-2 -2 -3.66699 -4 -5 -6c10 0 21.167 1.66699 33.5 5
s24.333 8.83301 36 16.5s22 17.667 31 30s14.5 27.833 16.5 46.5c0 4 -0.333008 9 -1 15s-3 9 -7 9c-6 0 -14 -5 -24 -15s-20.333 -21.5 -31 -34.5s-20.5 -25.833 -29.5 -38.5z" />
    <glyph glyph-name="G" unicode="G" horiz-adv-x="325" 
d="M-231 -139c1.33301 23.333 10.5 43.002 27.5 59.002s37.5 28.833 61.5 38.5s49.167 16.667 75.5 21s49.5 6.5 69.5 6.5c28.667 0 55.834 -2.33301 81.501 -7s46.834 -8.66699 63.501 -12c11.333 12.667 21.833 25.667 31.5 39s19.167 24.666 28.5 33.999
c-14 -8.66699 -30.333 -17.334 -49 -26.001s-39.667 -13 -63 -13c-18.667 0 -33.834 2.66699 -45.501 8s-20.834 12.166 -27.501 20.499s-11.334 17.333 -14.001 27s-4 18.834 -4 27.501c0 26 5.16699 52.833 15.5 80.5s23.833 54.334 40.5 80.001s35.5 49.834 56.5 72.501
s41.833 42.334 62.5 59.001c8.66699 6.66699 18.834 14 30.501 22s24 15.5 37 22.5s26.333 12.833 40 17.5s26.5 7 38.5 7c10.667 0 19.167 -2.33301 25.5 -7s11 -10.334 14 -17.001s4.83301 -13.5 5.5 -20.5s1 -12.833 1 -17.5c0 -26 -4.33301 -51.667 -13 -77
s-21.167 -48 -37.5 -68s-36.166 -36.333 -59.499 -49s-49.333 -19 -78 -19c-3.33301 0 -9.5 0.166992 -18.5 0.5s-18.5 0.666016 -28.5 0.999023s-18.833 0.833008 -26.5 1.5s-11.5 1.33398 -11.5 2.00098c0 2 1.16699 4.33301 3.5 7s5.16602 5.5 8.49902 8.5
s6.83301 5.5 10.5 7.5s6.83398 3 9.50098 3h14.5c4.33301 0 8.66602 -0.166992 12.999 -0.5s9.33301 -0.5 15 -0.5h21.5c32.667 0 59.5 6.66699 80.5 20s37.667 29.166 50 47.499s20.833 37.333 25.5 57s7 35.5 7 47.5c0 18 -3 31.667 -9 41s-16 14 -30 14
c-10.667 0 -21.5 -2.16699 -32.5 -6.5s-21.833 -9.5 -32.5 -15.5c-21.333 -12 -45 -29.167 -71 -51.5s-50.333 -47.833 -73 -76.5s-41.667 -59.167 -57 -91.5s-23 -64.833 -23 -97.5c0 -19.333 4.33301 -33.333 13 -42s22 -14.667 40 -18c26 0 50.167 5.5 72.5 16.5
s41.833 23.167 58.5 36.5s30.167 26.166 40.5 38.499s16.833 19.833 19.5 22.5c4.66699 5.33301 10.334 12.5 17.001 21.5s13 18 19 27l16 23.5l7 10c3.33301 0 6.33301 -4 9 -12s4 -15.333 4 -22c0 -4.66699 -2.83301 -11.5 -8.5 -20.5s-16.167 -24.5 -31.5 -46.5
c-2 -3.33301 -6.5 -9.83301 -13.5 -19.5l-27.5 -36.5l-39 -49c-14.667 -18 -31 -37 -49 -57c12.667 -4 27.667 -7.5 45 -10.5s35 -5.66699 53 -8s35.333 -4.16602 52 -5.49902s30.334 -2 41.001 -2c20.667 0 37.667 0.333008 51 1s24 1.5 32 2.5s14.333 2 19 3
s8.66699 1.5 12 1.5c1.33301 0 2 -1 2 -3s-0.333008 -4.16699 -1 -6.5s-1.33398 -4.5 -2.00098 -6.5s-1 -3.33301 -1 -4c0 -12.667 -8.16699 -20 -24.5 -22s-45.5 -3 -87.5 -3c-30 0 -63.833 2.5 -101.5 7.5s-77.167 13.5 -118.5 25.5l-49 -43
c-18.667 -16 -39.167 -31 -61.5 -45s-46.5 -25.667 -72.5 -35s-53 -14 -81 -14c-14 0 -28 1.66699 -42 5s-26.333 8 -37 14s-19.334 13.167 -26.001 21.5s-10 17.166 -10 26.499zM-20 -40.998c-16.667 0 -36.3311 -1.83301 -58.998 -5.5s-44.334 -9.5 -65.001 -17.5
s-38.167 -18.167 -52.5 -30.5s-21.5 -26.833 -21.5 -43.5c0 -8 2.66699 -15.5 8 -22.5s12.5 -12.833 21.5 -17.5s19.167 -8.33398 30.5 -11.001s22.666 -4 33.999 -4c22 0 43.833 3.66699 65.5 11s43 17.166 64 29.499s41.167 26.333 60.5 42s37.333 31.834 54 48.501
c-18.667 4.66699 -40.167 9.33398 -64.5 14.001s-49.5 7 -75.5 7z" />
    <glyph glyph-name="H" unicode="H" horiz-adv-x="556" 
d="M21 74c-4 16 -5.49805 32.9922 -4.49805 50.9922s4.33301 35.5 10 52.5s13.167 33.167 22.5 48.5s20.666 29 33.999 41h1c2.66699 2.66699 6.66699 5.83398 12 9.50098s11.166 7 17.499 10s12.833 5.5 19.5 7.5s12.667 3 18 3
c1.33301 0.666992 4.33301 0.833984 9 0.500977s7 -1.5 7 -3.5c0 -7.33301 -1.5 -14.166 -4.5 -20.499s-6.5 -10.5 -10.5 -12.5l-17 -6.5c-6 -2.33301 -12.667 -6.16602 -20 -11.499c-2.66699 -2 -7.83398 -6.5 -15.501 -13.5s-15.667 -16.5 -24 -28.5
s-15.666 -27 -21.999 -45s-9.5 -39 -9.5 -63c0 -10.667 1.66699 -22.667 5 -36s8.33301 -25.666 15 -36.999s15 -21 25 -29s21.667 -12 35 -12c10.667 0 21.334 2.5 32.001 7.5s19.667 11.833 27 20.5c43.333 50 85.666 103.667 126.999 161
c-4.66699 -0.666992 -9.16699 -1.16699 -13.5 -1.5s-8.5 -0.5 -12.5 -0.5c-18.667 0 -39.167 2.66699 -61.5 8s-40.833 15.666 -55.5 30.999c-2 2 -4.16699 4.33301 -6.5 7s-3.83301 6 -4.5 10l-1 -1c0.666992 0 3.66699 1.83301 9 5.5s12.666 5.5 21.999 5.5
c2 0 4.16699 -0.833008 6.5 -2.5l6.5 -4.5c10.667 -7.33301 21.334 -12.5 32.001 -15.5s21.5 -5 32.5 -6s22.667 -1 35 0s25.833 2.5 40.5 4.5l64 93l53.5 76.5c15.667 21.667 28.834 38.834 39.501 51.501s18 19 22 19c0 -0.666992 1.5 -2.66699 4.5 -6
s4.16699 -12.333 3.5 -27c0 -4 -0.333008 -6.66699 -1 -8l-74 -103.5l-36.5 -51l-15.5 -22l-11 -15.5c6 1.33301 12 2.5 18 3.5s12 2.16699 18 3.5c30 6 53.667 10.5 71 13.5s31 5 41 6s17.667 1.5 23 1.5s11.333 0.333008 18 1c20 26 39.5 49.833 58.5 71.5
s36.333 40.167 52 55.5s29.167 27.333 40.5 36s19.666 13 24.999 13c1.33301 0 2 -2.66699 2 -8s0.166992 -10.5 0.5 -15.5s-1.16699 -10.167 -4.5 -15.5c-4 -2.66699 -8.16699 -6 -12.5 -10l-17 -16.5c-7 -7 -15.333 -15.833 -25 -26.5l-35.5 -39l-14 -15l-16 -18l-18 -20
c2.66699 -1.33301 7.16699 -3 13.5 -5s9.16602 -4.66699 8.49902 -8c0 -3.33301 -1.5 -5.66602 -4.5 -6.99902s-5.16699 -2 -6.5 -2c-3.33301 0 -6.83301 1.16699 -10.5 3.5l-10.5 6.5l-56 -66.5l-50.5 -64.5c-15 -20 -27.333 -37.667 -37 -53s-14.834 -26 -15.501 -32
c-0.666992 -4.66699 0.166016 -7.33398 2.49902 -8.00098s5.16602 -1 8.49902 -1h2c4 0 5.33301 -1.66699 4 -5c0 -2.66699 -1.66699 -4 -5 -4h-1c-0.666992 -0.666992 -2 -1 -4 -1h-3c-6 0 -10.167 2.33301 -12.5 7s-3.16602 9.66699 -2.49902 15
c0.666992 6.66699 4.33398 17 11.001 31s15.5 30.333 26.5 49s24.167 39.334 39.5 62.001s32 46 50 70c-24.667 -4 -53.834 -10.667 -87.501 -20s-69.5 -18 -107.5 -26c-1.33301 -0.666992 -2.66602 -1 -3.99902 -1s-2.66602 -0.333008 -3.99902 -1
c-22 -29.333 -46.167 -59.333 -72.5 -90s-53.5 -59.667 -81.5 -87c-15.333 -13.333 -29 -23.166 -41 -29.499s-26.333 -8.16602 -43 -5.49902c-14 0.666992 -26.5 4.5 -37.5 11.5s-20.333 15.667 -28 26s-14.167 21.833 -19.5 34.5s-9.66602 25.667 -12.999 39z" />
    <glyph glyph-name="I" unicode="I" horiz-adv-x="117" 
d="M18 32c4.66699 13.333 12.833 31.334 24.5 54.001s25.5 47.5 41.5 74.5s33.167 54.333 51.5 82s35.833 52.667 52.5 75s31.667 40.666 45 54.999s23.333 21.5 30 21.5c3.33301 0 6.33301 -3.83301 9 -11.5s4 -13.834 4 -18.501c0 -2.66699 -2.16699 -6.16699 -6.5 -10.5
s-8.5 -9.16602 -12.5 -14.499l-22.5 -27.5l-44.5 -55l-54.5 -71l-53 -74c-16.333 -23.667 -29.833 -45 -40.5 -64s-16 -32.833 -16 -41.5c0 -3.33301 1 -5.5 3 -6.5s4.16699 -1.5 6.5 -1.5s4.5 -0.166992 6.5 -0.5s3 -1.5 3 -3.5c0 -1.33301 -1 -2.5 -3 -3.5
s-4 -1.5 -6 -1.5h-3.5c-2.33301 0 -4.83301 0.5 -7.5 1.5s-5 2.83301 -7 5.5s-3 7 -3 13c0 8 1 15.667 3 23zM290.999 396.001c-0.666992 0 -1.16797 -0.165039 -1.50098 -0.498047s-0.833008 -0.5 -1.5 -0.5c-3.33301 0 -5 1 -5 3c4.66699 5.33301 8.83398 11 12.501 17
s6.83398 11.667 9.50098 17s5.16699 9.66602 7.5 12.999s5.16602 5 8.49902 5c6.66699 0 10 -4.33301 10 -13c0 -7.33301 -4.16699 -14.333 -12.5 -21s-17.5 -13.334 -27.5 -20.001z" />
    <glyph glyph-name="J" unicode="J" horiz-adv-x="458" 
d="M15 6c0 16 3.33496 31.502 10.002 46.502s15.667 28.833 27 41.5s24.5 23.667 39.5 33s30.5 16.333 46.5 21c1.33301 0 3.66602 0.5 6.99902 1.5s6.66602 1.66699 9.99902 2s6.33301 0.166016 9 -0.500977s4 -2.66699 4 -6c0 -8.66699 -0.333008 -14.834 -1 -18.501
s-2 -6.5 -4 -8.5s-5 -3.5 -9 -4.5s-9.33301 -2.83301 -16 -5.5c-14 -6 -26.833 -13.5 -38.5 -22.5s-21.834 -18.5 -30.501 -28.5s-15.334 -20.333 -20.001 -31s-7 -21 -7 -31c0 -13.333 3 -25.166 9 -35.499s13.667 -19.166 23 -26.499s20.166 -13 32.499 -17
s24.833 -6 37.5 -6c67.333 0 129 35 185 105l65.5 89.5l68.5 92l66.5 88.5l60.5 80c0 0.666992 0.166992 1 0.5 1s0.5 0.333008 0.5 1l-97.5 -40.5c-35.667 -15 -70 -32.833 -103 -53.5s-62.667 -44.334 -89 -71.001s-44.833 -57.334 -55.5 -92.001
c-4 -10 -8.33301 -19.833 -13 -29.5s-13.667 -14.5 -27 -14.5c-3.33301 0 -5.16602 1.83301 -5.49902 5.5s-0.5 7.16699 -0.5 10.5c0 25.333 7.16699 48.5 21.5 69.5s31.166 41.5 50.499 61.5c6 6.66699 19.833 17.667 41.5 33s48.334 32.333 80.001 51
s67.334 38 107.001 58s81.167 38.667 124.5 56c4 7.33301 9.33301 15.666 16 24.999s14.5 18 23.5 26s18.833 14.667 29.5 20s22 8 34 8c10.667 0 18.167 -2.83301 22.5 -8.5s7.16602 -11.167 8.49902 -16.5c0 -7.33301 -1.83301 -13.833 -5.5 -19.5
s-6.5 -9.16699 -8.5 -10.5c-15.333 -13.333 -31.666 -22.833 -48.999 -28.5s-34.666 -12.167 -51.999 -19.5l-49 -59.5l-54.5 -69.5l-58.5 -76l-61 -78l-77.5 -93c-22.333 -26 -43.666 -47.333 -63.999 -64s-40.833 -28.834 -61.5 -36.501s-44 -11.5 -70 -11.5
c-14.667 0 -29.834 2 -45.501 6s-30 10.333 -43 19s-23.667 19.834 -32 33.501s-12.5 29.834 -12.5 48.501zM710.002 452.002l-8.00098 -3.99902c-4 -2 -8.33301 -4.33301 -13 -7s-9 -5.33398 -13 -8.00098l-9 -6c4 2 9.16699 4.33301 15.5 7s12.5 5.5 18.5 8.5
s11.333 5.83301 16 8.5s7.33398 4.66699 8.00098 6c0 -0.666992 -0.333008 -1 -1 -1l-1 1c-2 0 -6.33301 -1.66699 -13 -5z" />
    <glyph glyph-name="K" unicode="K" horiz-adv-x="488" 
d="M17 48c0 18 2.82812 36.8213 8.49512 56.4883s14 37.834 25 54.501s25 30.334 42 41.001s36.5 16 58.5 16c16 0 30.333 -4.66699 43 -14s22.334 -23 29.001 -41c1.33301 -6 0.5 -9.83301 -2.5 -11.5s-10.5 -2.5 -22.5 -2.5c-5.33301 0 -8.83301 1.66699 -10.5 5
s-3.66699 7 -6 11s-6.33301 7.66699 -12 11s-15.167 5 -28.5 5c-34 -5.33301 -60.833 -19.666 -80.5 -42.999s-29.5 -53 -29.5 -89c0 -10.667 2.33301 -21.334 7 -32.001s10.834 -20.334 18.501 -29.001s16.667 -15.667 27 -21s21.5 -8 33.5 -8c16 0 32.333 5 49 15
s37.667 29.333 63 58s57.166 68.834 95.499 120.501l147.5 202.5c8.66699 11.333 15.667 21.833 21 31.5s6 17.5 2 23.5c-1.33301 1.33301 -6.5 -0.166992 -15.5 -4.5s-17.167 -8.83301 -24.5 -13.5c-29.333 -15.333 -54.5 -30.666 -75.5 -45.999l-54.5 -40
c-12 -8.66699 -20.667 -14.667 -26 -18s-8.66602 -5 -9.99902 -5s-2 0.666992 -2 2c0 13.333 2 24.166 6 32.499s10 16.166 18 23.499c21.333 20 46 38.833 74 56.5s56.333 32.834 85 45.501c6.66699 2.66699 13.834 4.16699 21.501 4.5s14.5 -1 20.5 -4s11 -7.66699 15 -14
s6 -14.5 6 -24.5c0 -5.33301 -1.16699 -11.666 -3.5 -18.999s-8.16602 -18.666 -17.499 -33.999s-23.5 -35.833 -42.5 -61.5l-78.5 -101.5h5.5c2.33301 0 4.83301 -0.333008 7.5 -1c25.333 5.33301 48.666 14.5 69.999 27.5s40.5 28.333 57.5 46s31.833 37.334 44.5 59.001
s23.334 43.834 32.001 66.501c4.66699 12.667 7.5 20.667 8.5 24s2.5 5 4.5 5h2l15 -9c6.66699 -4 10 -7.66699 10 -11c0 -6 -2.33301 -15.667 -7 -29v-1c-5.33301 -15.333 -13 -31.833 -23 -49.5s-22.167 -34.667 -36.5 -51s-30.833 -31.5 -49.5 -45.5s-39 -25 -61 -33
c-7.33301 -3.33301 -15.666 -5.66602 -24.999 -6.99902s-16.666 -3.33301 -21.999 -6c5.33301 -11.333 8.83301 -20.666 10.5 -27.999s2.5 -16.666 2.5 -27.999c0 -24 -2.66699 -49.333 -8 -76s-8.66602 -52 -9.99902 -76c0 -7.33301 1 -13.166 3 -17.499
s6.33301 -6.5 13 -6.5c3.33301 0 7.5 0.666992 12.5 2s10 3.16602 15 5.49902s9.16699 5.16602 12.5 8.49902s5 7 5 11c0 2.66699 1.66699 4 5 4s4.33301 -1.66699 3 -5c0 -0.666992 -1 -3 -3 -7s-5.33301 -8.33301 -10 -13s-10.334 -9 -17.001 -13s-15 -6 -25 -6
c-12 0 -19.833 4 -23.5 12s-5.83398 16 -6.50098 24c0 20 1.33301 42 4 66s4 46.667 4 68c0 24.667 -2 40.334 -6 47.001s-7.66699 10.334 -11 11.001c-4 1.33301 -8.5 2 -13.5 2s-11.167 -2.33301 -18.5 -7c-32.667 -45.333 -61.5 -82.166 -86.5 -110.499
s-47 -50.333 -66 -66s-35.667 -26.167 -50 -31.5s-27.5 -7.66602 -39.5 -6.99902c-37.333 2 -63.833 14 -79.5 36s-23.5 47.667 -23.5 77z" />
    <glyph glyph-name="L" unicode="L" horiz-adv-x="466" 
d="M125 -101c-13.333 0 -26.9951 2.16504 -40.9951 6.49805s-27 10.5 -39 18.5s-21.833 18 -29.5 30s-11.5 25.667 -11.5 41c0 18 5.16699 34.667 15.5 50s23.333 28.5 39 39.5s32.5 19.667 50.5 26s34.667 9.5 50 9.5c16.667 0 32.834 -2.16699 48.501 -6.5
s30.834 -9.66602 45.501 -15.999s29 -13.5 43 -21.5l41 -23l81.5 103l79.5 99l-56 -12c-21.333 -4.66699 -42.5 -10.834 -63.5 -18.501s-40.833 -17 -59.5 -28s-33 -24.167 -43 -39.5c-5.33301 -8 -9.33301 -14.333 -12 -19s-4.83398 -8 -6.50098 -10
s-2.83398 -3.33301 -3.50098 -4s-2 -1 -4 -1c-0.666992 0 -2.16699 1 -4.5 3s-5 4 -8 6s-5.5 4.16699 -7.5 6.5s-3 4.16602 -3 5.49902c4 17.333 12.5 32.5 25.5 45.5s28.5 24 46.5 33s37.667 16.5 59 22.5s42.166 11.5 62.499 16.5s39.5 9.33301 57.5 13
s33 7.83398 45 12.501l45 53.5l39 47.5l11.5 14c5 6 10.833 12 17.5 18s14.167 11.167 22.5 15.5s17.166 6.5 26.499 6.5c10 -0.666992 17.167 -3.5 21.5 -8.5s6.66602 -11.167 6.99902 -18.5s-0.666992 -15.333 -3 -24s-5.16602 -16.667 -8.49902 -24
c0.666992 0.666992 -1.5 -2.66602 -6.5 -9.99902s-13.833 -16.333 -26.5 -27s-29.334 -22 -50.001 -34s-46.667 -22 -78 -30l-92.5 -109.5l-96.5 -113.5c52.667 -32 100.167 -57.5 142.5 -76.5s81.5 -28.5 117.5 -28.5c15.333 0 28.666 1 39.999 3l23 4
c4 0.666992 10.167 2.83398 18.5 6.50098l25.5 11c8.66699 3.66699 17 7 25 10s14 4.5 18 4.5c1.33301 0 2 -1.33301 2 -4c0 -7.33301 -0.5 -13.5 -1.5 -18.5s-4.16699 -9.66699 -9.5 -14s-13.5 -8.5 -24.5 -12.5s-26.5 -8.66699 -46.5 -14l-22 -3.5
c-10.667 -1.66699 -24.667 -2.5 -42 -2.5c-22.667 0 -45.334 3.16699 -68.001 9.5s-45.5 14.833 -68.5 25.5s-46.5 23.167 -70.5 37.5l-74 45.5c-38.667 -46 -74.5 -78.667 -107.5 -98s-67.833 -29 -104.5 -29zM590.005 323.998l-7.50195 -9.49805
c-2.33301 -3 -5.16602 -6.16699 -8.49902 -9.5c8 3.33301 18.167 8.5 30.5 15.5s24.333 15 36 24s21.667 19 30 30s12.5 22.5 12.5 34.5c0 0.666992 -0.333008 1 -1 1c2.66699 0 0.833984 -0.333008 -5.49902 -1s-15.833 -7.33398 -28.5 -20.001
c0 -0.666992 -5.83301 -7.33398 -17.5 -20.001zM154.003 103c-14 0 -29.168 -2.49805 -45.501 -7.49805s-31.5 -12.333 -45.5 -22s-25.667 -21.334 -35 -35.001s-14 -28.834 -14 -45.501c0 -13.333 3.16699 -25 9.5 -35s14.5 -18.667 24.5 -26s21.333 -12.833 34 -16.5
s25.667 -5.5 39 -5.5c21.333 0 40.5 2.66699 57.5 8s33.333 13.166 49 23.499s31 23.333 46 39s31.5 33.834 49.5 54.501c-25.333 16 -52.166 31.333 -80.499 46s-57.833 22 -88.5 22z" />
    <glyph glyph-name="M" unicode="M" horiz-adv-x="640" 
d="M845 422c0 -8 -0.999023 -14.6699 -2.99902 -20.0029s-6.66699 -12.5 -14 -21.5s-18.5 -21.667 -33.5 -38l-62.5 -68.5l-53 -55l-22 -27l-39 -47.5c-12.667 -15 -23 -28.5 -31 -40.5l-11 -15l-24 -39.5c-6.66699 -11 -10 -20.167 -10 -27.5c0 -4 3 -6 9 -6
c4.66699 0 8.83398 0.833008 12.501 2.5s7.16699 3.5 10.5 5.5c9.33301 6 16.833 12 22.5 18s10.167 11.333 13.5 16l8 11.5c2 3 4 4.5 6 4.5s3 -1.33301 3 -4c0 -8.66699 -2.66699 -17.167 -8 -25.5s-12 -15.833 -20 -22.5s-16.5 -12 -25.5 -16s-16.833 -6 -23.5 -6v1v-1
c-4 0 -9.33301 1.16699 -16 3.5s-10 9.83301 -10 22.5c0 6.66699 1.33301 13.834 4 21.501s6 15.5 10 23.5s8.16699 15.5 12.5 22.5l12.5 19.5l22 34l29 40c8.66699 14 20.334 30 35.001 48l48.5 57l55.5 60.5l58 59.5l-4 -3c-2.66699 -2 -7.5 -6.16699 -14.5 -12.5
l-28.5 -27c-12 -11.667 -27 -27.167 -45 -46.5l-57.5 -61.5l-62.5 -67.5l-64.5 -70.5l-63.5 -70.5l-17.5 -19.5c-6.33301 -7 -13.5 -13.667 -21.5 -20s-16.333 -11.666 -25 -15.999s-17.334 -6.5 -26.001 -6.5c-2.66699 0 -7.83398 1.5 -15.501 4.5s-11.5 10.5 -11.5 22.5
c0 13.333 3 27.5 9 42.5s13.5 30 22.5 45s18.667 29.333 29 43l27.5 37.5c-8.66699 4 -16.834 8.33301 -24.501 13s-16.167 8.66699 -25.5 12l-65.5 -60l-67.5 -63l-15 -14c-10.667 -10 -22.5 -20.333 -35.5 -31s-26.5 -20.334 -40.5 -29.001s-28.5 -15.834 -43.5 -21.501
s-29.833 -8.5 -44.5 -8.5c-22.667 0 -41.334 8 -56.001 24s-22 34.667 -22 56c0 32 8.83301 60.667 26.5 86s40 46.833 67 64.5s56.833 31.334 89.5 41.001s64 14.5 94 14.5c21.333 0 42.333 -2 63 -6s40 -9 58 -15l103.5 94l62 54.5c15 13 25.667 21.833 32 26.5l13.5 10
c1.33301 0.666992 4.66602 2.16699 9.99902 4.5s13.666 3.5 24.999 3.5s18.5 -2.83301 21.5 -8.5s4.5 -12.167 4.5 -19.5c0 -5.33301 -2.83301 -12.166 -8.5 -20.499s-15.167 -19.833 -28.5 -34.5l-37 -41l-45.5 -51.5l-63.5 -70.5l15 -23.5c4.66699 -7 7 -13.5 7 -19.5
c0 -4.66699 -3.5 -9.33398 -10.5 -14.001s-14.167 -5.33398 -21.5 -2.00098c-2.66699 1.33301 -4.16699 2.83301 -4.5 4.5s-0.666016 3.66699 -0.999023 6s-0.833008 5 -1.5 8s-3 6.5 -7 10.5c-1.33301 -1.33301 -2.83301 -3.16602 -4.5 -5.49902l-9 -12l-18.5 -24.5
l-31 -43c-8 -11.333 -14.667 -22.666 -20 -33.999s-8.33301 -20.333 -9 -27c0 -7.33301 3.66699 -11 11 -11c6 0 13.333 2.83301 22 8.5s17.5 12.667 26.5 21s17.667 17.333 26 27l22.5 26.5l109.5 128l106.5 121l42 46.5c11.333 12.333 20.833 22.333 28.5 30
s13.834 13.334 18.501 17.001s8.66699 6.16699 12 7.5h2c2 0 4.33301 0.333008 7 1s5.33398 1 8.00098 1c10.667 0 18 -2.66699 22 -8s6.66699 -10 8 -14zM244.001 97.9971l63.5 61.5l61.5 59.5c-14 4.66699 -31.833 9 -53.5 13s-43.834 6 -66.501 6
c-22 0 -46.833 -3.33301 -74.5 -10s-53.5 -17 -77.5 -31s-44.167 -31.5 -60.5 -52.5s-24.5 -45.833 -24.5 -74.5c0 -24 7 -42.333 21 -55s29 -19 45 -19c14.667 0 29.334 3.16699 44.001 9.5s29.167 14.333 43.5 24s28 20.5 41 32.5zM423.001 239.997
c14.667 -6.66699 28.667 -14.332 42 -22.999l1 1c12 16 25.333 32.667 40 50l45 52l46 50.5l44 45.5c-4 0 -6.83301 -0.333008 -8.5 -1s-5.16699 -3 -10.5 -7c-0.666992 -0.666992 -4.5 -3.33398 -11.5 -8.00098s-18.167 -13.167 -33.5 -25.5l-61 -51z" />
    <glyph glyph-name="N" unicode="N" horiz-adv-x="505" 
d="M17 67c0.666992 33.333 10.9951 63.502 30.9951 90.502s44.333 47.167 73 60.5s59.334 18.166 92.001 14.499s62 -19.167 88 -46.5l109 141.5c26.667 35 48.5 61.833 65.5 80.5s31.167 30.667 42.5 36s24 8 38 8c15.333 0 26.833 -4.16699 34.5 -12.5
s8.83398 -16.5 3.50098 -24.5c-2.66699 -6.66699 -8.33398 -18.167 -17.001 -34.5l-32 -58.5l-42.5 -74l-48 -81.5l-47.5 -81.5l-42 -73c16.667 16.667 32.5 34.167 47.5 52.5l45.5 58l47 64.5l51 72l87 120l5.5 7.5c1.66699 2.33301 3.5 4.5 5.5 6.5s5 5.66699 9 11
s9 10.5 15 15.5s12.833 9.5 20.5 13.5s15.834 6 24.501 6c12 0 20.833 -3.5 26.5 -10.5s8.5 -12.167 8.5 -15.5s-0.333008 -6.83301 -1 -10.5s-4.33398 -4.83398 -11.001 -3.50098c-6 0 -10 0.833008 -12 2.5s-3.66699 2.5 -5 2.5h-4c-1.33301 0 -3.33301 -0.5 -6 -1.5
s-6.33398 -3.5 -11.001 -7.5s-10.167 -9.66699 -16.5 -17s-14.166 -17.333 -23.499 -30l-26 -35c-14.667 -20 -31.5 -41.5 -50.5 -64.5l-58.5 -69l-58.5 -66l-51 -56l-36 -39.5l-13.5 -15c-2 -1.33301 -3.83301 -2.16602 -5.5 -2.49902s-3.16699 -0.5 -4.5 -0.5
c-6.66699 0 -10.667 2 -12 6c-0.666992 2 -0.333984 4.33301 0.999023 7c4.66699 13.333 12.167 30.833 22.5 52.5l35 71.5l42 81l44 80.5l40 70c12.333 21 22.833 37.833 31.5 50.5c-1.33301 0.666992 -2.66602 1.16699 -3.99902 1.5s-5 0.5 -11 0.5
c-4 0 -9.16699 -1.33301 -15.5 -4s-14.166 -8.66699 -23.499 -18c-8.66699 -11.333 -20.167 -25 -34.5 -41l-47.5 -53.5l-56 -64.5l-61 -74c2.66699 -9.33301 5.33398 -17.666 8.00098 -24.999s4.33398 -15.333 5.00098 -24c0 -9.33301 -1.66699 -14 -5 -14
c-10 2 -17 3.5 -21 4.5s-6.83301 2.33301 -8.5 4s-2.66699 4.16699 -3 7.5s-1.5 8 -3.5 14l-19.5 -22.5c-6.33301 -7.66699 -13.166 -15.167 -20.499 -22.5c-2.66699 -3.33301 -9 -10.5 -19 -21.5s-22.333 -22.833 -37 -35.5s-30.667 -23.834 -48 -33.501
s-35 -14.5 -53 -14.5c-20 0 -37.167 7.16699 -51.5 21.5s-21.5 35.166 -21.5 62.499zM275.995 155.002c-11.333 17.333 -25.333 30.1689 -42 38.502s-34.167 12.666 -52.5 12.999s-36.5 -2.83398 -54.5 -9.50098s-34.333 -16.167 -49 -28.5s-26.5 -27.166 -35.5 -44.499
s-13.5 -36.333 -13.5 -57c0 -6.66699 1 -14 3 -22s5 -15.5 9 -22.5s9.33301 -13 16 -18s15 -7.5 25 -7.5c12.667 0 25 2.66699 37 8s24 12.666 36 21.999s24.167 20 36.5 32l38.5 39c8 9.33301 15.667 18.833 23 28.5s15 19.167 23 28.5z" />
    <glyph glyph-name="O" unicode="O" horiz-adv-x="390" 
d="M380 325c-0.666992 -5.33301 -2.33008 -12.167 -4.99707 -20.5s-6.33398 -14.833 -11.001 -19.5c8.66699 -6 17.5 -11.667 26.5 -17s18.167 -9.33301 27.5 -12v2c3.33301 6.66699 5.16602 15 5.49902 25s0.5 19.667 0.5 29c0 14.667 -1.83301 27.834 -5.5 39.501
s-8.5 21.5 -14.5 29.5c-18 21.333 -41.667 32 -71 32c-11.333 0 -23.5 -1.66699 -36.5 -5s-25.667 -7.33301 -38 -12s-23.666 -9.66699 -33.999 -15l-25.5 -13h-5c-3.33301 0 -6.33301 0.833008 -9 2.5s-4.33398 4.5 -5.00098 8.5s1.66602 9.66699 6.99902 17
c0 0.666992 3.33301 3.66699 10 9s15.834 11.166 27.501 17.499s25.834 12.333 42.501 18s35.334 8.83398 56.001 9.50098h1c16 0 31.333 -3 46 -9s27.334 -14.167 38.001 -24.5s19.167 -22.833 25.5 -37.5s9.5 -30.667 9.5 -48c0 -19.333 -0.833008 -34 -2.5 -44
s-3.83398 -21.667 -6.50098 -35c12.667 -3.33301 23.667 -2.5 33 2.5s17.166 11.167 23.499 18.5s11.666 14.5 15.999 21.5s8.16602 10.5 11.499 10.5c2 0 4 -0.5 6 -1.5s3 -2.5 3 -4.5c0 -2.66699 -0.833008 -5.33398 -2.5 -8.00098s-3.16699 -5.33398 -4.5 -8.00098
c-9.33301 -16 -21.833 -28.167 -37.5 -36.5s-33.167 -10.833 -52.5 -7.5c-6.66699 -20.667 -15.334 -41.667 -26.001 -63s-23.334 -41.666 -38.001 -60.999c-11.333 -15.333 -25.5 -32.333 -42.5 -51s-36.167 -36.167 -57.5 -52.5s-44.333 -30.166 -69 -41.499
s-50 -17 -76 -17c-22 0 -39.167 4.83301 -51.5 14.5s-21.666 21.167 -27.999 34.5s-10.166 27.333 -11.499 42s-2 27 -2 37c0 30.667 6.5 62.167 19.5 94.5s30.5 62.666 52.5 90.999s47.167 53.333 75.5 75s57.5 37.834 87.5 48.501c16 6 31.667 9.66699 47 11
s28.5 -0.333984 39.5 -5.00098s19.5 -12.667 25.5 -24s7.66699 -27 5 -47zM417.004 240.999c-10.667 2 -21.6719 5.67188 -33.0049 11.0049s-21.666 11.666 -30.999 18.999c-3.33301 -2 -6.33301 -4 -9 -6s-5.5 -3.83301 -8.5 -5.5s-6.66699 -3.33398 -11 -5.00098
s-10.5 -2.83398 -18.5 -3.50098c-5.33301 -1.33301 -11.166 -1.5 -17.499 -0.5s-12.166 3.16699 -17.499 6.5s-9.66602 7.83301 -12.999 13.5s-5 12.5 -5 20.5c0 12 3.83301 21 11.5 27s15.5 9 23.5 9c11.333 0 21.333 -2.83301 30 -8.5s16 -11.167 22 -16.5
c4 4 6.5 9.16699 7.5 15.5s1.5 11.5 1.5 15.5c0 10.667 -2.5 18.5 -7.5 23.5s-11.167 8.16699 -18.5 9.5s-15.5 1.16602 -24.5 -0.500977s-17.5 -3.83398 -25.5 -6.50098c0.666992 0 -3.83301 -1.83301 -13.5 -5.5s-21.834 -10 -36.501 -19s-31 -20.5 -49 -34.5
s-35.167 -31.167 -51.5 -51.5s-31 -44 -44 -71s-21.5 -57.833 -25.5 -92.5c0 -14 0.833008 -27.667 2.5 -41s5 -25.166 10 -35.499s12.167 -18.5 21.5 -24.5s21.333 -9 36 -9c30 0 60.333 8.66699 91 26s59.334 39.166 86.001 65.499s50.334 55 71.001 86s36 60.5 46 88.5z
M327.999 288.004c-6 3.33301 -12.167 7.00098 -18.5 11.001s-13.166 6 -20.499 6c-3.33301 0 -6.16602 -1 -8.49902 -3s-3.5 -5 -3.5 -9c0 -6 2.33301 -10 7 -12s10.667 -3 18 -3c5.33301 0.666992 10.166 1.66699 14.499 3s8.16602 3.66602 11.499 6.99902z" />
    <glyph glyph-name="P" unicode="P" horiz-adv-x="447" 
d="M451 185c-9.33301 -16.667 -22.3281 -37 -38.9951 -61c8.66699 -2 16.667 -5 24 -9c14.667 -7.33301 23.167 -13.666 25.5 -18.999s3.5 -7.66602 3.5 -6.99902c0 -1.33301 -1 -2 -3 -2h-3c-0.666992 0 -5.66699 3.5 -15 10.5s-23.333 11.5 -42 13.5
c-6.66699 -8.66699 -15.667 -19.5 -27 -32.5s-24 -25.5 -38 -37.5s-28.667 -22.333 -44 -31s-30.666 -13 -45.999 -13c-11.333 0 -21 3.33301 -29 10s-12 15.667 -12 27c0 16 6 30 18 42s26.5 21.833 43.5 29.5s34.667 13.5 53 17.5s34.166 6 47.499 6
c4.66699 0 9.16699 -0.166992 13.5 -0.5s8.83301 -0.833008 13.5 -1.5l17 21.5l15 20.5c0.666992 0.666992 4.5 7 11.5 19s15 27 24 45s17.5 37.833 25.5 59.5s13 42.167 15 61.5c0 6.66699 -0.333008 12.667 -1 18s-4.33398 8.66602 -11.001 9.99902
c-20 -2 -39 -7.83301 -57 -17.5s-34.667 -20.667 -50 -33s-29.5 -24.833 -42.5 -37.5s-24.5 -23.334 -34.5 -32.001c-14.667 -13.333 -32.334 -32.666 -53.001 -57.999l-71.5 -91l-90.5 -118.5l-111 -139.5c-12 -13.333 -22.5 -24.166 -31.5 -32.499
s-17.333 -14.833 -25 -19.5s-14.5 -7.83398 -20.5 -9.50098s-12 -2.5 -18 -2.5c-10 4 -11.833 13.833 -5.5 29.5s17.666 35.167 33.999 58.5s36.666 49.166 60.999 77.499l76.5 86l79.5 85l71.5 73.5l117.5 165.5c25.667 35 40.167 52.5 43.5 52.5
c0 -0.666992 2 -3.33398 6 -8.00098s6 -12.667 6 -24c0 -6 -3.66699 -14 -11 -24l-25 -35l31 27c10.667 9.33301 22 18 34 26s24.667 14.5 38 19.5s27 7.5 41 7.5c15.333 0 26.166 -4.66699 32.499 -14s9.5 -19.666 9.5 -30.999c0 -8 -1 -15.833 -3 -23.5
s-4.33301 -15.167 -7 -22.5c-4 -12 -8.16699 -22.667 -12.5 -32s-9 -18.833 -14 -28.5s-10.667 -20 -17 -31s-13.5 -24.5 -21.5 -40.5zM-38.9951 -141c29.333 35.333 56.166 71.499 80.499 108.499l81.5 118.5c-16 -10.667 -33.5 -25.167 -52.5 -43.5s-37.833 -38 -56.5 -59
s-36.334 -42.167 -53.001 -63.5s-31 -40.833 -43 -58.5s-20.667 -32 -26 -43s-5.66602 -16.5 -0.999023 -16.5s10.334 2 17.001 6s13.167 8.83301 19.5 14.5s12.5 11.834 18.5 18.501s11 12.667 15 18zM342.005 73.999c7.33301 6 14.166 11.999 20.499 17.999
s12.166 12.333 17.499 19c-15.333 0 -29.833 -2.33301 -43.5 -7s-26 -10 -37 -16s-20 -11.667 -27 -17s-11.167 -8.66602 -12.5 -9.99902s-4.16602 -3.83301 -8.49902 -7.5s-8 -7.5 -11 -11.5s-4.5 -7.66699 -4.5 -11s3 -5.33301 9 -6l2 -1c13.333 0 28.833 5.33301 46.5 16
s33.834 22 48.501 34z" />
    <glyph glyph-name="Q" unicode="Q" horiz-adv-x="379" 
d="M43 187c9.33301 28.667 23.666 58.1621 42.999 88.4951s42.166 58 68.499 83s55.333 45.5 87 61.5s64.5 24 98.5 24c14.667 0 29 -2.66699 43 -8s26.167 -12.833 36.5 -22.5s18.666 -21.167 24.999 -34.5s9.5 -28.333 9.5 -45c0 -38 -9.33301 -75.833 -28 -113.5
s-42.5 -72.167 -71.5 -103.5s-61.167 -58 -96.5 -80s-69.333 -36.333 -102 -43c20.667 -10.667 40.5 -19.5 59.5 -26.5s38.167 -10.5 57.5 -10.5c11.333 0 21.833 1.5 31.5 4.5s20.5 6.83301 32.5 11.5c0.666992 0 2.66699 -1.83301 6 -5.5s5 -11.167 5 -22.5
c0 -3.33301 -1 -5.33301 -3 -6c-9.33301 -7.33301 -20 -12.666 -32 -15.999s-24.667 -5 -38 -5c-25.333 0 -50.666 5.66699 -75.999 17s-54 28.333 -86 51c-6.66699 -0.666992 -16.167 -1.16699 -28.5 -1.5s-24.5 0.333984 -36.5 2.00098s-22.5 5.16699 -31.5 10.5
s-13.5 13.333 -13.5 24c0 12 5.16699 19.833 15.5 23.5s20.166 5.5 29.499 5.5c8 0 15.667 -1.66699 23 -5s14.333 -7.16602 21 -11.499s13.5 -9.16602 20.5 -14.499s14.5 -10 22.5 -14c36 6.66699 71 21.334 105 44.001s64.167 49.834 90.5 81.501
s47.666 65.5 63.999 101.5s25.166 70.333 26.499 103c-1.33301 25.333 -9.66602 43.833 -24.999 55.5s-34.666 17.5 -57.999 17.5c-21.333 -1.33301 -42.666 -6.66602 -63.999 -15.999s-42 -21.5 -62 -36.5s-38.667 -32.167 -56 -51.5s-32.666 -39.666 -45.999 -60.999
s-24.5 -43 -33.5 -65s-14.5 -43.333 -16.5 -64v-2c-1.33301 -1.33301 -1.83301 -3.33301 -1.5 -6s-1.16699 -4.33398 -4.5 -5.00098c-4.66699 3.33301 -8.66699 7.33301 -12 12c-3.33301 3.33301 -6.16602 7.66602 -8.49902 12.999s-3.5 11.333 -3.5 18
c0 7.33301 1.5 14.666 4.5 21.999zM14 16.9951c2.66699 -7.33301 7.33301 -12.333 14 -15s14 -4.33398 22 -5.00098s16.167 -0.666992 24.5 0s15.5 1.33398 21.5 2.00098c-9.33301 6.66699 -18.5 14 -27.5 22s-20.167 12 -33.5 12c-8 0 -13.5 -1.33301 -16.5 -4
s-4.5 -6.66699 -4.5 -12z" />
    <glyph glyph-name="R" unicode="R" horiz-adv-x="563" 
d="M606 437c14.667 -1.33301 25.501 -7.83691 32.501 -19.5039s10.5 -24.167 10.5 -37.5c0 -22.667 -5 -45.667 -15 -69s-23 -45 -39 -65s-34.167 -37.667 -54.5 -53s-40.833 -26.666 -61.5 -33.999c0 -13.333 -0.333008 -27 -1 -41s-1 -29.333 -1 -46
c0 -22 2.66699 -37.833 8 -47.5s14 -14.5 26 -14.5c5.33301 0.666992 10.666 2.66699 15.999 6s10 5 14 5c1.33301 0 3.5 -0.666992 6.5 -2s4.5 -3.66602 4.5 -6.99902c0 -4.66699 -5.66699 -8.33398 -17 -11.001s-21 -4 -29 -4c-10 0 -19 2 -27 6l2 1
c-14 14 -23.5 31.333 -28.5 52s-8.83301 49.667 -11.5 87c0 -1.33301 -2.5 0.333984 -7.5 5.00098s-9.5 10.5 -13.5 17.5s-5.83301 14.167 -5.5 21.5s6.16602 13.666 17.499 18.999c7.33301 3.33301 15.166 4.16602 23.499 2.49902s13.833 -5.16699 16.5 -10.5
c2 -5.33301 3 -8.66602 3 -9.99902c17.333 2 35.166 9.16699 53.499 21.5s34.833 27.5 49.5 45.5s26.667 37.667 36 59s14 42.333 14 63c0 5.33301 -1.5 12.333 -4.5 21s-9.83301 13 -20.5 13c-28 0 -54.833 -9.33301 -80.5 -28s-50.167 -41.5 -73.5 -68.5
s-45.5 -56 -66.5 -87s-40.833 -58.833 -59.5 -83.5c-15.333 -22 -31.166 -43.5 -47.499 -64.5s-33.333 -39.833 -51 -56.5s-35.667 -30.167 -54 -40.5s-36.833 -15.5 -55.5 -15.5c-16.667 0 -31.167 3.33301 -43.5 10s-22.5 15.167 -30.5 25.5s-14.167 21.5 -18.5 33.5
s-6.83301 23 -7.5 33c-1.33301 14.667 -1 31.5 1 50.5s7.66699 36.833 17 53.5s23.5 30.834 42.5 42.501s45.167 17.834 78.5 18.501c12.667 0 23.334 -2 32.001 -6s16 -9.16699 22 -15.5s10.833 -13 14.5 -20l9.5 -17.5c0 -5.33301 -1.16699 -9 -3.5 -11
s-10.166 -3 -23.499 -3c-4.66699 0 -7.16699 0.666992 -7.5 2s-0.833008 2.66602 -1.5 3.99902l-1 1c-5.33301 10.667 -13.333 17.334 -24 20.001s-20.667 4 -30 4c-11.333 0 -23.5 -1.5 -36.5 -4.5s-25 -8.5 -36 -16.5s-20.167 -19 -27.5 -33s-11 -32 -11 -54
c0 -10 2 -20.5 6 -31.5s9.5 -21 16.5 -30s15.333 -16.5 25 -22.5s20.5 -9 32.5 -9c21.333 0 43 9 65 27s42.667 40.333 62 67l67.5 100.5l72 101.5l66 91.5l50.5 71.5l4.5 -1.5c3 -1 6.5 -2.66699 10.5 -5s7.5 -5.5 10.5 -9.5s4.5 -9.33301 4.5 -16
c0 -6 -1.66699 -10.667 -5 -14c1.33301 0.666992 4.5 2.83398 9.5 6.50098s11.167 7.5 18.5 11.5s15.5 7.5 24.5 10.5s18.5 4.5 28.5 4.5h7v0z" />
    <glyph glyph-name="S" unicode="S" horiz-adv-x="288" 
d="M356 432c-17.333 0 -37.0029 -1.32812 -59.0029 -3.99512s-44.667 -6.5 -68 -11.5s-46 -11.167 -68 -18.5s-41.5 -15.5 -58.5 -24.5s-30.333 -18.833 -40 -29.5s-13.5 -22 -11.5 -34c2.66699 -10 9.33398 -19.5 20.001 -28.5s23 -17.167 37 -24.5s28.167 -14 42.5 -20
s26.166 -11.333 35.499 -16c14.667 -6.66699 27.834 -13.667 39.501 -21s20.667 -15.833 27 -25.5s9.66602 -21 9.99902 -34s-3.5 -28.167 -11.5 -45.5c0 0.666992 -2.83301 -4 -8.5 -14s-14.5 -21.333 -26.5 -34s-27.333 -24.334 -46 -35.001s-41 -16 -67 -16
c-22 0 -41.667 6 -59 18s-26.333 27.333 -27 46l0.5 5c0.333008 3.33301 1.83301 7.5 4.5 12.5s7.16699 10.333 13.5 16s15.833 10.5 28.5 14.5l7 2c4.66699 1.33301 10.5 2.5 17.5 3.5s14.333 1.66699 22 2s14.834 -0.833984 21.501 -3.50098
c2 -1.33301 2.33301 -3.83301 1 -7.5s-2.66602 -6.83398 -3.99902 -9.50098c-1.33301 -3.33301 -6.83301 -4.33301 -16.5 -3s-20.334 1.66602 -32.001 0.999023s-22.667 -3.16699 -33 -7.5s-16.833 -13.5 -19.5 -27.5c-1.33301 -7.33301 0.833984 -14.166 6.50098 -20.499
s12.5 -11.666 20.5 -15.999s16.333 -7.66602 25 -9.99902s15.667 -3.16602 21 -2.49902c24 2 44.167 9.16699 60.5 21.5s29.666 25.666 39.999 39.999s17.833 28 22.5 41s7 21.167 7 24.5c0 10.667 -2.5 19 -7.5 25s-13.333 12 -25 18l-46.5 23
c-19.333 9.33301 -43.333 22.666 -72 39.999l-14.5 8.5c-6.33301 3.66699 -12.5 8.33398 -18.5 14.001s-11.167 12.5 -15.5 20.5s-6.5 17.333 -6.5 28c0 17.333 6.33301 32.833 19 46.5s28.834 25.5 48.501 35.5s41.667 18.333 66 25s48.166 12.167 71.499 16.5
s44.833 7.33301 64.5 9s34.834 2.5 45.501 2.5c6 0 15.333 -0.166992 28 -0.5s25.5 -1.83301 38.5 -4.5s24.333 -7 34 -13s14.5 -14.333 14.5 -25s-3.66699 -20.5 -11 -29.5s-16.333 -17.167 -27 -24.5s-22.5 -14 -35.5 -20s-25 -11 -36 -15s-20.5 -7.16699 -28.5 -9.5
s-12.667 -3.5 -14 -3.5c-2 0 -3.16699 1.16699 -3.5 3.5s-0.333008 5.16602 0 8.49902s0.833008 6.5 1.5 9.5s1 5.5 1 7.5c0 5.33301 1.16699 8.66602 3.5 9.99902s6.83301 3.33301 13.5 6l4 1l54 23.5c14 6.33301 25 11.666 33 15.999s13.5 8.16602 16.5 11.499
s4.5 6.33301 4.5 9c0 5.33301 -2.66699 9.5 -8 12.5s-11.666 5.33301 -18.999 7s-15.5 2.66699 -24.5 3s-16.833 0.5 -23.5 0.5z" />
    <glyph glyph-name="T" unicode="T" horiz-adv-x="226" 
d="M662 298l0.501953 4.00488c0.333008 2.66699 -0.166992 5.66699 -1.5 9s-4.16602 6.33301 -8.49902 9s-11.5 4 -21.5 4l-64 -5c-10.667 -0.666992 -22.334 -1.66699 -35.001 -3s-27.5 -3 -44.5 -5s-37.167 -4.16699 -60.5 -6.5s-50.666 -4.83301 -81.999 -7.5
c-18.667 -18.667 -35.834 -37.667 -51.501 -57s-33.5 -37 -53.5 -53c-10 -8 -18.333 -15.5 -25 -22.5s-12.834 -14 -18.501 -21s-11.334 -14.5 -17.001 -22.5s-12.5 -16.667 -20.5 -26c-2.66699 -3.33301 -6 -8.16602 -10 -14.499s-7.66699 -13 -11 -20
s-6.33301 -13.833 -9 -20.5s-4 -12 -4 -16s1.5 -6.66699 4.5 -8s5.16699 -2 6.5 -2c6.66699 0 15.834 3.16699 27.501 9.5s23.167 19.166 34.5 38.499c2.66699 6 5 12.333 7 19s5.66699 10 11 10c6 0 9 -2.33301 9 -7c0 -5.33301 -1.83301 -10.5 -5.5 -15.5l-12.5 -17.5
c-1.33301 -2.66699 -4.66602 -6.83398 -9.99902 -12.501s-11.5 -11.334 -18.5 -17.001s-14.333 -10.667 -22 -15s-14.834 -6.5 -21.501 -6.5c-24.667 0 -37 9.66699 -37 29c0 20.667 8.33301 44.5 25 71.5s37.667 56.5 63 88.5l20.5 26.5l23 28.5l21 26.5
c6.33301 8.33301 11.166 15.166 14.499 20.499c-22.667 -3.33301 -49.167 -5 -79.5 -5s-59.333 3 -87 9s-51 15.5 -70 28.5s-28.5 30.5 -28.5 52.5c-0 16.667 4.83301 32 14.5 46s22 25.667 37 35s31.333 16.666 49 21.999s34.5 8 50.5 8c26.667 0 49.667 -5.33301 69 -16
s35.166 -23.834 47.499 -39.501s21.333 -32.667 27 -51s8.5 -35.5 8.5 -51.5c4 0 7 0.333008 9 1l20.5 20.5l22.5 22c7.33301 7 14.333 12.833 21 17.5s12.334 7 17.001 7c4 0 6.83301 -1.33301 8.5 -4s2.5 -5 2.5 -7c0 -6 -3.33301 -14 -10 -24s-12.667 -18.333 -18 -25h3
c41.333 5.33301 80.833 10 118.5 14s72.167 7.33301 103.5 10c68.667 6 103 -11.333 103 -52v-3c0 -4.66699 -1.66699 -7.66699 -5 -9s-7.5 -2 -12.5 -2s-9.83301 0.5 -14.5 1.5s-8 1.5 -10 1.5zM20.002 377.005c0 -15.333 5.33691 -27.165 16.0039 -35.498
s24.167 -14.666 40.5 -18.999s34.333 -6.66602 54 -6.99902s39 0 58 1s36.167 2.5 51.5 4.5s26.666 3.66699 33.999 5c0 2 0.166992 4.66699 0.5 8s0.5 6.66602 0.5 9.99902c0 15.333 -3.16699 30.666 -9.5 45.999s-14.833 29.166 -25.5 41.499s-23.334 22.5 -38.001 30.5
s-30.334 12.667 -47.001 14c-13.333 1.33301 -27.833 0.166016 -43.5 -3.50098s-30.334 -9.66699 -44.001 -18s-25 -19 -34 -32s-13.5 -28.167 -13.5 -45.5zM259.006 223.006c12.667 10 24.666 21.335 35.999 34.002l34 39c-8.66699 0 -14.334 -0.666992 -17.001 -2
c-1.33301 -0.666992 -4.16602 -3.83398 -8.49902 -9.50098s-9.16602 -12.334 -14.499 -20.001l-16.5 -23.5c-5.66699 -8 -10.167 -14 -13.5 -18zM346.005 334.008h6c2.66699 0 4.66699 0.333008 6 1c2 0.666992 5.66699 5 11 13l15 22
c-6.66699 -5.33301 -13.167 -11 -19.5 -17s-12.5 -12.333 -18.5 -19z" />
    <glyph glyph-name="U" unicode="U" horiz-adv-x="321" 
d="M476 352l-26.5 -29.9932l-37.5 -42l-86 -97l-35.5 -40.5c-10.333 -12.333 -20.166 -25.166 -29.499 -38.499l-11 -15l-24.5 -41c-6.33301 -10.667 -9.5 -19.334 -9.5 -26.001c0 -4 3 -6 9 -6h1c11.333 0 20.833 3.33301 28.5 10s14.167 14 19.5 22
s9.83301 15.5 13.5 22.5s7.16699 10.5 10.5 10.5c5.33301 0 8 -1.66699 8 -5c0 -2.66699 -0.833008 -5.33398 -2.5 -8.00098s-3.16699 -5.33398 -4.5 -8.00098c-7.33301 -15.333 -17.166 -28.833 -29.499 -40.5s-27.5 -18.167 -45.5 -19.5c-4 0 -9.33301 1.33301 -16 4
s-10 10 -10 22c0 14.667 4.5 29.667 13.5 45s17.167 28.666 24.5 39.999c-17.333 -22 -34.833 -40.833 -52.5 -56.5s-34.5 -28.5 -50.5 -38.5s-30.833 -17.167 -44.5 -21.5s-25.5 -6.16602 -35.5 -5.49902h-6.5c-3.66699 0 -7.66699 1 -12 3s-8.33301 5.5 -12 10.5
s-5.5 12.167 -5.5 21.5c0 8.66699 0.666992 16.167 2 22.5s3.83301 12.666 7.5 18.999s9.16699 13.5 16.5 21.5s17 18 29 30c-18.667 7.33301 -33.334 19.166 -44.001 35.499s-16 35.833 -16 58.5c0 24 5.16699 49.833 15.5 77.5s24.666 53.334 42.999 77.001
s39.833 43.167 64.5 58.5s51.334 23 80.001 23c22 0 36.333 -5.5 43 -16.5s10 -23.167 10 -36.5c-2 -21.333 -7.83301 -43.166 -17.5 -65.499s-21.167 -44.333 -34.5 -66s-27.833 -42.5 -43.5 -62.5l-42.5 -54c6.66699 0 10 -0.666992 10 -2
c-0.666992 -15.333 -2.16699 -24.5 -4.5 -27.5s-5.16602 -4.83301 -8.49902 -5.5s-6.16602 -0.833984 -8.49902 -0.500977s-7.83301 0.166016 -16.5 -0.500977l-13.5 -16.5c-5.66699 -7 -11.167 -14.333 -16.5 -22s-9.83301 -15.167 -13.5 -22.5s-5.16699 -14 -4.5 -20
c0 -3.33301 1.66699 -7.33301 5 -12s9.16602 -7.33398 17.499 -8.00098s19.666 2.16602 33.999 8.49902s33.166 19.166 56.499 38.499l73 79.5l77 85l73 82l62.5 69.5l44 48c11 12 17.167 18 18.5 18c0.666992 0 2.16699 -2.5 4.5 -7.5s3.5 -11.5 3.5 -19.5
c0 -6 -4 -13.5 -12 -22.5s-19.667 -21.167 -35 -36.5zM68 164.007c10 -8 20.333 -13.002 31 -15.002l38 44.5c16.667 19.667 33.5 41.5 50.5 65.5s31.833 48.333 44.5 73s19 47 19 67c0 8 -2.16699 15.5 -6.5 22.5s-15.833 10.833 -34.5 11.5
c-20 0.666992 -39.667 -5.16602 -59 -17.499s-36.666 -28.166 -51.999 -47.499s-28 -40.333 -38 -63s-15.667 -44.334 -17 -65.001c0 -15.333 1.66699 -29.666 5 -42.999s9.66602 -24.333 18.999 -33z" />
    <glyph glyph-name="V" unicode="V" horiz-adv-x="219" 
d="M123 30c-3.33301 -6 -6.16504 -11.334 -8.49805 -16.001s-3.5 -8.66699 -3.5 -12c0 -2.66699 1 -4.66699 3 -6s3 -3.33301 3 -6c0 -7.33301 -3.66699 -13 -11 -17s-12.333 -6 -15 -6c-11.333 0 -20.166 3 -26.499 9s-10.666 13.333 -12.999 22s-2.83301 18.167 -1.5 28.5
s3.66602 19.833 6.99902 28.5c5.33301 12 13 26.333 23 43s19.333 35 28 55c-30 9.33301 -55.167 27 -75.5 53s-30.5 57 -30.5 93c0 18.667 3.83301 38.5 11.5 59.5s18.334 40.333 32.001 58s29.834 32.167 48.501 43.5s39 16.666 61 15.999
c19.333 -1.33301 36.666 -9.83301 51.999 -25.5s23 -37.5 23 -65.5c0 -31.333 -6.5 -64.333 -19.5 -99s-27.167 -67.667 -42.5 -99c2.66699 -0.666992 4 -2 4 -4c-0.666992 -9.33301 -1.33398 -16.166 -2.00098 -20.499s-1.83398 -7.33301 -3.50098 -9s-3.5 -2.5 -5.5 -2.5
s-4.33301 -0.333008 -7 -1l-6 -1c-0.666992 -1.33301 -1 -2.5 -1 -3.5s-0.333008 -2.16699 -1 -3.5l-32 -59l-11.5 -22c-3.66699 -7.33301 -6.83398 -14.333 -9.50098 -21l-6 -22c-2 -7.33301 0.666992 -13.666 8 -18.999l9 -3c-1.33301 1.33301 -2 3 -2 5
c0 9.33301 4 22.333 12 39s17.333 33 28 49c20 29.333 42.667 60.666 68 93.999s49.833 64 73.5 92s44.167 51.333 61.5 70s27.666 28 30.999 28c0 -0.666992 2.16699 -3.16699 6.5 -7.5s6.5 -10.833 6.5 -19.5c0 -2 -1.16699 -5 -3.5 -9s-6.5 -9.33301 -12.5 -16l-24 -26.5
l-37 -40.5c-11.333 -14 -26.333 -31.5 -45 -52.5l-57 -64l-53 -61.5c-16 -19.333 -27.333 -34.666 -34 -45.999zM93.001 200.999c4.66699 -2.66699 10.165 -5.33301 16.498 -8s11.833 -4 16.5 -4c8 14 16.333 30 25 48s16.834 36.333 24.501 55s14 37 19 55
s7.5 34.333 7.5 49c0 14 -3.33301 25.5 -10 34.5s-15.167 15.5 -25.5 19.5s-21.666 5.33301 -33.999 4s-24.166 -5.33301 -35.499 -12c-22 -10 -39.5 -26 -52.5 -48s-19.5 -45.667 -19.5 -71c0 -13.333 1.83301 -26.5 5.5 -39.5s8.66699 -25 15 -36
s13.666 -20.5 21.999 -28.5s16.833 -14 25.5 -18z" />
    <glyph glyph-name="W" unicode="W" horiz-adv-x="447" 
d="M809 253c-42 -24 -87.3359 -37.0049 -136.003 -39.0049s-97.667 5.66699 -147 23l-66.5 -63l-72.5 -67l-62 -56c-18 -16 -30 -26.333 -36 -31c-4.66699 -4 -11.334 -8.83301 -20.001 -14.5s-17.667 -8.16699 -27 -7.5c-14 0.666992 -22.5 4.16699 -25.5 10.5
s-5.16699 11.166 -6.5 14.499c0 8 3 17.833 9 29.5s13.167 24.167 21.5 37.5l26.5 40.5c9.33301 13.667 17.333 26.5 24 38.5l38.5 71l43.5 82c-4 -4 -6.66699 -7.33301 -8 -10l-67.5 -79.5l-76.5 -88.5l-71.5 -81.5c-22.333 -25 -39.833 -43.833 -52.5 -56.5
c-1.33301 -1.33301 -4.83301 -3.66602 -10.5 -6.99902s-12.5 -4.66602 -20.5 -3.99902c-20 0.666992 -30 12 -30 34c0 2 0.833008 4.33301 2.5 7l8.5 13c4 6 9.5 13.667 16.5 23s15.5 21.666 25.5 36.999c23.333 34 47 65.833 71 95.5s47.333 60.5 70 92.5l9.5 13
c4.33301 6 8.5 12.167 12.5 18.5s7.5 12.666 10.5 18.999s4.5 11.5 4.5 15.5v2h-1l1 1h-1v2c-2 3.33301 -5 6.5 -9 9.5s-11.333 4.5 -22 4.5c-21.333 0 -42.833 -4.16699 -64.5 -12.5s-41.334 -19 -59.001 -32s-32.167 -27.667 -43.5 -44s-17 -32.5 -17 -48.5
c0 -9.33301 2.16699 -17 6.5 -23s9 -11 14 -15s9.66699 -7.5 14 -10.5s6.5 -5.5 6.5 -7.5v1c-1.33301 0 -2.66602 -1.16699 -3.99902 -3.5s-3.33301 -4.83301 -6 -7.5s-5.66699 -4.83398 -9 -6.50098s-7.33301 -1.83398 -12 -0.500977c-17.333 9.33301 -29 21 -35 35
s-9.33301 28.667 -10 44c0.666992 17.333 7 34.333 19 51s27 31.667 45 45s37.667 24.833 59 34.5s41.833 16.334 61.5 20.001s37 3.5 52 -0.5s25.5 -12.333 31.5 -25c0 -12.667 -3.83301 -28 -11.5 -46s-17.667 -37.5 -30 -58.5s-26.166 -42.833 -41.499 -65.5l-47 -66.5
l-45.5 -61.5l-37.5 -50c2 0 9.83301 6.66699 23.5 20l50.5 51l66.5 69.5l70.5 74.5l63 66.5l45 46.5c4 8.66699 6.33301 18.667 7 30l2 33c0.666992 10.667 2.33398 20 5.00098 28s8.33398 13 17.001 15c3.33301 1.33301 7.83301 1.33301 13.5 0s8.5 -4.66602 8.5 -9.99902
s-0.333008 -10.666 -1 -15.999s-3 -13.666 -7 -24.999c-6.66699 -22.667 -16 -48 -28 -76s-25 -56 -39 -84s-28.333 -55.167 -43 -81.5l-40 -70.5l-29.5 -50c-7.66699 -12.667 -11.5 -19.334 -11.5 -20.001c4.66699 0 8.66699 0.333008 12 1s8.66602 4.33398 15.999 11.001
c5.33301 5.33301 16.833 15.833 34.5 31.5l61 54l71.5 63l65 58.5c-22.667 11.333 -39.334 24.5 -50.001 39.5s-16 28.5 -16 40.5c0 2 1.83301 3.83301 5.5 5.5s7.83398 3 12.501 4s9.16699 1.83301 13.5 2.5s7.5 1 9.5 1c4.66699 0.666992 8.16699 -2 10.5 -8l8 -21
c3 -8 7.16699 -15.667 12.5 -23s13.666 -12 24.999 -14c21.333 20.667 43.666 41.167 66.999 61.5s46.333 41.833 69 64.5c10.667 10.667 23.334 22.334 38.001 35.001s29.834 24.334 45.501 35.001s31.5 19.334 47.5 26.001s30.667 9.66699 44 9
c10.667 0 20.834 -2.16699 30.501 -6.5s18.334 -10.166 26.001 -17.499s13.667 -15.833 18 -25.5s6.5 -20.167 6.5 -31.5c0 -18 -3.16699 -35.333 -9.5 -52s-15 -32.334 -26 -47.001s-23.5 -28.167 -37.5 -40.5s-29 -23.166 -45 -32.499zM425.997 444.995
c-8 -12 -12.333 -25.001 -13 -39.001c2.66699 6 5.5 12.833 8.5 20.5s4.5 13.834 4.5 18.501zM556.997 266.994c18 -10 39.334 -16.5 64.001 -19.5s50.5 -3 77.5 0s53.5 9 79.5 18s49.5 20.833 70.5 35.5s37.833 32.167 50.5 52.5s19 43.166 19 68.499
c0 8 -1.5 16.333 -4.5 25s-7.33301 16.334 -13 23.001s-12.334 12.167 -20.001 16.5s-16.167 6.5 -25.5 6.5c-24 0 -48.167 -7.5 -72.5 -22.5s-46.5 -31.5 -66.5 -49.5l-80 -78z" />
    <glyph glyph-name="X" unicode="X" horiz-adv-x="384" 
d="M449 289l-57.498 -61.001l-62.5 -64c-4.66699 -61.333 -6.16699 -109.833 -4.5 -145.5s7.16699 -53.5 16.5 -53.5c1.33301 0 3 0.833008 5 2.5s4 3.16699 6 4.5c0.666992 0.666992 2 1 4 1c1.33301 0 2 -1.66699 2 -5
c-1.33301 -5.33301 -6.66602 -8.66602 -15.999 -9.99902c-14 0 -24.5 13.333 -31.5 40s-11.5 71.667 -13.5 135l-54 -53.5c-20 -19.667 -40.5 -38.167 -61.5 -55.5s-42.333 -31.833 -64 -43.5s-41.834 -17.5 -60.501 -17.5c-16 0.666992 -29 5.66699 -39 15
s-17.5 21 -22.5 35s-7.83301 29.667 -8.5 47s1 35 5 53c4 20.667 10.667 40.667 20 60s20.833 37.166 34.5 53.499s28.834 30.5 45.501 42.5s34 20.667 52 26c16.667 4 33 5.33301 49 4s27.667 -9.33301 35 -24c4 -5.33301 5.33301 -10.333 4 -15
s-3.83301 -8.16699 -7.5 -10.5s-7.83398 -2.83301 -12.501 -1.5c-10 0 -18.667 2.66699 -26 8s-17 7 -29 5c-16 -3.33301 -31.667 -10.333 -47 -21s-29.5 -23.5 -42.5 -38.5s-24.167 -31.833 -33.5 -50.5s-16 -37.334 -20 -56.001c-2 -11.333 -3.33301 -23.666 -4 -36.999
s0.666016 -25.833 3.99902 -37.5s9 -21.5 17 -29.5s19.333 -12 34 -12c10.667 0 21.5 2.66699 32.5 8s21.5 12 31.5 20l47 43c19.333 18 38.833 37.333 58.5 58l62.5 66c-0.666992 20.667 -0.666992 41.167 0 61.5s1.66699 40 3 59s3.16602 36.833 5.49902 53.5
s4.83301 31.334 7.5 44.001c3.33301 14 7.33301 27.167 12 39.5s9.66699 18.5 15 18.5c4.66699 -0.666992 9.16699 -3.83398 13.5 -9.50098s6.16602 -10.167 5.49902 -13.5l-1 -4c-1.33301 -4 -2 -7.66699 -2 -11c-7.33301 -33.333 -12.333 -66.5 -15 -99.5
s-5.66699 -66.5 -9 -100.5l90 98.5l82.5 89.5l63 65c17 16.667 27.5 25 31.5 25c1.33301 -2.66699 2.33301 -5.33398 3 -8.00098c1.33301 -6 1 -14.333 -1 -25c-0.666992 -1.33301 -1.16699 -2.66602 -1.5 -3.99902s-1.16602 -2.66602 -2.49902 -3.99902l-16 -18z" />
    <glyph glyph-name="Y" unicode="Y" horiz-adv-x="312" 
d="M214 45c-2.66699 -5.33301 -4.50391 -9.99902 -5.50391 -13.999s-1.5 -7 -1.5 -9c0 -4 3 -6 9 -6c8 0 15.833 3 23.5 9s14.834 12.667 21.501 20l17.5 20c5 6 8.5 9 10.5 9s3 -1.33301 3 -4v-3c0 -2 -1 -4.33301 -3 -7c-4 -7.33301 -9.16699 -14.5 -15.5 -21.5
s-13 -13.333 -20 -19s-14.167 -10 -21.5 -13s-13.666 -4.5 -18.999 -4.5c-3.33301 0 -7.83301 0.666992 -13.5 2s-8.5 5.33301 -8.5 12l-18 -26l-23 -31c22 -9.33301 47.5 -16.5 76.5 -21.5s58.167 -8.83301 87.5 -11.5s57.5 -3.83398 84.5 -3.50098s49.5 1.5 67.5 3.5
c2.66699 0 4 -1 4 -3c-6.66699 -8.66699 -12.834 -15.5 -18.501 -20.5s-12.167 -8.66699 -19.5 -11s-16.166 -3.83301 -26.499 -4.5s-23.833 -1 -40.5 -1s-35.167 1.33301 -55.5 4s-41 6.33398 -62 11.001s-41.5 10.167 -61.5 16.5s-38 12.833 -54 19.5
c-39.333 -46 -79.5 -80.833 -120.5 -104.5s-85.833 -36.834 -134.5 -39.501c-10.667 -0.666992 -23 0.5 -37 3.5s-27.167 7.5 -39.5 13.5s-22.666 13.5 -30.999 22.5s-12.166 19.5 -11.499 31.5c0.666992 21.333 8.33398 39.333 23.001 54s33.334 26.5 56.001 35.5
s47.667 15.5 75 19.5s54.333 6.33301 81 7s51.167 -0.333008 73.5 -3s39.5 -6.33398 51.5 -11.001c0.666992 0 1 -0.166992 1 -0.5s0.333008 -0.5 1 -0.5c12.667 16 24.334 31.833 35.001 47.5l30 44.5c-10 -7.33301 -21.333 -15 -34 -23s-25.334 -15.333 -38.001 -22
s-25.167 -12.167 -37.5 -16.5s-22.833 -6.5 -31.5 -6.5l-6 0.5c-4 0.333008 -8.16699 1.5 -12.5 3.5s-8.33301 5.33301 -12 10s-5.5 11.667 -5.5 21c0 11.333 1 19.333 3 24s6.16699 10.334 12.5 17.001l26 28c11 12 25.5 30.667 43.5 56c-20 8 -35 21.333 -45 40
s-15 39 -15 61s6 46.333 18 73s27.5 51.5 46.5 74.5s40.5 42.167 64.5 57.5s48.333 23 73 23c20 0 33.833 -5.16699 41.5 -15.5s11.5 -22.833 11.5 -37.5c-1.33301 -16.667 -6.5 -35.667 -15.5 -57s-19.833 -43.166 -32.5 -65.499s-26.667 -44.166 -42 -65.499
s-30.333 -40 -45 -56c9.33301 0 14.833 -1.83301 16.5 -5.5s2.5 -6.5 2.5 -8.5c0 -12 -4.16699 -19 -12.5 -21s-20.5 -3.33301 -36.5 -4l-25.5 -31.5l-18.5 -22l-14.5 -17.5l-13.5 -17c-3.33301 -5.33301 -6 -10 -8 -14c-1.33301 -3.33301 -2.5 -6.5 -3.5 -9.5
s-0.166992 -4.83301 2.5 -5.5c5.33301 -2.66699 14.166 -2.33398 26.499 0.999023s25.666 8.5 39.999 15.5s28.333 14.833 42 23.5s24.167 16.667 31.5 24l2 1c10 10.667 24.5 27 43.5 49l63 72.5l71 81.5l68 76.5c21 23 38.833 41.833 53.5 56.5s24 22 28 22
c0.666992 0 2.16699 -2.5 4.5 -7.5s3.5 -11.5 3.5 -19.5c0 -4 -2.5 -9.33301 -7.5 -16s-14.5 -17.834 -28.5 -33.501l-59.5 -65.5l-101.5 -113c-20.667 -23.333 -39.5 -47 -56.5 -71s-34.167 -49.667 -51.5 -77zM64.9961 268.001c0 -18 3.83398 -35.6689 11.501 -53.002
s22.167 -28.666 43.5 -33.999c11.333 15.333 23.5 30.833 36.5 46.5l39.5 49.5l24 33.5c8.66699 12.333 16.834 25.333 24.501 39s14 27.334 19 41.001s7.5 26.834 7.5 39.501v10c0 4 -1.33301 7.66699 -4 11s-6.83398 6.33301 -12.501 9s-14.167 4 -25.5 4
c-20 0 -39.833 -6 -59.5 -18s-37.334 -27.5 -53.001 -46.5s-28.167 -39.833 -37.5 -62.5s-14 -44.334 -14 -65.001v-4zM-129.003 -191.001c22.667 -0.666992 44.8301 2.83301 66.4971 10.5s42.334 17.667 62.001 30s38.334 26.833 56.001 43.5s33.5 33.667 47.5 51
c-10.667 5.33301 -26.5 9.83301 -47.5 13.5s-43.833 5.5 -68.5 5.5s-50 -1.66699 -76 -5s-49.667 -8.83301 -71 -16.5s-38.666 -17.667 -51.999 -30s-20 -27.5 -20 -45.5c0 -10.667 3.5 -19.5 10.5 -26.5s15.667 -12.833 26 -17.5s21.5 -8 33.5 -10s23 -3 33 -3z" />
    <glyph glyph-name="Z" unicode="Z" horiz-adv-x="248" 
d="M514 440c1.33301 -0.666992 2.1709 -2.16895 2.50391 -4.50195s0.5 -4.16602 0.5 -5.49902c0 -6 -1 -10.833 -3 -14.5s-6.83301 -6.5 -14.5 -8.5s-18.834 -3.83301 -33.501 -5.5l-59 -6.5c-12.667 -11.333 -25.167 -24.5 -37.5 -39.5l-36 -45l-33 -42
c-10.333 -13 -19.5 -23.5 -27.5 -31.5c-4 -6.66699 -12.833 -18.667 -26.5 -36l-48.5 -59c-18.667 -22 -39.167 -44.5 -61.5 -67.5s-44.5 -43.167 -66.5 -60.5c3.33301 0.666992 7.5 1.16699 12.5 1.5s9.16699 0.5 12.5 0.5c30.667 0 61.667 -2.66699 93 -8
s62.833 -12.333 94.5 -21s63 -18.334 94 -29.001l93.5 -32l38.5 -14c13 -4.66699 26.833 -7.66699 41.5 -9h1c7.33301 0 12.666 1 15.999 3c2 1.33301 3.66699 2.66602 5 3.99902c0 1.33301 -1.5 3.5 -4.5 6.5s-3.16699 6.83301 -0.5 11.5
c1.33301 1.33301 3.33301 3.16602 6 5.49902s6.66699 3.5 12 3.5c8 0 13.667 -3 17 -9s5 -12.333 5 -19c0 -14 -5.66699 -24.833 -17 -32.5s-25 -11.5 -41 -11.5c-2 0 -4.5 0.166992 -7.5 0.5s-7.83301 1.33301 -14.5 3s-15.834 4.33398 -27.501 8.00098
s-27.167 8.83398 -46.5 15.501c-24.667 8 -53.334 18.333 -86.001 31s-66 24.667 -100 36s-67 21.166 -99 29.499s-60 12.5 -84 12.5h-4c-10 0 -18.167 -0.666992 -24.5 -2s-11.5 -3 -15.5 -5s-7.5 -3.66699 -10.5 -5s-6.16699 -2 -9.5 -2c-4.66699 0 -7 1.66699 -7 5
c0 2.66699 1 4 3 4c9.33301 0 26.833 13.333 52.5 40s60.167 69 103.5 127l52.5 72.5l36.5 49l25.5 32.5c7 8.66699 13.833 16.5 20.5 23.5l21 21.5l28 28c-36 -2.66699 -71.667 -5.16699 -107 -7.5s-67 -6.16602 -95 -11.499s-50.5 -13 -67.5 -23s-25.5 -23.667 -25.5 -41
c0 -10 1 -15.833 3 -17.5s3 -3.5 3 -5.5s-1.66699 -4.16699 -5 -6.5s-7 -3.5 -11 -3.5c-2 0 -4 1 -6 3s-3 9.66699 -3 23c0 10.667 3.33301 22 10 34c6 9.33301 15.833 18.333 29.5 27s34.334 17.167 62.001 25.5s63.667 16.5 108 24.5s100.166 16 167.499 24
c11.333 6.66699 21.333 11.334 30 14.001s17.667 4 27 4c11.333 0 20 -1.66699 26 -5s9.66699 -5.66602 11 -6.99902zM491.005 432.998c-3.33301 0.666992 -7.5 1.16895 -12.5 1.50195s-10.167 0.5 -15.5 0.5s-10.333 -0.333008 -15 -1s-7.66699 -1.33398 -9 -2.00098
c0 -0.666992 1.66699 -1 5 -1h12c4.66699 0 9 -0.166992 13 -0.5s6.66699 -0.5 8 -0.5c2 0 4.5 0.166992 7.5 0.5s4.83301 1.16602 5.5 2.49902h1z" />
    <glyph glyph-name="bracketleft" unicode="[" horiz-adv-x="183" 
d="M289 459c1.33301 2.66699 6.00391 5.66602 14.0039 8.99902s14.333 5.33301 19 6c8 2.66699 20.667 4.16699 38 4.5s33 -0.166992 47 -1.5l15.5 -6.5c7 -3 12.167 -6.16699 15.5 -9.5c3.33301 -2 3.66602 -3.66699 0.999023 -5c-22.667 3.33301 -43.5 5.33301 -62.5 6
s-33.167 0.666992 -42.5 0l-280 -489c0 -0.666992 -0.166992 -1 -0.5 -1s-0.5 -0.333008 -0.5 -1c-0.666992 -1.33301 2.16602 -2.5 8.49902 -3.5s14.666 -1.66699 24.999 -2s22.5 -0.166016 36.5 0.500977s28.333 1.66699 43 3c1.33301 -1.33301 1.33301 -3 0 -5
c-2.66699 -3.33301 -6.83398 -6.5 -12.501 -9.5s-10.5 -4.5 -14.5 -4.5c-23.333 0 -43.666 0.666992 -60.999 2s-28.666 3.33301 -33.999 6c-2 0 -4 1.33301 -6 4s-3.66699 6 -5 10s-2.33301 8.16699 -3 12.5s-0.333984 7.83301 0.999023 10.5c2.66699 4 12.5 17 29.5 39
s37.833 52.5 62.5 91.5s51.667 86.333 81 142s57.666 119.5 84.999 191.5z" />
    <glyph glyph-name="backslash" unicode="\" horiz-adv-x="240" 
d="M13 477c4 5.33301 8.33594 7.49805 13.0029 6.49805s8.66699 -2.5 12 -4.5c2 -19.333 8 -45 18 -77s22.167 -67 36.5 -105s30.166 -77 47.499 -117l50 -113l43.5 -94c13 -27.333 22.833 -46.666 29.5 -57.999c1.33301 -1.33301 0 -2.16602 -4 -2.49902
s-6.66699 0.5 -8 2.5c-2 3.33301 -7.5 13.333 -16.5 30l-33.5 62l-43.5 83.5l-47 95.5l-44.5 97c-14 32 -25.833 61.167 -35.5 87.5s-16.334 49 -20.001 68s-2.83398 31.833 2.49902 38.5z" />
    <glyph glyph-name="bracketright" unicode="]" horiz-adv-x="370" 
d="M67 -29c-1.33301 -2.66699 -6.00391 -5.66602 -14.0039 -8.99902s-14.333 -5.33301 -19 -6c-8 -2.66699 -20.667 -4.16699 -38 -4.5s-33 0.166992 -47 1.5l-15.5 6.5c-7 3 -12.167 6.16699 -15.5 9.5c-3.33301 2 -3.66602 3.66699 -0.999023 5
c22.667 -3.33301 43.5 -5.33301 62.5 -6s33.167 -0.666992 42.5 0l280 489c0 0.666992 0.166992 1 0.5 1s0.5 0.333008 0.5 1c0.666992 1.33301 -2.16602 2.5 -8.49902 3.5s-14.666 1.66699 -24.999 2s-22.5 0.166016 -36.5 -0.500977s-28.333 -1.66699 -43 -3
c-1.33301 1.33301 -1.33301 3 0 5c2.66699 3.33301 6.83398 6.5 12.501 9.5s10.5 4.5 14.5 4.5c23.333 0 43.666 -0.666992 60.999 -2s28.666 -3.33301 33.999 -6c2 0 4 -1.33301 6 -4s3.66699 -6 5 -10s2.33301 -8.16699 3 -12.5s0.333984 -7.83301 -0.999023 -10.5
c-2.66699 -4 -12.5 -17 -29.5 -39s-37.833 -52.5 -62.5 -91.5s-51.667 -86.333 -81 -142s-57.666 -119.5 -84.999 -191.5z" />
    <glyph glyph-name="underscore" unicode="_" horiz-adv-x="501" 
d="M27 -44c-2.66699 5.33301 -2.99902 9.50293 -0.999023 12.5029s4.33301 5.16699 7 6.5c13.333 -4 32 -7.33301 56 -10s50.667 -4.33398 80 -5.00098s59.666 -0.833984 90.999 -0.500977s61 1 89 2s52.833 2.16699 74.5 3.5s37.5 2.66602 47.5 3.99902
c1.33301 0 1.66602 -1.16699 0.999023 -3.5s-2 -3.83301 -4 -4.5c-4 -0.666992 -17.167 -2.33398 -39.5 -5.00098s-49 -5.5 -80 -8.5s-64.5 -5.66699 -100.5 -8s-69.667 -3.66602 -101 -3.99902s-58.166 1 -80.499 4s-35.5 8.5 -39.5 16.5z" />
    <glyph glyph-name="grave" unicode="`" horiz-adv-x="84" 
d="M18 233c-2 1.33301 -3.83301 4.16895 -5.5 8.50195s-1.16699 7.83301 1.5 10.5c4 5.33301 9.33301 5.66602 16 0.999023c4 -2.66699 7 -5 9 -7c5.33301 -4.66699 10 -8.33398 14 -11.001s10.667 -6.33398 20 -11.001c1.33301 -1.33301 1 -2.66602 -1 -3.99902
s-3.66699 -2 -5 -2c-9.33301 1.33301 -18.5 3.33301 -27.5 6s-16.167 5.66699 -21.5 9z" />
    <glyph glyph-name="a" unicode="a" 
d="M151 94c2 1.33301 3.16895 0.668945 3.50195 -1.99805s0 -6 -1 -10s-2.5 -8.33301 -4.5 -13s-4 -8 -6 -10s-6.66699 -6.33301 -14 -13s-15.5 -13.334 -24.5 -20.001s-18 -12.667 -27 -18s-16.167 -8 -21.5 -8c-19.333 0 -28 7.66699 -26 23
c0.666992 1.33301 1.66699 3.5 3 6.5s3 6.16699 5 9.5s4.33301 6.66602 7 9.99902l-18 -16.5l-9.5 -8.5l-6 -5c-1.66699 -1.33301 -3.5 -3 -5.5 -5c-10 -8.66699 -20 -13.334 -30 -14.001s-18 3.33301 -24 12c-4.66699 8.66699 -2.83398 21.334 5.49902 38.001
s19.333 33.834 33 51.501s28.334 34.334 44.001 50.001s28.5 26.5 38.5 32.5c8 5.33301 16.167 9.16602 24.5 11.499s17.166 1.16602 26.499 -3.50098c3.33301 -1.33301 6.16602 -2.66602 8.49902 -3.99902s4.16602 -1.66602 5.49902 -0.999023l8 8
c2 2.66699 5.33301 4.66699 10 6s9.33398 2.16602 14.001 2.49902s8.5 0 11.5 -1s3.83301 -2.83301 2.5 -5.5c-21.333 -22.667 -42.833 -47.334 -64.5 -74.001s-40.834 -54.334 -57.501 -83.001c-1.33301 -2 -3.16602 -5.83301 -5.49902 -11.5s-2.5 -9.5 -0.5 -11.5
c2 -3.33301 5 -3.66602 9 -0.999023c0.666992 0 4.33398 2.66699 11.001 8l24 20c9.33301 8 18.666 16.5 27.999 25.5s17 17.167 23 24.5zM-5.99805 21.0029c5.33301 3.33301 11.8301 8.66797 19.4971 16.001l23 23c7.66699 8 14.834 15.833 21.501 23.5
s11.334 13.5 14.001 17.5c4 4.66699 8.66699 11 14 19l15 23.5c4.66699 7.66699 8.16699 14.667 10.5 21s2.16602 10.166 -0.500977 11.499c-3.33301 2.66699 -6.16602 3.66699 -8.49902 3s-4.5 -1.66699 -6.5 -3c-0.666992 0 -3.16699 -2 -7.5 -6l-15.5 -15l-18.5 -19
c-6.33301 -6.66699 -11.5 -13 -15.5 -19l-34 -45.5c-11.333 -15 -19.333 -29.167 -24 -42.5c-1.33301 -4.66699 -0.666016 -7.66699 2.00098 -9c0.666992 -0.666992 2.16699 -1 4.5 -1s4.5 0.666992 6.5 2z" />
    <glyph glyph-name="b" unicode="b" horiz-adv-x="158" 
d="M124 206c-20 -15.333 -37.502 -32.8301 -52.502 -52.4971l-45.5 -58.5c-2.66699 -3.33301 -6 -8.16602 -10 -14.499s-7.66699 -13 -11 -20s-6.33301 -13.833 -9 -20.5s-4 -12 -4 -16s1.5 -6.66699 4.5 -8s5.83301 -2 8.5 -2c5.33301 0 10.666 1.66699 15.999 5
c2.66699 1.33301 8 5 16 11s16.333 13.167 25 21.5s16.5 16.833 23.5 25.5s10.5 16.667 10.5 24c0 4.66699 -1.83301 10.167 -5.5 16.5s-5.5 13.166 -5.5 20.499c0 15.333 5 28.5 15 39.5s21 16.5 33 16.5c10 0 16.5 -2.83301 19.5 -8.5s4.5 -11.834 4.5 -18.501v-5.5
c0 -3.66699 -0.666992 -8.33398 -2 -14.001s-3.83301 -11.834 -7.5 -18.501s-8.83398 -13.334 -15.501 -20.001c-2 -2 -1.66699 -3.16699 1 -3.5s6 -0.166016 10 0.500977c4.66699 0.666992 10.334 1.33398 17.001 2.00098c2 0 4.16699 -0.666992 6.5 -2s3.5 -3 3.5 -5
s-2.33301 -4 -7 -6c-9.33301 -2.66699 -16.666 -4.16699 -21.999 -4.5s-9.83301 -0.5 -13.5 -0.5s-6.66699 -0.5 -9 -1.5s-5.16602 -3.5 -8.49902 -7.5c-17.333 -20 -35.333 -38.5 -54 -55.5s-36.667 -25.5 -54 -25.5c-26.667 0 -40 10 -40 30c0 5.33301 1 11 3 17
c7.33301 23.333 21 49 41 77l63 84c26 33.333 54.333 66.166 85 98.499s62.334 63.5 95.001 93.5c5.33301 3.33301 10 6.83301 14 10.5s8.33301 5.5 13 5.5c3.33301 0 6 -1.16699 8 -3.5s3 -4.83301 3 -7.5c0 -4 -1 -7.33301 -3 -10
c-17.333 -34.667 -40.333 -68.5 -69 -101.5s-59 -62.167 -91 -87.5zM266.998 389.003c-25.333 -21.333 -47.668 -44.832 -67.001 -70.499s-39.666 -50.834 -60.999 -75.501c25.333 20.667 48.5 43.167 69.5 67.5s40.5 50.5 58.5 78.5zM123.996 176.004
c-3.33301 -2.66699 -7.83398 -8.33203 -13.501 -16.999s-8.5 -16 -8.5 -22c0 -6.66699 1 -11.667 3 -15s3.33301 -5 4 -5c6 1.33301 10.833 4.5 14.5 9.5s6.66699 10.333 9 16s4 11.167 5 16.5s1.5 8.66602 1.5 9.99902c0 6.66699 -2.33301 10 -7 10
c-1.33301 0 -2.66602 -0.333008 -3.99902 -1z" />
    <glyph glyph-name="c" unicode="c" horiz-adv-x="120" 
d="M113 65l-14.4941 -17.5029c-3.66699 -4.33301 -6.83398 -7.66602 -9.50098 -9.99902s-5.33398 -4.5 -8.00098 -6.5s-6 -4.66699 -10 -8c-4.66699 -4 -11.167 -7.66699 -19.5 -11s-17 -6.16602 -26 -8.49902s-17.833 -3.66602 -26.5 -3.99902s-15.334 1.16699 -20.001 4.5
c-7.33301 4 -12 8.16699 -14 12.5s-3.33301 7.5 -4 9.5c-2 12 0.666992 25 8 39c6.66699 12 14.334 23.667 23.001 35s17.667 22 27 32s18.166 19 26.499 27l21.5 20c7.33301 6.66699 14.5 11 21.5 13s13.333 2.83301 19 2.5s10.5 -1.66602 14.5 -3.99902
s6.66699 -4.5 8 -6.5c4.66699 -8 3.33398 -15.667 -3.99902 -23c-4.66699 -6.66699 -10.167 -12.667 -16.5 -18s-10.833 -8.66602 -13.5 -9.99902c-2 -1.33301 -4.5 -1.66602 -7.5 -0.999023s-5.83301 1.83398 -8.5 3.50098s-4.66699 3.33398 -6 5.00098
s-1.33301 3.16699 0 4.5c2.66699 2 5.33398 3.33301 8.00098 4c2.66699 1.33301 6 3.16602 10 5.49902s7.66699 4.66602 11 6.99902s6.16602 4.83301 8.49902 7.5s2.83301 5 1.5 7c-2.66699 4 -6 4.83301 -10 2.5s-7 -4.5 -9 -6.5
c-5.33301 -5.33301 -12.833 -13.5 -22.5 -24.5l-30 -35.5l-29 -36.5c-9 -11.667 -15.167 -20.5 -18.5 -26.5c-2.66699 -5.33301 -4.5 -10.833 -5.5 -16.5s1.83301 -10.834 8.5 -15.501c2.66699 -2 6.66699 -2.83301 12 -2.5s10.833 1.33301 16.5 3s11 3.66699 16 6
s8.5 4.16602 10.5 5.49902c11.333 6.66699 20.166 13.834 26.499 21.501s13.166 15.5 20.499 23.5c5.33301 5.33301 8.83301 9.33301 10.5 12s5.16699 7 10.5 13c3.33301 1.33301 4.66602 -1.33398 3.99902 -8.00098s-4.33398 -15.334 -11.001 -26.001z" />
    <glyph glyph-name="d" unicode="d" horiz-adv-x="173" 
d="M172 94c2 1.33301 3.16309 0.662109 3.49609 -2.00488s0 -6 -1 -10s-2.5 -8.33301 -4.5 -13s-4 -8 -6 -10c-2.66699 -3.33301 -9.16699 -10.333 -19.5 -21s-21.166 -19.667 -32.499 -27l-13 -8c-3.33301 -2 -7.33301 -3 -12 -3h-1c-2.66699 0 -5.16699 0.166992 -7.5 0.5
s-4.83301 1.16602 -7.5 2.49902c-8 4.66699 -13.5 10.667 -16.5 18s-4.5 15.333 -4.5 24c0.666992 4 0 5.33301 -2 4l-5 -5c-2.66699 -2.66699 -6 -5.66699 -10 -9s-8.16699 -7 -12.5 -11s-8.16602 -7.33301 -11.499 -10c-10 -8.66699 -20 -13.5 -30 -14.5
s-18.333 3.16699 -25 12.5c-4 8.66699 -1.83301 21.334 6.5 38.001s19.333 33.834 33 51.501s28.334 34.334 44.001 50.001s28.5 26.5 38.5 32.5c7.33301 5.33301 15.333 9 24 11s17.667 0.666992 27 -4c2.66699 -1.33301 5 -3 7 -5s4 -2 6 0
c12.667 16.667 26.834 34.334 42.501 53.001l47 55l44.5 51.5l36 41.5c3.33301 3.33301 6.83301 7.33301 10.5 12s7.16699 8.66699 10.5 12l12 12h1c2.66699 2 6.5 3.33301 11.5 4s9.66699 1 14 1s7.83301 -0.5 10.5 -1.5s3.33398 -2.5 2.00098 -4.5l-34 -39l-41.5 -49
l-44 -52.5l-41 -49l-32 -39l-17.5 -21.5l-28.5 -34.5c-9.66699 -11.667 -18.834 -23.5 -27.501 -35.5l-11 -15c-5.33301 -7.33301 -10.5 -15.5 -15.5 -24.5s-8.66699 -17.667 -11 -26s-1.5 -14.5 2.5 -18.5c3.33301 -3.33301 6.33301 -4.66602 9 -3.99902
s5.66699 2.33398 9 5.00098c0.666992 0 3.66699 2.5 9 7.5l19.5 19l23.5 24.5c8 8.66699 15 16.667 21 24zM-3.00391 20.9961c5.33301 3.33301 11.834 8.66602 19.501 15.999l23 23c7.66699 8 14.667 15.833 21 23.5s10.833 13.5 13.5 17.5
c4 4.66699 8.83301 10.834 14.5 18.501l16 22.5c5 7.33301 8.5 14.166 10.5 20.499s1.66699 10.833 -1 13.5c-3.33301 3.33301 -6.33301 4.5 -9 3.5s-5 -2.16699 -7 -3.5c-22 -22 -42.833 -44.667 -62.5 -68s-36.834 -49.666 -51.501 -78.999
c-0.666992 -1.33301 -1.16699 -2.83301 -1.5 -4.5s0.5 -3.16699 2.5 -4.5c1.33301 -0.666992 3 -1 5 -1s4.33301 0.666992 7 2z" />
    <glyph glyph-name="e" unicode="e" horiz-adv-x="113" 
d="M32 102c-9.33301 -11.333 -17.4971 -21.6621 -24.4971 -30.9951s-11.833 -16.666 -14.5 -21.999c-3.33301 -5.33301 -5.5 -10.833 -6.5 -16.5s1.83301 -10.834 8.5 -15.501c2.66699 -2 6.5 -3 11.5 -3s10 0.5 15 1.5s9.66699 2.33301 14 4s7.5 3.16699 9.5 4.5
c14 8 26 18 36 30l32 40c3.33301 1.33301 4.83301 -1.33398 4.5 -8.00098s-3.83301 -15.334 -10.5 -26.001l-14.5 -17.5c-3.66699 -4.33301 -7 -7.83301 -10 -10.5s-5.83301 -5 -8.5 -7s-6 -4.33301 -10 -7c-4.66699 -4 -10.834 -7.5 -18.501 -10.5s-15.667 -5.33301 -24 -7
s-16.5 -2.33398 -24.5 -2.00098s-14.667 2.16602 -20 5.49902c-6.66699 4 -11 8.16699 -13 12.5s-3.66699 7.5 -5 9.5c-2 12 0.666992 25 8 39c13.333 24.667 28.166 46.5 44.499 65.5s30.166 34.167 41.499 45.5c15.333 13.333 29.833 20.166 43.5 20.499
s22.167 -1.16699 25.5 -4.5c5.33301 -3.33301 7.66602 -8.16602 6.99902 -14.499s-3 -12.833 -7 -19.5c-11.333 -18.667 -24.666 -31.334 -39.999 -38.001s-32 -12.667 -50 -18zM89.0029 169.004c-4.66699 -4.66699 -11.1689 -11.833 -19.502 -21.5l-26.5 -31.5
c8 3.33301 17.167 7.66602 27.5 12.999s19.166 12.333 26.499 21c2.66699 2.66699 5.33398 6.83398 8.00098 12.501s3.33398 10.167 2.00098 13.5c-1.33301 4 -4.16602 4.5 -8.49902 1.5s-7.5 -5.83301 -9.5 -8.5z" />
    <glyph glyph-name="f" unicode="f" horiz-adv-x="105" 
d="M99 60c-4.66699 -6 -10.168 -12.5 -16.501 -19.5s-13.166 -13.5 -20.499 -19.5s-15.166 -11 -23.499 -15s-16.833 -6 -25.5 -6c-16.667 0 -28 4.66699 -34 14l-38 -54c-27.333 -37.333 -57 -68 -89 -92s-63.833 -42 -95.5 -54s-62.334 -18.167 -92.001 -18.5
s-56.167 5.16699 -79.5 16.5c-12 6 -22.167 14.167 -30.5 24.5s-12.5 22.166 -12.5 35.499c0 17.333 6.66699 32.166 20 44.499s30.666 18.5 51.999 18.5h2c6.66699 0 11.334 -0.5 14.001 -1.5s4.33398 -1.83301 5.00098 -2.5v-2l-4.5 -13
c-1.66699 -4.66699 -3.5 -7 -5.5 -7c-6.66699 0 -13.5 -0.5 -20.5 -1.5s-13.333 -2.83301 -19 -5.5s-10.334 -6.66699 -14.001 -12s-5.5 -13 -5.5 -23c0 -15.333 8 -28.833 24 -40.5s35.667 -17.5 59 -17.5c36.667 0 70.5 7.33301 101.5 22s59.833 33.834 86.5 57.501
s51.334 50.167 74.001 79.5s44 59 64 89l28 42c7.33301 10.667 15.166 22.667 23.499 36s17.166 26 26.499 38c-3.33301 1.33301 -6.16602 1.33301 -8.49902 0s-5.16602 -2 -8.49902 -2c-2 0 -4.33301 0.666992 -7 2s-4 3.66602 -4 6.99902c0 5.33301 2 9 6 11
s8.66699 2.33301 14 1c2.66699 -0.666992 4.33398 -1 5.00098 -1s1.16699 -0.166992 1.5 -0.5s1.16602 -0.666016 2.49902 -0.999023s4.33301 -1.5 9 -3.5l17 22c25.333 33.333 53.333 66 84 98s62.667 63.333 96 94c3.33301 3.33301 7.5 6.83301 12.5 10.5
s9.83301 5.5 14.5 5.5c3.33301 0 6 -1.16699 8 -3.5s3 -4.5 3 -6.5c0 -14 -6.66699 -30.833 -20 -50.5s-29 -39.167 -47 -58.5s-36.167 -37.333 -54.5 -54s-32.5 -29 -42.5 -37c-14 -11.333 -27.333 -24.333 -40 -39l7 -3c3.33301 3.33301 7.33301 6.66602 12 9.99902
s9.66699 5 15 5c3.33301 0 6.16602 -0.666992 8.49902 -2s3.5 -3.66602 3.5 -6.99902c0 -4.66699 -4 -8.33398 -12 -11.001s-14.333 -4.66699 -19 -6c-4 -8 -7.33301 -15 -10 -21l-7.5 -14.5c-2.33301 -4.33301 -4.16602 -6.5 -5.49902 -6.5s-2.83301 2.16699 -4.5 6.5
s-2.5 8.83301 -2.5 13.5c0 2 0.666992 4.33301 2 7l11 17c-0.666992 0 -3 0.666992 -7 2l-48 -62c-2.66699 -3.33301 -6 -8.16602 -10 -14.499s-7.66699 -13 -11 -20s-6.33301 -13.833 -9 -20.5s-4 -12 -4 -16s1.33301 -6.66699 4 -8s5 -2 7 -2
c7.33301 0 15.666 4.16699 24.999 12.5s18.5 17.5 27.5 27.5l24 27.5c7 8.33301 12.167 12.5 15.5 12.5c2 0 3 -2 3 -6c0 -7.33301 -3.33301 -16.666 -10 -27.999zM277.999 389c-25.333 -21.333 -47.833 -44.832 -67.5 -70.499s-40.167 -50.834 -61.5 -75.501
c26 20.667 49.5 43.167 70.5 67.5s40.5 50.5 58.5 78.5zM120.999 167.001c-2 -0.666992 -3.33398 -1.99902 -4.00098 -3.99902c1.33301 0 2.83301 0.166992 4.5 0.5s5.83398 2.16602 12.501 5.49902v1c-4.66699 0 -9 -1 -13 -3z" />
    <glyph glyph-name="g" unicode="g" horiz-adv-x="156" 
d="M258 -94c-9.33301 -3.33301 -17.335 -5.16797 -24.002 -5.50098s-14.334 -0.5 -23.001 -0.5c-36 0 -72.833 3.16699 -110.5 9.5s-74.5 15.5 -110.5 27.5c-38 -44.667 -78.167 -79.167 -120.5 -103.5s-88.5 -36.5 -138.5 -36.5c-9.33301 0 -20.666 1.16699 -33.999 3.5
s-26 6.33301 -38 12s-22.333 12.834 -31 21.501s-13 19 -13 31c0 18 7 34.167 21 48.5s31.667 26.5 53 36.5s44.833 17.833 70.5 23.5s50.167 8.5 73.5 8.5c20.667 0 42 -1.16699 64 -3.5s48 -6.5 78 -12.5c0.666992 0 1.16699 -0.166992 1.5 -0.5s0.833008 -0.5 1.5 -0.5
l24 32.5c8 11 15.333 21.833 22 32.5c-10 -10 -18.833 -17.5 -26.5 -22.5s-15.5 -7.5 -23.5 -7.5c-5.33301 -0 -10.666 1.83301 -15.999 5.5s-8 9.16699 -8 16.5c0 10.667 4.66699 24 14 40s20.5 32 33.5 48s26.5 30.833 40.5 44.5s25.667 23.5 35 29.5
c5.33301 3.33301 10.833 6.16602 16.5 8.49902s11.5 3.5 17.5 3.5c4 0 8.5 -1 13.5 -3s9.16699 -3 12.5 -3c6 0 11.667 2.16699 17 6.5s12.666 6.5 21.999 6.5c8 0 12 -1.33301 12 -4c0 -0.666992 -0.166992 -1 -0.5 -1s-0.5 -0.333008 -0.5 -1
c-10.667 -10.667 -24 -26.167 -40 -46.5l-52 -69.5l-34 -52c-1.33301 -4 -2 -7 -2 -9s0.666992 -3.5 2 -4.5s2.33301 -1.5 3 -1.5c-0.666992 0 2.16602 2.16699 8.49902 6.5s14.333 10.333 24 18s19.834 16.334 30.501 26.001s20 19.5 28 29.5c0.666992 0 1 0.166992 1 0.5
s0.333008 0.5 1 0.5c1.33301 0 2 -1.66699 2 -5c0 -4 -1.16699 -9.33301 -3.5 -16s-5.16602 -11.667 -8.49902 -15c-2 -2 -6.66699 -6.33301 -14 -13s-15.5 -13.334 -24.5 -20.001s-18 -12.667 -27 -18s-16.167 -8 -21.5 -8c-7.33301 0 -13 1 -17 3l-8 -11
c-3.33301 -4.66699 -6.66602 -9.66699 -9.99902 -15c-4 -6 -8.33301 -12 -13 -18c36 -8 69.667 -14.667 101 -20s61 -8 89 -8c18 0 31.667 0.166992 41 0.5s16.5 0.5 21.5 0.5s8.33301 0.166992 10 0.5s4.16699 0.5 7.5 0.5c2 0 3.33301 -0.333008 4 -1v-1
c0 -0.666992 -2.5 -4.66699 -7.5 -12s-10.5 -11.666 -16.5 -12.999zM-6.00195 20.998c14 10 28.167 22.3311 42.5 36.998s27.166 29.5 38.499 44.5s20.5 29 27.5 42s10.5 22.167 10.5 27.5c0 6.66699 -3 8.66699 -9 6s-13.167 -7.5 -21.5 -14.5s-16.666 -15 -24.999 -24
s-14.5 -16.5 -18.5 -22.5c-5.33301 -7.33301 -11.333 -15.166 -18 -23.499s-13 -16.666 -19 -24.999s-11.167 -16.333 -15.5 -24s-6.5 -14.167 -6.5 -19.5c0 -3.33301 1.83301 -5.33301 5.5 -6s6.5 0 8.5 2zM-266.002 -186.004c47.333 4 88.999 17.668 124.999 41.001
s70 53 102 89c-15.333 3.33301 -34.166 7.16602 -56.499 11.499s-46.833 6.5 -73.5 6.5c-5.33301 0 -13.666 -0.5 -24.999 -1.5s-24.333 -2.66699 -39 -5s-29.834 -5.5 -45.501 -9.5s-30.167 -9.5 -43.5 -16.5s-24.833 -15.333 -34.5 -25s-15.5 -21.167 -17.5 -34.5
c0.666992 -10 4.83398 -18.667 12.501 -26s17 -13.333 28 -18s22.667 -8 35 -10s23.166 -2.66699 32.499 -2z" />
    <glyph glyph-name="h" unicode="h" horiz-adv-x="159" 
d="M234 312l-32.5039 -36.998c-10.333 -11.333 -21 -22.333 -32 -33l-34.5 -32.5l-39 -37.5c10 5.33301 20.667 10.666 32 15.999s20.666 8 27.999 8s12.333 -2.33301 15 -7s4 -9.33398 4 -14.001c0 -1.33301 -1.83301 -6.5 -5.5 -15.5s-9.16699 -18.167 -16.5 -27.5
c-9.33301 -13.333 -18.833 -26 -28.5 -38l-26 -33.5c-7.66699 -10.333 -14 -19.166 -19 -26.499s-7.5 -12.666 -7.5 -15.999c0 -2.66699 2.83301 -2.33398 8.5 0.999023s12.834 8.66602 21.501 15.999s18.167 16.333 28.5 27l30.5 33c2 0 3 -1.66699 3 -5
c0 -4.66699 -1.16699 -10.167 -3.5 -16.5s-5.16602 -11.166 -8.49902 -14.499l-12.5 -13c-6.33301 -6.66699 -13.5 -13.334 -21.5 -20.001s-16 -12.667 -24 -18s-14.667 -8 -20 -8c-9.33301 0 -16.666 1.66699 -21.999 5s-8 7.66602 -8 12.999
c0 1.33301 0.666992 3.33301 2 6c2 5.33301 8.5 15.833 19.5 31.5l35 49.5l33.5 47c10 14 15 21.667 15 23c0 3.33301 -1.66699 5 -5 5s-8.5 -1.66699 -15.5 -5s-14.667 -7.33301 -23 -12s-16.333 -9.66699 -24 -15s-13.5 -9.66602 -17.5 -12.999
c-12 -10 -23.667 -21.167 -35 -33.5s-21.666 -24.5 -30.999 -36.5s-17.333 -23.167 -24 -33.5s-11.334 -18.5 -14.001 -24.5c-1.33301 -2 -4.33301 -3.66699 -9 -5s-9.66699 -2 -15 -2c-6.66699 0 -10 2 -10 6c0 2 2.83301 7.33301 8.5 16s13.167 19 22.5 31l31 40.5
l34 43.5l32 40l25 31c26 33.333 53.167 65.666 81.5 96.999s58.833 62 91.5 92c2.66699 2.66699 7.33398 6.33398 14.001 11.001s13.334 7.33398 20.001 8.00098c3.33301 0.666992 6 -0.333008 8 -3s3 -5 3 -7c0 -6 -2.5 -13.333 -7.5 -22s-10.833 -17.334 -17.5 -26.001
s-13.5 -17 -20.5 -25s-12.833 -15 -17.5 -21zM276.996 389.002c-25.333 -21.333 -47.833 -44.832 -67.5 -70.499s-40.167 -50.834 -61.5 -75.501c26 20.667 49.5 43.167 70.5 67.5s40.5 50.5 58.5 78.5z" />
    <glyph glyph-name="i" unicode="i" horiz-adv-x="65" 
d="M109 197c-5.33301 -7.33301 -12.6709 -16.332 -22.0039 -26.999l-30.5 -35l-33 -38c-11 -12.667 -20.667 -24.5 -29 -35.5s-14.833 -20.667 -19.5 -29s-5.66699 -13.833 -3 -16.5s5.66699 -2.66699 9 0c0.666992 0 4.16699 2.66699 10.5 8l23 20l27.5 25
c9.33301 8.66699 17 16.667 23 24c2.66699 1.33301 4 0.666016 4 -2.00098s-0.666992 -6 -2 -10s-3.16602 -8.33301 -5.49902 -13s-4.83301 -8 -7.5 -10c-2 -2 -6.5 -6.16699 -13.5 -12.5s-14.667 -12.833 -23 -19.5s-16.833 -12.667 -25.5 -18s-15.667 -8 -21 -8
c-19.333 -0 -27.666 7.33301 -24.999 22c0.666992 2.66699 2.5 6.66699 5.5 12l9.5 16.5c3.33301 5.66699 6.66602 11 9.99902 16s6 8.5 8 10.5c3.33301 4.66699 9.5 12.834 18.5 24.501l28 37l28 36c9 11 15.167 17.833 18.5 20.5c2 2.66699 5.33301 4.66699 10 6
s9.33398 2.16602 14.001 2.49902s8.33398 0 11.001 -1s3.33398 -2.83301 2.00098 -5.5zM134.995 239.001c-3.33301 -5.33301 -8.83301 -10.832 -16.5 -16.499s-15.5 -11.167 -23.5 -16.5c-1.33301 -0.666992 -3.16602 -0.666992 -5.49902 0s-2.83301 1.66699 -1.5 3
c6.66699 7.33301 11.167 13.166 13.5 17.499l8.5 15.5c1.33301 2 2.33301 3.83301 3 5.5s1.66699 3.5 3 5.5c4 7.33301 9 9 15 5c3.33301 -1.33301 5.16602 -4.33301 5.49902 -9s-0.166992 -8 -1.5 -10z" />
    <glyph glyph-name="j" unicode="j" horiz-adv-x="61" 
d="M91 206c-0.666992 0 -1 -0.166992 -1 -0.5s-0.333008 -0.5 -1 -0.5c-3.33301 0 -5 1 -5 3c9.33301 12 16.5 23.667 21.5 35s10.167 17 15.5 17c3.33301 0 6 -1.5 8 -4.5s3 -6.16699 3 -9.5c0 -6.66699 -4.33301 -13.5 -13 -20.5s-18 -13.5 -28 -19.5zM445 -110
c-17.333 -2.66699 -37.3398 -5.17188 -60.0068 -7.50488s-53.667 -3.5 -93 -3.5c-28 0 -56.333 1 -85 3s-59.167 5 -91.5 9s-67.5 9.33301 -105.5 16s-80.333 14.667 -127 24c-0.666992 -1.33301 -5.16699 -5.5 -13.5 -12.5s-17.166 -15.167 -26.499 -24.5
c-16.667 -17.333 -35.167 -33.833 -55.5 -49.5s-45.166 -32.167 -74.499 -49.5c-5.33301 -3.33301 -16.333 -9.33301 -33 -18s-37.167 -17.5 -61.5 -26.5s-51.666 -17 -81.999 -24s-61.833 -10.5 -94.5 -10.5c-10 0 -23.833 0.833008 -41.5 2.5s-35 4.83398 -52 9.50098
s-31.833 11.5 -44.5 20.5s-19 20.833 -19 35.5c0 32 9.33301 59.333 28 82s43.334 41.5 74.001 56.5s65.5 26.667 104.5 35s78.667 14.166 119 17.499s79.666 4.33301 117.999 3s72.166 -4 101.499 -8c8 -2 17.5 -3.83301 28.5 -5.5s17.167 -2.16699 18.5 -1.5
c0.666992 0 7.33398 7.5 20.001 22.5l47.5 56.5l61.5 74.5l62 78.5c2 3.33301 5.66699 5.66602 11 6.99902s10.333 2 15 2c8.66699 0 13 -1.66699 13 -5c0 -0.666992 -0.166992 -1 -0.5 -1s-0.5 -0.333008 -0.5 -1l-63 -76c-21.333 -25.333 -41.666 -52.333 -60.999 -81
c-1.33301 -2.66699 -4.16602 -6.16699 -8.49902 -10.5s-6.5 -8.16602 -6.5 -11.499c0 -2.66699 1.66699 -4 5 -4h-1c0 0.666992 2.66699 2.83398 8 6.50098s12.333 8.83398 21 15.501s18.334 14.834 29.001 24.501s21.334 20.5 32.001 32.5c0.666992 0 1 0.166992 1 0.5
s0.333008 0.5 1 0.5c1.33301 0 2 -1.33301 2 -4c0 -3.33301 -1.66699 -8.66602 -5 -15.999s-6.66602 -12.666 -9.99902 -15.999c-2 -2 -6.5 -6.16699 -13.5 -12.5s-14.667 -12.833 -23 -19.5s-16.833 -12.667 -25.5 -18s-15.667 -8 -21 -8
c-9.33301 -0 -15.666 1.33301 -18.999 4l-27 -30.5c-8.66699 -9.66699 -13 -15.5 -13 -17.5c90 -19.333 180.333 -33.5 271 -42.5s183.667 -7.83301 279 3.5h1c3.33301 0.666992 6.16602 1 8.49902 1s4.5 0.333008 6.5 1c7.33301 0 10.666 -1.5 9.99902 -4.5
s-3.33398 -6.16699 -8.00098 -9.5s-10.167 -6.5 -16.5 -9.5s-11.166 -4.83301 -14.499 -5.5zM-145.007 -65.0049c1.33301 2 1.50098 2.33398 0.500977 1.00098s-1.16699 -1.33301 -0.5 0c-22.667 5.33301 -52 9.33301 -88 12s-74.5 3.16699 -115.5 1.5
s-82.333 -5.83398 -124 -12.501s-79.334 -16.5 -113.001 -29.5s-61 -29.5 -82 -49.5s-31.5 -44 -31.5 -72c0 -12.667 5.16699 -22.834 15.5 -30.501s23 -13.5 38 -17.5s30.5 -6.66699 46.5 -8s29.667 -2 41 -2c38.667 0 77 5.33301 115 16s74.5 25.334 109.5 44.001
s68.333 40.5 100 65.5s61.167 52.167 88.5 81.5z" />
    <glyph glyph-name="k" unicode="k" horiz-adv-x="165" 
d="M134 206c-5.33301 -4 -11.6748 -9.50098 -19.0078 -16.501l-25 -24.5c7.33301 5.33301 14.5 10 21.5 14s11.5 6.66699 13.5 8c10 5.33301 20.5 7.83301 31.5 7.5s17.833 -3.16602 20.5 -8.49902c2.66699 -4.66699 1.5 -11.834 -3.5 -21.501
s-11.167 -18.834 -18.5 -27.501c-10.667 -11.333 -20.667 -20.666 -30 -27.999s-14.333 -11.333 -15 -12c0 -0.666992 2.66699 -4.66699 8 -12c2 -3.33301 1.5 -7.33301 -1.5 -12s-6.16699 -8.66699 -9.5 -12c-1.33301 -2.66699 -4.16602 -6.33398 -8.49902 -11.001
s-8.16602 -9 -11.499 -13c0 -0.666992 -2.33301 -3.83398 -7 -9.50098s-6 -9.5 -4 -11.5s4.66699 -2 8 0c0.666992 0 4.16699 2.5 10.5 7.5s13.666 11.167 21.999 18.5l26 23c9 8 16.5 15.667 22.5 23c2.66699 1.33301 4 0.833008 4 -1.5s-0.666992 -5.5 -2 -9.5
s-3.16602 -8.16699 -5.49902 -12.5s-4.83301 -7.5 -7.5 -9.5c-2 -2 -6.33301 -6 -13 -12s-14 -12.167 -22 -18.5s-16.167 -12 -24.5 -17s-15.166 -7.5 -20.499 -7.5c-10 0 -16.667 2 -20 6s-4.33301 8.66699 -3 14c1.33301 9.33301 4.5 17.833 9.5 25.5
s11.167 15.5 18.5 23.5c2 1.33301 4 3 6 5s2.33301 4 1 6c-2 4 -6.33301 4.66699 -13 2c-5.33301 -1.33301 -10.166 -3 -14.499 -5l-13.5 -6c-3.33301 -1.33301 -6.33301 -2.16602 -9 -2.49902s-4.66699 1.16699 -6 4.5s-1 6 1 8s4.33301 3.66699 7 5l30 15
c13.333 6.66699 26.833 14.334 40.5 23.001s25.167 19.334 34.5 32.001c2.66699 3.33301 5 7.16602 7 11.499s1.66699 7.5 -1 9.5c-4.66699 3.33301 -9 4.16602 -13 2.49902s-7.66699 -3.83398 -11 -6.50098c-18.667 -11.333 -35 -22.666 -49 -33.999l-44 -36
c-17.333 -19.333 -32.5 -37.833 -45.5 -55.5s-21.5 -31.167 -25.5 -40.5c-1.33301 -2.66699 -3.66602 -5 -6.99902 -7s-6.66602 -0.666992 -9.99902 4c-3.33301 3.33301 -5.33301 7.33301 -6 12s0.666016 10 3.99902 16c6 10 15.5 23.333 28.5 40l41 51.5l40.5 50l28 34.5
c26 33.333 54.833 67 86.5 101s64.167 66 97.5 96c2 2.66699 6.33301 5.33398 13 8.00098c2.66699 1.33301 5.33398 2.33301 8.00098 3s5.66699 0 9 -2c3.33301 -3.33301 4.5 -6.5 3.5 -9.5s-2.16699 -6.16699 -3.5 -9.5c-7.33301 -15.333 -16.333 -29.666 -27 -42.999
l-32 -40c-15.333 -19.333 -31.166 -38 -47.499 -56s-34.166 -34.667 -53.499 -50zM277.991 388.999c-25.333 -21.333 -47.834 -44.832 -67.501 -70.499s-40.167 -50.834 -61.5 -75.501c26 20.667 49.333 43.167 70 67.5s40.334 50.5 59.001 78.5z" />
    <glyph glyph-name="l" unicode="l" horiz-adv-x="95" 
d="M222 312c-15.333 -19.333 -31.1689 -37.998 -47.502 -55.998s-34.166 -34.667 -53.499 -50c-20 -15.333 -37.333 -32.833 -52 -52.5l-45 -58.5c-3.33301 -4 -7.33301 -9.83301 -12 -17.5s-9 -15.667 -13 -24s-6.83301 -15.833 -8.5 -22.5s-1.16699 -11 1.5 -13
c4.66699 -4 12.167 -3 22.5 3s20.833 13.833 31.5 23.5s20.667 19.334 30 29.001s15.666 16.5 18.999 20.5c2.66699 1.33301 4.16699 0.666016 4.5 -2.00098s0 -6 -1 -10s-2.5 -8.33301 -4.5 -13s-4 -8 -6 -10c-4 -4 -9.66699 -9.33301 -17 -16
s-15.166 -13.167 -23.499 -19.5s-16.833 -11.833 -25.5 -16.5s-16.334 -7 -23.001 -7c-15.333 -0.666992 -26 3.16602 -32 11.499s-6.66699 20.166 -2 35.499c7.33301 22 20.5 47.333 39.5 76s39.833 57 62.5 85c26 33.333 54.167 66.166 84.5 98.499s61.833 63.5 94.5 93.5
c2 1.33301 4.83301 3.5 8.5 6.5s6.83398 5.16699 9.50098 6.5s5.33398 2.33301 8.00098 3s5.66699 0 9 -2c3.33301 -3.33301 4.5 -6.5 3.5 -9.5s-2.16699 -6.16699 -3.5 -9.5c-7.33301 -15.333 -16.333 -29.666 -27 -42.999zM264.997 389.002
c-25.333 -21.333 -47.834 -44.832 -67.501 -70.499s-40.167 -50.834 -61.5 -75.501c26 20.667 49.333 43.167 70 67.5s40.334 50.5 59.001 78.5z" />
    <glyph glyph-name="m" unicode="m" horiz-adv-x="235" 
d="M219 192c5.33301 1.33301 10.8271 2.00879 16.4941 2.00879s10.167 -2.66699 13.5 -8s4.16602 -11 2.49902 -17s-4.83398 -11.667 -9.50098 -17c-5.33301 -6 -9.83301 -11.833 -13.5 -17.5s-8.16699 -11.167 -13.5 -16.5l-35 -45.5l-25 -32.5
c-1.33301 -2 -4.16602 -6 -8.49902 -12s-5.83301 -9.66699 -4.5 -11c2 -2 4.33301 -2.33301 7 -1c4.66699 2.66699 10.334 6.83398 17.001 12.501l21.5 19c7.66699 7 15.334 14.5 23.001 22.5l22.5 24c2.66699 1.33301 4.33398 0.666016 5.00098 -2.00098s0.5 -6 -0.5 -10
s-2.5 -8.33301 -4.5 -13s-4.33301 -8 -7 -10s-7.66699 -6.33301 -15 -13s-15.5 -13.334 -24.5 -20.001s-17.833 -12.667 -26.5 -18s-16 -8 -22 -8c-18.667 0 -27 6.33301 -25 19c0 4 1.33301 7.66699 4 11c12.667 21.333 25.667 40.333 39 57s29.666 35.667 48.999 57
c2 2.66699 4.5 5.83398 7.5 9.50098s5.5 7.16699 7.5 10.5s3 6.16602 3 8.49902s-1.66699 3.83301 -5 4.5s-8 -0.833008 -14 -4.5s-12.5 -8.16699 -19.5 -13.5s-13.833 -10.833 -20.5 -16.5s-12 -9.83398 -16 -12.501c-19.333 -15.333 -36.166 -32 -50.499 -50
s-28.5 -38 -42.5 -60c-1.33301 -2 -3.66602 -6.16699 -6.99902 -12.5s-7 -8.83301 -11 -7.5c-3.33301 1.33301 -6.16602 4.5 -8.49902 9.5s-1.5 11.167 2.5 18.5c12 21.333 25 40.5 39 57.5s30.667 36.167 50 57.5l7.5 10c3 4 5.33301 7.66699 7 11s2.5 6.16602 2.5 8.49902
s-1.66699 3.83301 -5 4.5s-8 -0.833008 -14 -4.5s-12.5 -8.16699 -19.5 -13.5s-13.833 -10.833 -20.5 -16.5s-12 -9.83398 -16 -12.501c-14.667 -11.333 -29 -24.333 -43 -39l-30 -42l-19 -28l-6.5 -13.5c-3 -6.33301 -6.16699 -8.83301 -9.5 -7.5
c-4 1.33301 -7.16699 4.66602 -9.5 9.99902s-1.83301 11.666 1.5 18.999c6 10.667 14 23.667 24 39s20.833 31 32.5 47l34 46c11 14.667 20.167 26 27.5 34c2 2.66699 5.33301 4.66699 10 6s9.33398 2.16602 14.001 2.49902s8.33398 0 11.001 -1
s3.33398 -2.83301 2.00098 -5.5l-22.5 -27l-25.5 -31c4.66699 3.33301 10.334 7.66602 17.001 12.999s13.834 10.666 21.501 15.999l22.5 15c7.33301 4.66699 13.666 7.66699 18.999 9s10.666 2 15.999 2s9.66602 -2.66699 12.999 -8s4.33301 -11 3 -17
s-4.33301 -11.667 -9 -17l-1 -1c10 8 21 16.333 33 25s22.333 14 31 16z" />
    <glyph glyph-name="n" unicode="n" horiz-adv-x="149" 
d="M-30 21l-7.0127 -13.4951c-3.33301 -6.33301 -6.66602 -8.83301 -9.99902 -7.5c-4 1.33301 -7.16699 4.66602 -9.5 9.99902s-1.83301 11.666 1.5 18.999c4.66699 8.66699 11.834 20 21.501 34l30.5 43l31 42l23 31c2.66699 4 5 7.33301 7 10s3.66699 4.66699 5 6
c2 2.66699 5.33301 4.66699 10 6s9.33398 2.16602 14.001 2.49902s8.33398 0 11.001 -1s3.33398 -2.83301 2.00098 -5.5c-6 -6.66699 -13.167 -15.167 -21.5 -25.5l-24.5 -29.5c4.66699 3.33301 10.334 7.83301 17.001 13.5s13.5 11.167 20.5 16.5s14 10.166 21 14.499
s13.167 7.16602 18.5 8.49902s10.833 2 16.5 2s10.167 -2.66699 13.5 -8c6 -10.667 4 -22 -6 -34c-5.33301 -6 -10.166 -12.5 -14.499 -19.5s-9.16602 -13.5 -14.499 -19.5l-37.5 -48.5l-26.5 -35.5c-1.33301 -1.33301 -2.16602 -2.66602 -2.49902 -3.99902
s-1.16602 -2.66602 -2.49902 -3.99902l-2 -4v-4c2 -2 4.33301 -2 7 0c0.666992 0 4.33398 2.66699 11.001 8s14.5 12 23.5 20l28 25.5c9.66699 9 17.834 17.167 24.501 24.5c2.66699 1.33301 4.16699 0.666016 4.5 -2.00098s-0.166992 -6 -1.5 -10s-3 -8.33301 -5 -13
s-4.33301 -8 -7 -10c-2 -2 -6.66699 -6.33301 -14 -13s-15.333 -13.334 -24 -20.001s-17.5 -12.667 -26.5 -18s-16.167 -8 -21.5 -8c-20.667 0 -29 7.66699 -25 23h1c0 2.66699 1 5.66699 3 9c11.333 21.333 23.833 40.5 37.5 57.5l47.5 57.5
c2 2.66699 4.5 5.83398 7.5 9.50098s5.33301 7.16699 7 10.5s2.5 6.16602 2.5 8.49902s-1.33301 3.83301 -4 4.5c-3.33301 0.666992 -8.16602 -1 -14.499 -5s-13 -8.83301 -20 -14.5s-13.833 -11.5 -20.5 -17.5s-12 -10.333 -16 -13c-15.333 -12 -29.333 -25 -42 -39
l-29.5 -42c-9 -12.667 -15.167 -22 -18.5 -28z" />
    <glyph glyph-name="o" unicode="o" horiz-adv-x="144" 
d="M18 9c-11.333 -6.66699 -22.668 -9.66992 -34.001 -9.00293s-19 6.33398 -23 17.001v1c-2 9.33301 0.333008 21.833 7 37.5s15.834 31.834 27.501 48.501s24.334 32.5 38.001 47.5s26.167 26.167 37.5 33.5c5.33301 3.33301 10.5 6 15.5 8s10.167 3.33301 15.5 4
c12 1.33301 21.167 -1.16699 27.5 -7.5s8.5 -15.5 6.5 -27.5c-1.33301 -5.33301 -2.33301 -9.5 -3 -12.5s-1 -5.83301 -1 -8.5c8 -0.666992 16 -0.833984 24 -0.500977s15.667 1.5 23 3.5c2.66699 0 3.66699 -1.16699 3 -3.5s-2.16699 -4.66602 -4.5 -6.99902
s-5.33301 -4.66602 -9 -6.99902s-7.5 -3.83301 -11.5 -4.5c-3.33301 -0.666992 -7.66602 -1 -12.999 -1h-16c-0.666992 -0.666992 -2.83398 -3.5 -6.50098 -8.5s-6.83398 -9.16699 -9.50098 -12.5c-13.333 -18 -27.5 -34.833 -42.5 -50.5s-32.167 -29.167 -51.5 -40.5z
M81.998 166.997c-2.66699 -2.66699 -4.66504 -5 -5.99805 -7c7.33301 -6 17.666 -10.667 30.999 -14c1.33301 3.33301 3.5 6.33301 6.5 9s5.83301 3.66699 8.5 3c0.666992 0 1 3.16699 1 9.5s-1.66699 10.833 -5 13.5s-7 3.5 -11 2.5s-7.83301 -2.66699 -11.5 -5
s-6.83398 -4.83301 -9.50098 -7.5zM-7 36.9971c-1.33301 -2.66699 -2.16699 -5.16406 -2.5 -7.49707s0.5 -4.5 2.5 -6.5c4 -3.33301 9 -4.33301 15 -3c8 2 17 6.66699 27 14s19.5 15.833 28.5 25.5s17.167 19.167 24.5 28.5s12.666 17 15.999 23
c0.666992 1.33301 -0.166016 3 -2.49902 5s-2.83301 5.66699 -1.5 11c-17.333 5.33301 -28.333 12.666 -33 21.999l-23.5 -30.5c-8.33301 -11 -16 -21.833 -23 -32.5s-13 -20.334 -18 -29.001s-8.16699 -15.334 -9.5 -20.001z" />
    <glyph glyph-name="p" unicode="p" horiz-adv-x="152" 
d="M139 176c-1.33301 0.666992 -4.17188 -0.496094 -8.50488 -3.49609s-9.16602 -7 -14.499 -12s-10.666 -10.5 -15.999 -16.5l-14 -16l-37 -46l-52.5 -66l-58.5 -73.5l-55.5 -68.5l-43 -52c-11.667 -14 -18.834 -21.667 -21.501 -23c-6 -4 -12.5 -6.83301 -19.5 -8.5
s-13.167 0.5 -18.5 6.5c-4.66699 5.33301 -6.16699 11.166 -4.5 17.499s4.5 12.5 8.5 18.5c2.66699 4 10.334 14.167 23.001 30.5l45.5 58.5l56.5 72.5l57 72.5c8.66699 10 17.667 21.333 27 34l27.5 37l25.5 33.5c8 10.333 14.667 18.166 20 23.499
c2.66699 2.66699 6.33398 4.66699 11.001 6s9.16699 2.16602 13.5 2.49902s7.83301 0 10.5 -1s3.33398 -2.83301 2.00098 -5.5l-28 -33.5l-30 -36.5l-54 -70l-58.5 -74.5l-52.5 -68c-16 -21 -28 -37.5 -36 -49.5c-2 -3.33301 -2.5 -5.5 -1.5 -6.5s2.83301 0.166992 5.5 3.5
c5.33301 6 14.666 17.333 27.999 34l45.5 57l54 67.5l54.5 67.5l46 55.5c13.333 15.667 23 26.167 29 31.5l5.5 5c3.66699 3.33301 8.16699 6.33301 13.5 9s11.5 4.5 18.5 5.5s13.833 -0.5 20.5 -4.5c7.33301 -4 9.33301 -11.333 6 -22
c-0.666992 -0.666992 -3.33398 -4.16699 -8.00098 -10.5l-18 -24l-24 -31l-25 -31.5l-20.5 -26.5c-5.66699 -7.66699 -9.16699 -12.5 -10.5 -14.5l-4.5 -6.5c-1.66699 -2.33301 -1.5 -4.83301 0.5 -7.5c1.33301 -1.33301 2.33301 -2 3 -2s1.66699 0.666992 3 2
c0.666992 0 4.33398 2.66699 11.001 8s14.5 12 23.5 20l28 25.5c9.66699 9 17.834 17.167 24.501 24.5c2.66699 1.33301 4 0.666016 4 -2.00098s-0.666992 -6 -2 -10s-3.16602 -8.33301 -5.49902 -13s-4.83301 -8 -7.5 -10l-13.5 -13
c-7 -6.66699 -14.833 -13.334 -23.5 -20.001s-17.167 -12.667 -25.5 -18s-15.5 -8 -21.5 -8c-20.667 0 -29 7.66699 -25 23c0 0.666992 2.83301 4.83398 8.5 12.501l20.5 28.5l26 36.5l26 36c8 11 14.5 20.333 19.5 28s7.16699 11.5 6.5 11.5z" />
    <glyph glyph-name="q" unicode="q" horiz-adv-x="151" 
d="M575 -81c2 0 3.33789 -0.333008 4.00488 -1l-1 -2l-3.5 -4c-2.33301 -2.66699 -5.33301 -5.5 -9 -8.5s-8 -5.83301 -13 -8.5s-10.167 -4.33398 -15.5 -5.00098l-4 -1c-8 -1.33301 -16.333 -2.5 -25 -3.5s-18.834 -2 -30.501 -3s-25.167 -1.83301 -40.5 -2.5
s-33 -1 -53 -1c-28.667 0 -56.334 1 -83.001 3s-55.167 5.16699 -85.5 9.5s-64.166 10 -101.499 17l-131 25.5c-2 -1.33301 -7.83301 -6 -17.5 -14s-18.834 -16.667 -27.501 -26c-16.667 -17.333 -35.167 -33.833 -55.5 -49.5s-45.166 -32.167 -74.499 -49.5
c-5.33301 -3.33301 -16.666 -9.33301 -33.999 -18s-38.333 -17.5 -63 -26.5s-52.334 -17 -83.001 -24s-62.334 -10.5 -95.001 -10.5c-15.333 0 -32 1.16699 -50 3.5s-34.667 6.16602 -50 11.499s-28.166 12.333 -38.499 21s-15.5 19.667 -15.5 33
c0 32.667 10.5 60.834 31.5 84.501s48.167 43.167 81.5 58.5s70.666 27.166 111.999 35.499s82.333 14 123 17s78.5 3.33301 113.5 1s63.167 -6.16602 84.5 -11.499c6 -1.33301 14.5 -3 25.5 -5s19.167 -3 24.5 -3l1 2c0.666992 1.33301 2.33398 3.66602 5.00098 6.99902
s6.66699 8 12 14s12.666 13.667 21.999 23c-10.667 -5.33301 -20 -8 -28 -8c-7.33301 0 -13.666 2 -18.999 6s-8 10.667 -8 20c0 15.333 5.66699 32.833 17 52.5s25 38.334 41 56.001s32.167 32.5 48.5 44.5s29.5 18 39.5 18c20 0 30 -8.66699 30 -26v-6.5
c0 -3 -0.666992 -5.16699 -2 -6.5c7.33301 9.33301 13 17 17 23s7.66699 10.667 11 14s7 5.5 11 6.5s9.33301 1.5 16 1.5c7.33301 0 11 -1.33301 11 -4c0 -1.33301 -2.16699 -4.66602 -6.5 -9.99902s-9.33301 -11.166 -15 -17.499l-17 -19.5
c-5.66699 -6.66699 -9.83398 -12 -12.501 -16c4 1.33301 6.66699 2.16602 8 2.49902s2.66602 0.5 3.99902 0.5c2 0 3 -1 3 -3c0 -6.66699 -2 -11 -6 -13s-8.33301 -3 -13 -3c-4 0 -6.66699 0.333008 -8 1l-36.5 -45l-44.5 -52.5l-37.5 -45
c-10.333 -13 -15.5 -20.5 -15.5 -22.5l165 -30.5c53.333 -9.66699 101.333 -15.5 144 -17.5l46 -2c30 0 61.167 0.5 93.5 1.5s65.166 4.16699 98.499 9.5h1c5.33301 1.33301 10.166 2 14.499 2h9.5zM7.00488 20c8.66699 2 17.333 6.5 26 13.5s17.167 15.167 25.5 24.5
s16.333 19.333 24 30l22.5 30c-1.33301 2 -2.66602 4.66699 -3.99902 8s-2 6.66602 -2 9.99902c0 6 1.16699 10.167 3.5 12.5s5 4 8 5s5.83301 2.33301 8.5 4s4 4.83398 4 9.50098c0 4 -1.16699 7.66699 -3.5 11s-5.5 5 -9.5 5c-9.33301 0 -20.833 -7.5 -34.5 -22.5
s-26.834 -31.833 -39.501 -50.5s-23.5 -36.167 -32.5 -52.5s-13.5 -25.833 -13.5 -28.5c0 -3.33301 1.33301 -5.83301 4 -7.5s5 -2.5 7 -2.5c1.33301 0 2.33301 0.166992 3 0.5s1.66699 0.5 3 0.5zM-51.9961 -68c1.33301 1.33301 2.33203 2.50098 2.99902 3.50098
s1.33398 2.16699 2.00098 3.5c-32 7.33301 -62.167 12.5 -90.5 15.5s-60.5 4.5 -96.5 4.5c-17.333 0 -38.5 -1 -63.5 -3s-51.167 -5.33301 -78.5 -10s-54.5 -11.167 -81.5 -19.5s-51.333 -19 -73 -32s-39.334 -28.333 -53.001 -46s-20.5 -38.5 -20.5 -62.5
c0 -12.667 5 -22.834 15 -30.501s22 -13.5 36 -17.5s28.833 -6.66699 44.5 -8s29.167 -2 40.5 -2c38.667 0 76.834 5.16699 114.501 15.5s74.334 24.5 110.001 42.5s69.667 39.5 102 64.5s62.166 52.167 89.499 81.5z" />
    <glyph glyph-name="r" unicode="r" horiz-adv-x="111" 
d="M112 206c-6 -3.33301 -8.50293 -5.82812 -7.50293 -7.49512s4.16699 -4.83398 9.5 -9.50098s8.83301 -10.167 10.5 -16.5s-0.833008 -13.166 -7.5 -20.499l-25 -31.5l-29.5 -36.5l-26.5 -33c-8 -10 -13.333 -17 -16 -21c-1.33301 -2.66699 -2.16602 -4.5 -2.49902 -5.5
s-0.166016 -2.83301 0.500977 -5.5c2 -2.66699 4.83301 -3.33398 8.5 -2.00098s6.16699 2.33301 7.5 3c0.666992 0.666992 4 3.33398 10 8.00098l21.5 17.5c8.33301 7 17 14.667 26 23s16.833 16.166 23.5 23.499c2.66699 1.33301 4 0.666016 4 -2.00098
s-0.833008 -6 -2.5 -10s-3.66699 -8.33301 -6 -13s-4.83301 -8 -7.5 -10c-2 -2 -6.66699 -6.33301 -14 -13s-15.333 -13.334 -24 -20.001s-17.334 -12.667 -26.001 -18s-16 -8 -22 -8c-10 0 -16.5 1.83301 -19.5 5.5s-4.5 9.5 -4.5 17.5c0 8.66699 4.33301 19.334 13 32.001
s18.667 25.667 30 39l33 38.5c10.667 12.333 18.334 22.5 23.001 30.5c1.33301 1.33301 2.33301 3 3 5s0 3.66699 -2 5s-3.33301 1.5 -4 0.5s-1.66699 -2.16699 -3 -3.5l-20 -22.5l-26.5 -30.5l-25 -29.5c-7.66699 -9 -12.5 -15.5 -14.5 -19.5
c-5.33301 -4 -8.66602 -3.16699 -9.99902 2.5s0.333984 11.167 5.00098 16.5c1.33301 2 5.66602 7.5 12.999 16.5l23.5 29l23 28c7 8.33301 10.833 13.166 11.5 14.499c6 8 8 16 6 24c-2 7.33301 -2 15 0 23s5.66699 15.667 11 23c2 3.33301 4.66699 7.16602 8 11.499
s7.16602 8.16602 11.499 11.499s8.83301 5.5 13.5 6.5s9.33398 0.166992 14.001 -2.5c6.66699 -4 9.16699 -10.5 7.5 -19.5s-3.83398 -16.167 -6.50098 -21.5c-5.33301 -10 -11.666 -17.667 -18.999 -23zM97.9971 212.005c3.33301 2 7.66895 6.83203 13.002 14.499
s7.66602 14.167 6.99902 19.5c0 3.33301 -1.16699 5 -3.5 5s-4.5 -1 -6.5 -3c-5.33301 -4.66699 -9.83301 -9.66699 -13.5 -15s-5.5 -11.666 -5.5 -18.999c0 -2.66699 1.16699 -4 3.5 -4s4.16602 0.666992 5.49902 2z" />
    <glyph glyph-name="s" unicode="s" horiz-adv-x="151" 
d="M118 242c2.66699 -7.33301 2.33203 -17.1709 -1.00098 -29.5039s-11 -22.5 -23 -30.5c2.66699 -6 5.16699 -14.833 7.5 -26.5s4 -24.167 5 -37.5s0.666992 -27 -1 -41s-5 -26.833 -10 -38.5s-12.167 -21 -21.5 -28s-21.666 -10.5 -36.999 -10.5c-8 0 -14 3.33301 -18 10
s-6.5 14.5 -7.5 23.5s-0.333008 18.5 2 28.5s5.83301 18.667 10.5 26c4 4 6.66699 5.66699 8 5c2.66699 -1.33301 4.83398 -4.66602 6.50098 -9.99902s2.16699 -10.333 1.5 -15c-2 -2 -4.16699 -6.16699 -6.5 -12.5s-4.16602 -12.833 -5.49902 -19.5s-1.33301 -12.5 0 -17.5
s5 -7.16699 11 -6.5c16 2 26.833 9.5 32.5 22.5s8.83398 27.333 9.50098 43s-0.333008 30.334 -3 44.001s-5 22.167 -7 25.5c-0.666992 1.33301 -4.16699 -1.33398 -10.5 -8.00098s-13.5 -14.834 -21.5 -24.501l-23 -28l-15 -18.5c-5.33301 -8 -8.5 -8.66699 -9.5 -2
s0.833008 14.334 5.5 23.001c10.667 13.333 20.5 24.833 29.5 34.5s19.167 21.834 30.5 36.501l8.5 13.5c2.33301 3.66699 3.16602 6.83398 2.49902 9.50098c-2.66699 5.33301 -3.83398 11.833 -3.50098 19.5s2 15.334 5 23.001s6.83301 14.334 11.5 20.001
s10 9.16699 16 10.5c5.33301 1.33301 9.66602 0.666016 12.999 -2.00098s6 -6.66699 8 -12zM89.998 196.995c3.33301 2 6.83105 6.5 10.498 13.5s4.83398 13.167 3.50098 18.5c-0.666992 2.66699 -1.83398 4.33398 -3.50098 5.00098s-3.16699 0.333984 -4.5 -0.999023
c-5.33301 -2.66699 -9.16602 -7.33398 -11.499 -14.001s-3.16602 -13.334 -2.49902 -20.001c0 -2.66699 1 -4 3 -4s3.66699 0.666992 5 2z" />
    <glyph glyph-name="t" unicode="t" horiz-adv-x="85" 
d="M171 256c-16 -18 -33.6631 -34.666 -52.9961 -49.999c-20 -15.333 -37.333 -32.833 -52 -52.5l-45 -58.5c-3.33301 -4 -7.33301 -9.83301 -12 -17.5s-8.83398 -15.667 -12.501 -24s-6.5 -15.833 -8.5 -22.5s-1.66699 -11 1 -13c4 -3.33301 7 -4.5 9 -3.5
s5.33301 3.16699 10 6.5c0.666992 0 4 2.66699 10 8l21 19.5l24.5 24c8.33301 8.33301 15.166 15.5 20.499 21.5c2.66699 1.33301 4 0.666016 4 -2.00098s-0.5 -6 -1.5 -10s-2.66699 -8.33301 -5 -13s-4.5 -8 -6.5 -10c-1.33301 -1.33301 -4.33301 -4 -9 -8l-16 -14
l-17.5 -15.5c-5.66699 -5 -9.83398 -8.5 -12.501 -10.5c-6 -4.66699 -10.833 -7.66699 -14.5 -9s-6.16699 -2 -7.5 -2h-1c-16 -0.666992 -26.833 3.16602 -32.5 11.499s-6.16699 20.166 -1.5 35.499c6.66699 22 19.667 47.333 39 76s40 57 62 85l19.5 24
c6.33301 8 13.166 16 20.499 24h-29c-4 0.666992 -8 0.833984 -12 0.500977s-7.66699 -0.5 -11 -0.5c-4 1.33301 -5.33301 3.83301 -4 7.5s4.66602 5.5 9.99902 5.5h57c20 22.667 40.833 45 62.5 67s43.834 43.333 66.501 64c1.33301 1.33301 3.83301 3.5 7.5 6.5
s6.83398 5.16699 9.50098 6.5s5.5 2.33301 8.5 3s5.83301 0 8.5 -2c3.33301 -3.33301 4.5 -6.5 3.5 -9.5s-2.16699 -6.16699 -3.5 -9.5c-7.33301 -15.333 -16.333 -29.666 -27 -42.999l-32 -40l-17.5 -21.5c-5.66699 -7 -11.834 -14.167 -18.501 -21.5
c12.667 0.666992 23.5 1 32.5 1h15.5c6 -1.33301 7.5 -4 4.5 -8s-7.83301 -6 -14.5 -6h-50zM133.004 243.001c3.33301 2 6.16699 4.16699 8.5 6.5s4.83301 4.5 7.5 6.5h-4c-2 -2 -4 -4.16699 -6 -6.5s-4 -4.5 -6 -6.5zM262.005 389.001
c-20.667 -17.333 -39.333 -36.332 -56 -56.999l-51 -63h9c18.667 18 36 37.167 52 57.5s31.333 41.166 46 62.499z" />
    <glyph glyph-name="u" unicode="u" horiz-adv-x="156" 
d="M155 195c2 2 5.3291 3.83008 9.99609 5.49707s9.33398 2.66699 14.001 3s8.33398 0 11.001 -1s3.33398 -2.83301 2.00098 -5.5c-4 -5.33301 -8 -10 -12 -14l-23.5 -30l-35 -44.5l-35.5 -45c-11.333 -14.333 -19.666 -25.166 -24.999 -32.499
c-1.33301 -2 -3.16602 -4.33301 -5.49902 -7s-2.5 -5 -0.5 -7c2 -3.33301 5 -3.66602 9 -0.999023c0.666992 0 4.5 2.66699 11.5 8s15.167 12 24.5 20l29 25.5c10 9 18.333 17.167 25 24.5c2.66699 1.33301 4 0.666016 4 -2.00098s-0.833008 -6 -2.5 -10
s-3.83398 -8.33301 -6.50098 -13s-5.33398 -8 -8.00098 -10c-2 -2 -6.66699 -6.33301 -14 -13s-15.5 -13.334 -24.5 -20.001s-17.833 -12.667 -26.5 -18s-16 -8 -22 -8c-20 0 -28 7.66699 -24 23c0.666992 0.666992 1.66699 2.33398 3 5.00098s3.33301 5.66699 6 9
c-12.667 -8.66699 -26.167 -17 -40.5 -25s-25.166 -12 -32.499 -12c-21.333 0 -29.333 7.66699 -24 23c2.66699 8.66699 9.5 21.334 20.5 38.001s23.167 33.667 36.5 51l39.5 49.5c13 15.667 22.833 26.834 29.5 33.501c2 2 5.33301 3.83301 10 5.5
s9.33398 2.66699 14.001 3s8.5 0 11.5 -1s3.83301 -2.83301 2.5 -5.5c-24.667 -24.667 -46.667 -50.667 -66 -78l-61 -84l-4.5 -6.5c-1.66699 -2.33301 -1.83398 -4.83301 -0.500977 -7.5c2 -2 5.33301 -2 10 0c0.666992 0 4 2 10 6l21.5 15l27 19.5
c9.66699 7 18.5 14.167 26.5 21.5c15.333 18 30 36.333 44 55z" />
    <glyph glyph-name="v" unicode="v" horiz-adv-x="128" 
d="M176 188c-11.333 -3.33301 -26.001 -12.999 -44.001 -28.999s-36.667 -33.667 -56 -53l-55.5 -57c-17.667 -18.667 -31.834 -32.334 -42.501 -41.001c-12 -10 -22.667 -11 -32 -3c-5.33301 4.66699 -7 9.66699 -5 15s4.66699 10.333 8 15l55.5 82.5
c19.667 29.667 38.834 55.5 57.501 77.5c2 2.66699 5.33301 4.66699 10 6s9.33398 2.16602 14.001 2.49902s8.5 0 11.5 -1s3.83301 -2.83301 2.5 -5.5l-28.5 -34.5l-29.5 -36.5c-8 -12 -16.667 -24.333 -26 -37l-25 -34l-18 -25c-4.66699 -6.66699 -6 -10 -4 -10
s9.5 6.83301 22.5 20.5l44.5 47.5l50 53c16.667 17.333 29.667 29.333 39 36l19 14.5c7.33301 5.66699 14 8.5 20 8.5c3.33301 0 7 -1.66699 11 -5s4.33301 -5.66602 1 -6.99902z" />
    <glyph glyph-name="w" unicode="w" horiz-adv-x="210" 
d="M208 177c14 10 25.0029 16.0029 33.0029 18.0029s13.5 2 16.5 0s3.66699 -5 2 -9s-5.5 -7 -11.5 -9c-11.333 -4 -25.5 -13.333 -42.5 -28s-34.667 -31 -53 -49l-52.5 -53c-16.667 -17.333 -30.334 -30.333 -41.001 -39c-5.33301 -4.66699 -9.33301 -7.33398 -12 -8.00098
s-6.66699 1 -12 5c-5.33301 4.66699 -6.83301 9.66699 -4.5 15s5.16602 10.333 8.49902 15c6 9.33301 14 23 24 41s20.333 35.667 31 53l-35 -35.5l-34 -35l-29 -30c-8.66699 -9 -16 -15.833 -22 -20.5c-5.33301 -4.66699 -9.33301 -7.33398 -12 -8.00098s-6.66699 1 -12 5
c-5.33301 4.66699 -7.66602 9.66699 -6.99902 15s2.66699 10.333 6 15l26.5 39.5l31 45.5l30 43c9.66699 13.333 17.167 24 22.5 32c2 2.66699 5.5 4.66699 10.5 6s10 2.16602 15 2.49902s9.33301 0 13 -1s4.83398 -2.83301 3.50098 -5.5
c-8 -8.66699 -18.833 -21.5 -32.5 -38.5s-27.167 -34.667 -40.5 -53l-36.5 -50.5c-11 -15.333 -17.833 -26 -20.5 -32c6.66699 6.66699 17 17.667 31 33l45.5 49.5l47.5 50c15.333 15.667 27.666 26.834 36.999 33.501c4 3.33301 9 5 15 5
c5.33301 1.33301 9.5 1.16602 12.5 -0.500977s2.83301 -6.16699 -0.5 -13.5c-6 -12 -14.5 -26.333 -25.5 -43l-33.5 -49l-30 -42.5c-8.66699 -12.333 -13.334 -19.833 -14.001 -22.5l30 31.5l42.5 45.5l44 45.5c14.333 14.333 26.166 24.833 35.499 31.5z" />
    <glyph glyph-name="x" unicode="x" horiz-adv-x="170" 
d="M38 57c-24 -28 -42.6709 -45.3359 -56.0039 -52.0029c-5.33301 -3.33301 -10.666 -5 -15.999 -5c-5.33301 -0.666992 -10.333 0.333008 -15 3s-7.33398 6.33398 -8.00098 11.001c0 2.66699 1.5 7.66699 4.5 15s7.33301 15.333 13 24s11.834 16.834 18.501 24.501
s13.334 13.167 20.001 16.5c6 2.66699 9.33301 0.666992 10 -6c0 -8 -3.66699 -14.333 -11 -19c-1.33301 -1.33301 -3.66602 -4 -6.99902 -8s-6.66602 -8.33301 -9.99902 -13s-6.16602 -9.16699 -8.49902 -13.5s-3.5 -7.16602 -3.5 -8.49902c0 -2 1 -3 3 -3
c4 0 7.33301 1.33301 10 4c4.66699 3.33301 11.334 9.33301 20.001 18s19 20 31 34c-1.33301 11.333 -3 23.666 -5 36.999s-1.33301 32 2 56c0.666992 3.33301 2.83398 7.5 6.50098 12.5s7.5 9.5 11.5 13.5s7.66699 6.83301 11 8.5s5 1.16699 5 -1.5
c-5.33301 -15.333 -8.5 -31.166 -9.5 -47.499s-0.166992 -33.166 2.5 -50.499l20 24l16 20c7.33301 9.33301 14.333 17.666 21 24.999s15 14.666 25 21.999c2.66699 2 5.66699 3.5 9 4.5s6.66602 1.83301 9.99902 2.5c6.66699 0 11.667 -2 15 -6
c1.33301 -1.33301 2 -2.33301 2 -3c3.33301 -6.66699 3 -16.167 -1 -28.5s-11.667 -24.166 -23 -35.499c-4 -4 -9 -7.66699 -15 -11s-11.667 -5.33301 -17 -6c-5.33301 0 -9 0.5 -11 1.5s-2.66699 4.5 -2 10.5c0.666992 4 2.16699 6.5 4.5 7.5s4.16602 1.5 5.49902 1.5
c6.66699 1.33301 12.167 4 16.5 8s7.83301 7.66699 10.5 11c4.66699 6 7.66699 14.667 9 26c-2.66699 0 -6.33398 -1.66699 -11.001 -5c-16.667 -14 -31 -29.333 -43 -46s-25 -33.667 -39 -51c0.666992 -4 1.66699 -8.83301 3 -14.5s3 -11.5 5 -17.5s4.66699 -11.5 8 -16.5
s7.33301 -8.5 12 -10.5c4 -2 9.83301 0 17.5 6s15.667 13.333 24 22s16.166 17.5 23.499 26.5l17 20.5c2.66699 1.33301 4.16699 0.666016 4.5 -2.00098s0 -6 -1 -10s-2.5 -8.33301 -4.5 -13s-4 -8 -6 -10c-6 -6 -12.167 -12.5 -18.5 -19.5s-12.666 -13.5 -18.999 -19.5
s-12.833 -11 -19.5 -15s-13 -6 -19 -6c-15.333 0.666992 -26.5 7.33398 -33.5 20.001s-11.833 25 -14.5 37z" />
    <glyph glyph-name="y" unicode="y" horiz-adv-x="149" 
d="M49 0c-7.33301 0 -13.001 1.00293 -17.001 3.00293l-31.5 -40l-43 -50.5c-15.667 -17.667 -31.834 -35 -48.501 -52s-32.667 -31.5 -48 -43.5c-10 -8 -20.667 -14.833 -32 -20.5s-22 -9.16699 -32 -10.5c-10.667 -1.33301 -18.334 0.333984 -23.001 5.00098
c-6.66699 6.66699 -7.66699 14.667 -3 24c7.33301 19.333 19.333 38.166 36 56.499s35.334 35.333 56.001 51s42 30.167 64 43.5s42 24.666 60 33.999c19.333 10.667 34 22.334 44 35.001l-39 -23.5c-13.333 -7.66699 -23.666 -11.5 -30.999 -11.5
c-21.333 0 -29.333 7.66699 -24 23c0.666992 1.33301 3.83398 6.16602 9.50098 14.499l21.5 30.5l28 39l29 39l24 31.5c6.66699 9 11.334 14.833 14.001 17.5c2 2 5.33301 3.83301 10 5.5s9.33398 2.66699 14.001 3s8.5 0 11.5 -1s3.83301 -2.83301 2.5 -5.5
c-22.667 -22.667 -44.167 -47.5 -64.5 -74.5s-39.833 -54.5 -58.5 -82.5c-1.33301 -2 -3 -4.33301 -5 -7s-2 -5 0 -7c2.66699 -2.66699 5.66699 -2.66699 9 0c0.666992 0 3.83398 1.83301 9.50098 5.5l21 13.5c8.33301 5.33301 17.166 11.333 26.499 18
s17.666 13.334 24.999 20.001c14.667 17.333 29 36 43 56s28.333 38.667 43 56c2 2.66699 5.33301 4.66699 10 6s9.33398 2.16602 14.001 2.49902s8.5 0 11.5 -1s3.83301 -2.83301 2.5 -5.5c-20.667 -25.333 -41.167 -51.833 -61.5 -79.5s-43.833 -56.5 -70.5 -86.5l-4.5 -7
c-1.66699 -2.66699 -1.83398 -5 -0.500977 -7c2 -2 5.33301 -2 10 0c0.666992 0 4.33398 2.66699 11.001 8l23.5 19.5l28.5 25c10 9 18.333 17.167 25 24.5c2.66699 1.33301 4 0.666016 4 -2.00098s-0.833008 -6 -2.5 -10s-3.83398 -8.33301 -6.50098 -13
s-5.33398 -8 -8.00098 -10c-2 -2 -6.66699 -6.33301 -14 -13s-15.5 -13.334 -24.5 -20.001s-17.833 -12.667 -26.5 -18s-16 -8 -22 -8zM-155.001 -169.997l66.502 64.999c22.333 22.667 42.5 48 60.5 76c-3.33301 1.33301 -6.16602 1.5 -8.49902 0.5
s-4.16602 -2.16699 -5.49902 -3.5l-69 -47.5c-22.667 -16.333 -43.334 -34.166 -62.001 -53.499c-7.33301 -8 -14.333 -16.167 -21 -24.5s-12.334 -17.833 -17.001 -28.5c-1.33301 -2.66699 -2.33301 -5.33398 -3 -8.00098s0.333008 -4.66699 3 -6
s6.5 -1.16602 11.5 0.500977s10.167 4.16699 15.5 7.5s10.666 7 15.999 11s9.66602 7.66699 12.999 11z" />
    <glyph glyph-name="z" unicode="z" horiz-adv-x="163" 
d="M619 -38c2.66699 0 4.00488 -0.331055 4.00488 -0.998047v-2c-4 -6 -8.33301 -11.333 -13 -16c-4 -4 -8.5 -7.66699 -13.5 -11s-9.83301 -5.33301 -14.5 -6l-4 -1c-15.333 -2 -34.166 -4.16699 -56.499 -6.5s-53.5 -3.5 -93.5 -3.5c-28.667 0 -56.167 1 -82.5 3
s-54.5 5.16699 -84.5 9.5s-63.833 10 -101.5 17l-132.5 25.5c-7.33301 -3.33301 -14.5 -8.5 -21.5 -15.5l-24.5 -24.5c-16.667 -17.333 -35 -33.833 -55 -49.5s-44.667 -32.167 -74 -49.5c-5.33301 -3.33301 -16.666 -9.33301 -33.999 -18s-38.333 -17.5 -63 -26.5
s-52.334 -17 -83.001 -24s-62.334 -10.5 -95.001 -10.5c-15.333 0 -32 1.16699 -50 3.5s-34.667 6.16602 -50 11.499s-28.166 12.333 -38.499 21s-15.5 19.667 -15.5 33c0 33.333 10.833 61.5 32.5 84.5s49.667 41.833 84 56.5s72.5 25.834 114.5 33.501
s83.167 12.667 123.5 15s77.666 2.66602 111.999 0.999023s60.833 -4.16699 79.5 -7.5c6 -1.33301 12.333 -2.33301 19 -3s12.667 -1 18 -1c3.33301 0 7 0.666992 11 2c2.66699 0.666992 6.66699 3.83398 12 9.50098s10.833 12 16.5 19l16 20.5
c5 6.66699 8.5 11.667 10.5 15c-9.33301 -0.666992 -16.333 0.833008 -21 4.5s-7 7.5 -7 11.5c0 2.66699 1.5 9 4.5 19s12.833 25.667 29.5 47c0.666992 0.666992 2.66699 3.5 6 8.5s5 9.16699 5 12.5s-1.33301 5 -4 5c-2 0 -7.33301 -5.83301 -16 -17.5l-29 -39
c-10.667 -14.333 -21.5 -27.333 -32.5 -39s-19.5 -17.5 -25.5 -17.5c-4 0 -6 2.33301 -6 7c0 1.33301 0.333008 2.16602 1 2.49902s2 1.83301 4 4.5c23.333 24.667 39.666 44 48.999 58s16.333 23.667 21 29l9.5 13.5c3 4.33301 4.5 9.16602 4.5 14.499
c0 4 -0.666992 8 -2 12s-2 8.66699 -2 14c0 6.66699 1 13.667 3 21s5 14 9 20s8.66699 11 14 15s11 6 17 6c6.66699 0 11.5 -2.83301 14.5 -8.5s4.5 -12.5 4.5 -20.5c0 -5.33301 -1.33301 -10.833 -4 -16.5s-5.83398 -10.667 -9.50098 -15l-9.5 -11.5l-4 -5
c0 -0.666992 1.16699 -2 3.5 -4s4.83301 -4.33301 7.5 -7s5.16699 -5.66699 7.5 -9s3.5 -7 3.5 -11c0 -2.66699 -0.333008 -5.5 -1 -8.5s-2 -5.5 -4 -7.5l-28.5 -40.5c-6.33301 -9 -9.5 -16.167 -9.5 -21.5c0 -1.33301 0.666992 -2.66602 2 -3.99902s2.66602 -2 3.99902 -2
s2.66602 1 3.99902 3s3 4 5 6s4.66699 4 8 6s8 3 14 3c2 0 4 -0.5 6 -1.5s3 -2.83301 3 -5.5c0 -6 -2.83301 -13 -8.5 -21s-11.667 -15.833 -18 -23.5l-18 -21.5c-5.66699 -6.66699 -8.5 -11.334 -8.5 -14.001c0 -1.33301 0.666992 -2 2 -2
c0.666992 -0.666992 1.66699 -1 3 -1c3.33301 0.666992 13.833 8 31.5 22s37.167 33 58.5 57c0.666992 0 1 0.166992 1 0.5s0.333008 0.5 1 0.5c1.33301 0 2 -1.33301 2 -4c0 -3.33301 -1.66699 -8.66602 -5 -15.999s-6.66602 -12.666 -9.99902 -15.999
c-2 -2 -6.5 -6.16699 -13.5 -12.5s-14.667 -12.833 -23 -19.5s-16.833 -12.667 -25.5 -18s-15.667 -8 -21 -8c-7.33301 0 -13 1 -17 3c-4.66699 -5.33301 -6.83398 -7.83301 -6.50098 -7.5s0.5 -1.16699 0.5 -4.5l131 -21c46 -7.33301 92.667 -13.333 140 -18
s94.5 -6.83398 141.5 -6.50098s92.167 5.16602 135.5 14.499h2c5.33301 1.33301 10.166 2 14.499 2h8.5zM90.0049 214.002c3.33301 2 6.83398 6.5 10.501 13.5s5.5 13.167 5.5 18.5c0 4.66699 -1.66699 7 -5 7c-4.66699 0 -9.33398 -4.33301 -14.001 -13s-7 -16 -7 -22
c0 -4 1.33301 -6 4 -6c1.33301 0 3.33301 0.666992 6 2zM-7.99414 -31.998c1.33301 1.33301 2.33301 2.49902 3 3.49902s1.33398 2.16699 2.00098 3.5c-16.667 5.33301 -41.834 10 -75.501 14s-71.167 5.83301 -112.5 5.5s-83.833 -3.16602 -127.5 -8.49902
s-83.334 -14.666 -119.001 -27.999s-65 -31 -88 -53s-34.5 -49.667 -34.5 -83c0 -12.667 5 -22.834 15 -30.501s22 -13.5 36 -17.5s28.833 -6.66699 44.5 -8s29.167 -2 40.5 -2c38.667 0 76.834 5.16699 114.501 15.5s74.334 24.5 110.001 42.5s69.667 39.5 102 64.5
s62.166 52.167 89.499 81.5z" />
    <glyph glyph-name="braceleft" unicode="{" horiz-adv-x="200" 
d="M101 240c0.666992 -0.666992 1.66992 0.325195 3.00293 2.99219s4.66602 3.33398 9.99902 2.00098c8 2.66699 15.167 5.33398 21.5 8.00098s12.166 6 17.499 10s10.833 9.33301 16.5 16s11.5 15.667 17.5 27c12 22 23.833 45.667 35.5 71s23.167 48 34.5 68
c5.33301 8 12 15.167 20 21.5s17.333 6.5 28 0.5c8.66699 -4.66699 15.167 -10.5 19.5 -17.5s7.33301 -13.833 9 -20.5s2.16699 -12.5 1.5 -17.5s-1 -7.83301 -1 -8.5c-1.33301 -5.33301 -3 -7 -5 -5c-2.66699 1.33301 -4 2.5 -4 3.5v3.5
c2.66699 4 3.33398 8.33301 2.00098 13s-3.5 9.33398 -6.5 14.001s-6.5 9 -10.5 13s-7.33301 6.66699 -10 8c-10.667 5.33301 -20.334 -0.333984 -29.001 -17.001c-12 -24.667 -23.5 -51.5 -34.5 -80.5s-23.5 -55.5 -37.5 -79.5c-6 -10.667 -11.833 -19.667 -17.5 -27
s-14.5 -15 -26.5 -23c-11.333 -2 -17.666 -3.33301 -18.999 -4l7 -16c-2.66699 -14 -5.83398 -25 -9.50098 -33s-9.16699 -17.333 -16.5 -28c-15.333 -23.333 -33.833 -46.5 -55.5 -69.5s-40.834 -45.5 -57.501 -67.5c-4 -7.33301 -6.66699 -13.666 -8 -18.999
s0.666992 -9.66602 6 -12.999c2.66699 -2 6.66699 -3.66699 12 -5s11 -2.16602 17 -2.49902s11.667 0.166992 17 1.5s9.33301 4 12 8l2 2c0.666992 0.666992 2 0.333984 4 -0.999023s1.66699 -3.33301 -1 -6c0 -0.666992 -2.33301 -2.33398 -7 -5.00098
s-10.334 -5.16699 -17.001 -7.5s-14.334 -3.5 -23.001 -3.5s-17 2.66699 -25 8c-10.667 6 -15.167 13.833 -13.5 23.5s5.16699 18.834 10.5 27.501c12.667 19.333 27.834 39.833 45.501 61.5s33.5 42.834 47.5 63.501c7.33301 10.667 12.833 19.834 16.5 27.501
s6 14.834 7 21.501s1.16699 13.334 0.5 20.001s-2 14 -4 22c-1.33301 1.33301 -2 2.33301 -2 3c0.666992 1.33301 0.833984 2.16602 0.500977 2.49902s-0.5 1.16602 -0.5 2.49902z" />
    <glyph glyph-name="bar" unicode="|" horiz-adv-x="111" 
d="M68 477c5.33301 7.33301 10.498 9.99805 15.498 7.99805s8.5 -4 10.5 -6c-7.33301 -19.333 -13.666 -45 -18.999 -77s-9.83301 -67 -13.5 -105s-6.5 -77 -8.5 -117s-3.5 -77.667 -4.5 -113s-1.33301 -66.666 -1 -93.999s0.833008 -46.666 1.5 -57.999
c0 -1.33301 -1.83301 -2.16602 -5.5 -2.49902s-5.83398 0.5 -6.50098 2.5c0 3.33301 -0.333008 13.166 -1 29.499s-1.16699 36.666 -1.5 60.999s-0.666016 51.833 -0.999023 82.5s-0.333008 62 0 94s1.33301 64 3 96s3.83398 61.333 6.50098 88s6 49.834 10 69.501
s9 33.5 15 41.5z" />
    <glyph glyph-name="braceright" unicode="}" horiz-adv-x="327" 
d="M185 182c-0.666992 0.666992 -1.6709 -0.327148 -3.00391 -2.99414s-4.66602 -3.33398 -9.99902 -2.00098c-8 -2.66699 -15.167 -5.33398 -21.5 -8.00098s-12.166 -6 -17.499 -10s-10.833 -9.5 -16.5 -16.5s-11.5 -15.833 -17.5 -26.5c-12 -22 -23.833 -45.667 -35.5 -71
s-23.167 -48 -34.5 -68c-5.33301 -8 -12 -15.167 -20 -21.5s-17.333 -6.5 -28 -0.5c-9.33301 4.66699 -16 9.66699 -20 15s-6.83301 10.5 -8.5 15.5s-2.16699 9.16699 -1.5 12.5s1 5.33301 1 6c1.33301 5.33301 3 7 5 5c2.66699 -1.33301 4 -2.5 4 -3.5v-3.5
c-2.66699 -4 -3.33398 -7.66699 -2.00098 -11s3.5 -6.33301 6.5 -9s6.33301 -5.16699 10 -7.5s7.16699 -4.16602 10.5 -5.49902c10.667 -5.33301 20.334 0.333984 29.001 17.001c12 24.667 23.5 51.5 34.5 80.5s23.5 55.5 37.5 79.5c6 10.667 11.833 19.667 17.5 27
s14.5 15 26.5 23c10.667 2 17 3.33301 19 4l-7 16c2.66699 14 5.83398 25 9.50098 33s9.16699 17.333 16.5 28c15.333 23.333 33.833 46.5 55.5 69.5s40.834 45.5 57.501 67.5c4 7.33301 6.66699 13.666 8 18.999s-0.666992 9.66602 -6 12.999
c-2.66699 2 -6.66699 3.66699 -12 5s-11 2.16602 -17 2.49902s-11.667 -0.166992 -17 -1.5s-9.33301 -4 -12 -8l-2 -2c-0.666992 -0.666992 -2 -0.333984 -4 0.999023s-1.66699 3.33301 1 6c0 0.666992 2.33301 2.33398 7 5.00098s10.334 5.16699 17.001 7.5
s14.334 3.5 23.001 3.5s17 -2.66699 25 -8c10.667 -6 15.167 -13.833 13.5 -23.5s-5.16699 -18.834 -10.5 -27.501c-12.667 -19.333 -27.834 -39.833 -45.501 -61.5s-33.5 -42.834 -47.5 -63.501c-7.33301 -10.667 -12.833 -19.834 -16.5 -27.501s-6 -14.834 -7 -21.501
s-1.16699 -13.334 -0.5 -20.001s2 -14 4 -22c1.33301 -1.33301 2 -2.33301 2 -3c-0.666992 -1.33301 -0.833984 -2.16602 -0.500977 -2.49902s0.5 -1.16602 0.5 -2.49902z" />
    <glyph glyph-name="exclamdown" unicode="&#xa1;" horiz-adv-x="234" 
d="M233 339c-1.33301 -2 -3.83105 -4.16602 -7.49805 -6.49902s-7.16699 -2.83301 -10.5 -1.5c-6.66699 3.33301 -8 8.33301 -4 15c1.33301 2 2.16602 4 2.49902 6s1.16602 4 2.49902 6c4 9.33301 7.5 15 10.5 17s5.5 1.66699 7.5 -1s3 -7.33398 3 -14.001
s-1.33301 -13.667 -4 -21zM5.00195 -131.999c-6.66699 9.33301 -6.83398 26.165 -0.500977 50.498s16.333 52.333 30 84s29.667 64.834 48 99.501l53 97l44.5 77c12.667 21.333 20.667 34.333 24 39c1.33301 2 3.83301 2.66699 7.5 2s4.83398 -1.66699 3.50098 -3
c-7.33301 -11.333 -16.5 -27.666 -27.5 -48.999l-36 -72.5l-39.5 -86c-13.333 -30.333 -25.5 -60.166 -36.5 -89.499s-20.667 -57.333 -29 -84s-13.833 -49.334 -16.5 -68.001c-3.33301 -2 -7.33301 -3.5 -12 -4.5s-9 1.5 -13 7.5z" />
    <glyph glyph-name="cent" unicode="&#xa2;" horiz-adv-x="227" 
d="M187 477c6 2.66699 11.1709 2.66699 15.5039 0s7.16602 -4.66699 8.49902 -6c-5.33301 -4.66699 -10.833 -10.5 -16.5 -17.5s-11.167 -14.833 -16.5 -23.5c7.33301 0 13.666 -1.33301 18.999 -4s8.66602 -5.33398 9.99902 -8.00098c2.66699 -4 3.5 -8.33301 2.5 -13
s-3.16699 -8.66699 -6.5 -12c-5.33301 -7.33301 -11.166 -13.833 -17.499 -19.5s-10.833 -9.16699 -13.5 -10.5c-4 -2 -8.83301 -1.66699 -14.5 1s-8.83398 5.66699 -9.50098 9c-10.667 -22.667 -20.5 -46 -29.5 -70s-16.833 -46 -23.5 -66
c14.667 4.66699 25 9.33398 31 14.001c11.333 7.33301 20.333 15 27 23l22 26c5.33301 5.33301 8.83301 9.5 10.5 12.5s5.16699 7.5 10.5 13.5c3.33301 2 4.83301 -0.666992 4.5 -8s-4.16602 -16.666 -11.499 -27.999c-6 -8 -11 -14.333 -15 -19
s-7.33301 -8.33398 -10 -11.001s-5.33398 -5.16699 -8.00098 -7.5l-10 -8.5c-6 -4.66699 -14 -9.16699 -24 -13.5s-20.667 -7.5 -32 -9.5c-6.66699 -21.333 -10.667 -37.333 -12 -48c0 -0.666992 -1.83301 -0.666992 -5.5 0s-5.83398 1.66699 -6.50098 3
c0 1.33301 0.833008 6 2.5 14s4.16699 17.667 7.5 29c-5.33301 0 -10 0.333008 -14 1s-7.66699 2 -11 4c-7.33301 4.66699 -12.166 9.16699 -14.499 13.5s-3.83301 7.83301 -4.5 10.5c-2 12.667 0.666992 26.667 8 42c13.333 25.333 30 48.5 50 69.5l49 50.5
c7.33301 17.333 15.166 32 23.499 44s16.5 19.667 24.5 23zM69.0039 238c2.66699 -2 6.33301 -3.00195 11 -3.00195l13.5 47c5 17.333 10.5 34.666 16.5 51.999c-10 -12.667 -19 -24.667 -27 -36s-13.667 -19.666 -17 -24.999c-2.66699 -5.33301 -4.5 -11.166 -5.5 -17.499
s1.83301 -12.166 8.5 -17.499zM156.003 389.998l-6.99805 -14.001l8 4c2.66699 1.33301 6.16699 3.33301 10.5 6s8.16602 5.33398 11.499 8.00098s6.16602 5.5 8.49902 8.5s2.83301 5.5 1.5 7.5c-2.66699 4 -6 4.83301 -10 2.5s-7 -4.83301 -9 -7.5z" />
    <glyph glyph-name="dieresis" unicode="&#xa8;" horiz-adv-x="68" 
d="M56 239c-6 -11.333 -10.833 -15.3301 -14.5 -11.9971s-3.5 10.666 0.5 21.999c3.33301 5.33301 7 6.66602 11 3.99902c6 -2.66699 7 -7.33398 3 -14.001zM30 239.003c-6 -11.333 -10.833 -15.3301 -14.5 -11.9971s-3.5 10.666 0.5 21.999
c3.33301 5.33301 7 6.66602 11 3.99902c6 -2.66699 7 -7.33398 3 -14.001z" />
    <glyph glyph-name="guillemotleft" unicode="&#xab;" horiz-adv-x="173" 
d="M11 127c-1.33301 5.33301 -1.49707 9.16699 -0.49707 11.5s3.5 5.5 7.5 9.5c10.667 7.33301 23.5 12.833 38.5 16.5s30.5 10.5 46.5 20.5h1c3.33301 0 5 -2 5 -6s-3.5 -9 -10.5 -15s-15 -12 -24 -18s-17.833 -11.5 -26.5 -16.5l-18 -10.5
c-0.666992 -4 -0.833984 -10.167 -0.500977 -18.5s0.166016 -17 -0.500977 -26s-1.83398 -16.833 -3.50098 -23.5s-4.5 -10 -8.5 -10c-1.33301 0 -2 0.666992 -2 2c0.666992 5.33301 1 10.333 1 15v13c0 9.33301 -0.5 18 -1.5 26s-2.16699 18 -3.5 30zM67.0029 120.001
c-1.33301 5.33301 -1.49707 9.16699 -0.49707 11.5s3.5 5.5 7.5 9.5c10.667 7.33301 23.5 12.833 38.5 16.5s30.5 10.5 46.5 20.5h1c3.33301 0 5 -2 5 -6s-3.5 -9 -10.5 -15s-15 -12 -24 -18s-17.833 -11.5 -26.5 -16.5l-18 -10.5
c-0.666992 -4 -0.833984 -10.167 -0.500977 -18.5s0.166016 -17 -0.500977 -26s-1.83398 -16.833 -3.50098 -23.5s-4.5 -10 -8.5 -10c-1.33301 0 -2 0.666992 -2 2c0.666992 5.33301 1 10.333 1 15v13c0 9.33301 -0.5 18 -1.5 26s-2.16699 18 -3.5 30z" />
    <glyph glyph-name="degree" unicode="&#xb0;" horiz-adv-x="202" 
d="M159 446c8 0 13.832 -2.49707 17.499 -7.49707s6 -10.833 7 -17.5s1 -13.834 0 -21.501s-2.16699 -14.167 -3.5 -19.5c-2 -8 -7 -19.333 -15 -34s-17.833 -29 -29.5 -43s-24.334 -26.167 -38.001 -36.5s-27.5 -15.5 -41.5 -15.5c-8 0 -14 2 -18 6
s-6.33301 7.16699 -7 9.5s-1 3.83301 -1 4.5s0.333008 1.33398 1 2.00098c0.666992 0 1.66699 -1 3 -3c0.666992 -2.66699 2 -5.33398 4 -8.00098c3.33301 -4.66699 8.33301 -7 15 -7c7.33301 0 15.333 2.33301 24 7s17.334 10.667 26.001 18c22 19.333 39 41 51 65
s18 45.667 18 65c0 4 -0.833008 8.5 -2.5 13.5s-5.5 7.5 -11.5 7.5c-10 0 -24.667 -6.66699 -44 -20c-7.33301 -5.33301 -16.166 -13 -26.499 -23s-20 -21.333 -29 -34s-16.667 -26.167 -23 -40.5s-9.5 -28.166 -9.5 -41.499c0 -18.667 9.33301 -28 28 -28
c9.33301 0 18.5 2.16699 27.5 6.5s17.333 9.33301 25 15s14.167 11 19.5 16l11 10.5c0.666992 0.666992 1 0.666992 1 0c0 -3.33301 -2.83301 -8 -8.5 -14s-13 -12 -22 -18s-18.333 -11.333 -28 -16s-18.5 -7 -26.5 -7c-13.333 0 -22.333 4 -27 12s-7 16 -7 24
c0 17.333 4.66699 36.166 14 56.499s21 39.166 35 56.499s29.167 31.666 45.5 42.999s31.5 17 45.5 17z" />
    <glyph glyph-name="plusminus" unicode="&#xb1;" horiz-adv-x="161" 
d="M27 72c-4 0 -6.83301 0.332031 -8.5 0.999023s-2.5 3.66699 -2.5 9c0 4 0.5 7.16699 1.5 9.5s4.16699 3.5 9.5 3.5h109c4 0 6.83301 -0.166992 8.5 -0.5s2.5 -3.16602 2.5 -8.49902c0 -4 -0.5 -7.33301 -1.5 -10s-4.16699 -4 -9.5 -4h-109zM132 200.999
c6.66699 0 9.99609 -4.66797 9.99609 -14.001c0 -4 -0.5 -7.33301 -1.5 -10s-4.16699 -4 -9.5 -4c-1.33301 0 -5.66602 0.166992 -12.999 0.5s-16.666 1.16602 -27.999 2.49902l-3 -30l-1.5 -15c-0.333008 -3.33301 -1 -5.16602 -2 -5.49902s-2.5 -0.5 -4.5 -0.5
c-3.33301 0 -7.33301 1.5 -12 4.5s-7.66699 6.5 -9 10.5c0 1.33301 0.666992 6.5 2 15.5s2.66602 15.833 3.99902 20.5c-9.33301 0.666992 -17 1 -23 1h-11c-7.33301 0 -11 4.66699 -11 14c0 4 0.5 7.33301 1.5 10s4.16699 4 9.5 4h11.5c6.33301 0 15.5 -0.666992 27.5 -2
c0.666992 12.667 1.33398 22.334 2.00098 29.001s1.33398 11.5 2.00098 14.5s1.5 4.66699 2.5 5s2.5 0.5 4.5 0.5c2.66699 0 6.33398 -1 11.001 -3s7.66699 -5 9 -9c1.33301 -3.33301 0 -16 -4 -38c9.33301 0 17.333 -0.166992 24 -0.5s10.667 -0.5 12 -0.5z" />
    <glyph glyph-name="twosuperior" unicode="&#xb2;" horiz-adv-x="214" 
d="M201.039 273.331c1.2207 -1.52441 1.89844 -2.97266 2.05078 -4.34473s0.228516 -2.82031 0.228516 -4.34473c-1.21973 -6.09766 -4.19434 -11.3574 -8.92383 -15.7783s-10.1445 -8.00293 -16.2461 -10.7471c-6.10254 -2.74414 -12.5859 -4.72559 -19.4502 -5.94531
s-13.042 -1.8291 -18.5332 -1.8291c-8.2373 0 -16.3984 0.761719 -24.4834 2.28613s-15.7891 3.35352 -23.1113 5.4873s-14.0342 4.26758 -20.1367 6.40137c-6.10156 2.13379 -11.1357 3.81055 -15.1016 5.03027c-6.71191 -4.57324 -12.8135 -7.0127 -18.3047 -7.31738
h-2.51758c-1.06738 0 -2.13477 0.304688 -3.20215 0.914062c-1.06738 0.610352 -1.98242 1.67773 -2.74512 3.20215s-0.991211 3.65918 -0.686523 6.40332c0 2.74414 1.14453 5.64062 3.43262 8.68945s6.02539 4.57324 11.2119 4.57324
c4.88184 0 10.6787 -1.06738 17.3906 -3.20117l42.332 47.5625c13.5771 15.5498 25.7051 30.0322 36.3838 43.4473s19.2217 25.3818 25.6289 35.9004s9.91602 18.6748 10.5264 24.4678c0.305664 4.87793 -1.98242 8.53711 -6.86426 10.9766
c-4.88184 2.43848 -10.2207 3.96289 -16.0176 4.57324c1.21973 -0.610352 2.44043 -1.37305 3.66113 -2.28809c1.21973 -0.915039 1.83008 -2.13477 1.83008 -3.65918c0 -0.305664 -0.152344 -0.610352 -0.457031 -0.915039
c-0.305664 -0.304688 -0.611328 -0.761719 -0.916992 -1.37207c0 -0.609375 -0.762695 -1.60059 -2.28809 -2.97266s-3.66113 -2.82031 -6.40625 -4.34473c-2.74609 -1.52441 -5.9502 -2.89648 -9.61133 -4.11621s-7.62695 -1.8291 -11.8984 -1.8291
c-1.21973 0 -2.74512 0.152344 -4.57617 0.457031c-1.83105 0.305664 -3.66211 0.916016 -5.49316 1.83105c-1.83008 0.915039 -3.50781 2.28711 -5.0332 4.11621c-1.52637 1.8291 -2.59473 4.4209 -3.20508 7.77539c0.610352 4.57324 4.95801 8.53711 13.043 11.8916
c8.08496 3.35352 18.0771 5.03027 29.9756 5.03027c14.0342 0 24.1025 -2.43945 30.2041 -7.31738c6.10254 -4.87793 9.45898 -10.6709 10.0693 -17.3789c-2.13574 -10.6709 -7.01758 -21.876 -14.6445 -33.6143c-7.62793 -11.7383 -17.0098 -23.9336 -28.1455 -36.5869
s-23.7969 -25.9922 -37.9834 -40.0166l-43.7051 -43.9043c4.88184 -2.13379 10.5264 -4.4209 16.9336 -6.86035c6.40723 -2.43848 13.1191 -4.72461 20.1367 -6.8584c7.0166 -2.13379 14.2627 -3.96289 21.7373 -5.4873s14.7207 -2.28711 21.7383 -2.28711
c5.49121 0 11.2119 0.838867 17.1611 2.51562s11.2881 3.81152 16.0176 6.40332c4.72949 2.59082 8.69531 5.4873 11.8984 8.68848c3.2041 3.20215 4.95898 6.32715 5.26465 9.37598c0.304688 3.04883 -0.0771484 5.03027 -1.14453 5.94531
s-2.21191 1.37207 -3.43262 1.37207c-0.915039 0 -1.83008 -0.152344 -2.74512 -0.457031c-0.915039 -0.305664 -1.67773 -0.458008 -2.28809 -0.458008c-1.21973 0 -1.83008 0.610352 -1.83008 1.83008c0 0.304688 0.304688 0.761719 0.915039 1.37109
c0.610352 0.610352 1.9834 0.915039 4.11914 0.915039c0.610352 0 1.75488 -0.152344 3.43359 -0.457031c1.67773 -0.305664 3.2793 -1.2207 4.80469 -2.74512zM147.028 430.197c-6.10156 0 -12.0498 -0.380859 -17.8467 -1.14355s-10.2207 -2.51562 -13.2715 -5.25879
c-0.305664 -3.04883 0.761719 -5.03027 3.20215 -5.94531s4.88086 -1.37207 7.32129 -1.37207c3.05078 0 5.79688 0.685547 8.23828 2.05762c2.44043 1.37207 4.5 2.89648 6.17871 4.57324c1.67773 1.67676 2.97461 3.20117 3.88965 4.57324
s1.67773 2.05859 2.28809 2.05859v0.457031zM39.0264 245.891c1.83105 0 3.88867 0.458008 6.17676 1.37305s4.19531 2.13477 5.7207 3.65918c-3.05078 0.609375 -5.03418 0.914062 -5.94922 0.914062c-1.83105 0 -3.43262 -0.838867 -4.80566 -2.51562
c-1.37207 -1.67676 -1.75293 -2.82031 -1.14258 -3.43066z" />
    <glyph glyph-name="threesuperior" unicode="&#xb3;" horiz-adv-x="188" 
d="M178.14 460.21c3.28418 -4.26074 3.61621 -10.9795 0.988281 -20.1562c-2.62793 -9.17578 -6.73438 -18.5156 -12.3184 -28.0195c-5.58496 -9.50391 -11.7441 -18.1885 -18.4775 -26.0537c-6.73438 -7.86523 -12.4014 -12.4531 -17 -13.7637
c0.985352 -0.328125 3.03809 -1.14746 6.1582 -2.45801c3.12109 -1.31152 6.40625 -3.27832 9.85547 -5.90039s6.4873 -6.06348 9.11523 -10.3242s3.94238 -9.50391 3.94238 -15.7305v-1.96582v-1.47461v-0.983398c0 -11.4697 -1.9707 -23.0215 -5.91309 -34.6553
s-9.60938 -22.0391 -17.001 -31.2148c-7.39062 -9.17676 -16.3418 -16.6328 -26.8535 -22.3682s-22.3379 -8.60254 -35.4775 -8.60254c-9.52637 0 -17.6562 1.47461 -24.3906 4.4248c-6.7334 2.94922 -12.2354 6.88184 -16.5059 11.7969
c-4.27051 4.91602 -7.3916 10.4053 -9.3623 16.4688c-1.97168 6.0625 -2.95703 12.207 -2.95703 18.4336c0 8.52051 0.739258 15.5664 2.21777 21.1377s2.5459 8.35742 3.20312 8.35742c1.31348 0 1.9707 -0.819336 1.9707 -2.45801
c0 -0.983398 -0.246094 -3.19531 -0.739258 -6.63672c-0.493164 -3.44043 -0.739258 -7.94629 -0.739258 -13.5176c1.31445 -16.0576 5.66699 -27.6094 13.0576 -34.6553c7.3916 -7.0459 17.9854 -10.5684 31.7812 -10.5684c9.85449 0 19.627 2.45801 29.3174 7.37402
c9.69043 4.91504 18.2314 11.3877 25.623 19.417s13.3867 17.2871 17.9854 27.7744s6.89844 21.3018 6.89844 32.4434c0 6.22656 -2.46387 11.2246 -7.3916 14.9932c-4.92676 3.76855 -10.1006 6.88184 -15.5215 9.33984
c-5.41992 2.45801 -9.85449 4.58789 -13.3037 6.38965c-3.44922 1.80273 -3.85938 3.6875 -1.23145 5.65332c0.657227 0.327148 1.06738 0.573242 1.23145 0.737305s0.575195 0.492188 1.23242 0.983398l3.69531 2.70312c1.80664 1.31152 4.84473 3.27832 9.11523 5.90039
c5.91309 3.93262 11.415 9.66797 16.5068 17.2061s9.44434 15.1572 13.0576 22.8584s6.24121 14.4189 7.88379 20.1543s1.80664 8.60254 0.493164 8.60254h-3.94238c-11.1689 0 -22.1738 -1.47461 -33.0146 -4.42383c-10.8398 -2.94922 -21.5156 -4.42383 -32.0273 -4.42383
c-1.97168 0 -3.53223 1.06543 -4.68164 3.19531s-1.72363 4.50586 -1.72363 7.12793c0 2.62109 3.94141 4.91504 11.8252 6.88184c7.88379 1.96582 16.917 3.3584 27.1006 4.17773c10.1826 0.819336 19.791 0.983398 28.8252 0.492188
c9.0332 -0.491211 14.8643 -2.04785 17.4922 -4.66992z" />
    <glyph glyph-name="acute" unicode="&#xb4;" horiz-adv-x="84" 
d="M66 233c-5.33301 -3.33301 -12.5 -6.33594 -21.5 -9.00293s-18.167 -4.66699 -27.5 -6c-1.33301 0 -3 0.666992 -5 2s-2.33301 2.66602 -1 3.99902c9.33301 4.66699 16 8.33398 20 11.001s8.66699 6.33398 14 11.001c2 2 5 4.33301 9 7
c6.66699 4.66699 12 4.33398 16 -0.999023c2.66699 -2.66699 3.16699 -6.16699 1.5 -10.5s-3.5 -7.16602 -5.5 -8.49902z" />
    <glyph glyph-name="onesuperior" unicode="&#xb9;" horiz-adv-x="205" 
d="M172.523 451.504c3.65527 0 5.97852 -1.16113 6.97559 -3.49023c0.99707 -2.32812 1.66113 -4.32324 1.99316 -5.98633c0.333008 -2.99316 -0.331055 -5.7373 -1.99219 -8.23242c-1.66113 -2.49414 -4.15332 -5.57031 -7.47656 -9.22949l-11.4629 -12.9707
c-4.31934 -4.98926 -9.1377 -11.4756 -14.4541 -19.458c-8.63965 -10.9756 -17.7773 -23.9473 -27.4131 -38.9141s-18.4414 -29.7676 -26.416 -44.4023c-7.97461 -14.6338 -14.5371 -28.2705 -19.6875 -40.9092c-5.14941 -12.6396 -7.39258 -22.4512 -6.72852 -29.4355
c0.333008 -2.99316 1.16406 -5.15527 2.49316 -6.48633c1.3291 -1.33008 2.82422 -2.24414 4.48535 -2.74316s3.23926 -0.832031 4.73438 -0.998047s2.24316 -0.415039 2.24316 -0.748047c0 -0.665039 -0.332031 -1.33008 -0.99707 -1.99512
s-1.82812 -0.998047 -3.48926 -0.998047c-5.64844 0 -9.38672 1.74609 -11.2139 5.23926c-1.82715 3.49219 -2.90723 7.40039 -3.24023 11.7236v6.98438c0 2.3291 0.415039 5.23926 1.24609 8.73145s2.24316 7.98242 4.2373 13.4697
c1.99316 5.48828 4.81738 12.5566 8.47266 21.2041c0 0.332031 1.91016 5.07129 5.73145 14.2178s11.8789 24.1973 24.1729 45.1514c-6.31348 -5.6543 -13.374 -10.4775 -21.1816 -14.4688c-7.80859 -3.99121 -15.5342 -5.98633 -23.1768 -5.98633
c-5.31641 0 -9.96777 1.08105 -13.9551 3.24219c-3.9873 2.16211 -7.39355 4.90625 -10.2178 8.23242s-4.98438 6.90137 -6.47949 10.7266s-2.40918 7.40039 -2.74121 10.7266c-0.332031 6.31934 0.99707 9.47852 3.9873 9.47852
c1.99316 0 4.48535 -0.748047 7.47656 -2.24512c2.99023 -1.49707 4.48535 -2.91016 4.48535 -4.24023c-0.332031 -0.998047 -0.664062 -2.16211 -0.99707 -3.49219c-0.332031 -0.998047 -0.581055 -2.24512 -0.74707 -3.74219s-0.0830078 -3.07715 0.249023 -4.74023
c0.665039 -5.6543 2.8252 -10.0615 6.48047 -13.2207c3.65527 -3.16016 7.64258 -4.74023 11.9619 -4.74023c6.31348 0 12.959 2.16211 19.9365 6.48633c6.97754 4.32324 13.7061 9.72754 20.1855 16.2129s12.71 13.4697 18.6914 20.9531l15.9492 20.7041l16.9463 28.1885
c3.9873 6.81738 7.22656 11.8066 9.71875 14.9668c2.49219 3.15918 4.48633 5.1543 5.98145 5.98535c1.49512 0.832031 3.23926 1.24805 5.23242 1.24805z" />
    <glyph glyph-name="ordmasculine" unicode="&#xba;" horiz-adv-x="197" 
d="M159 446c8 0 13.832 -2.49707 17.499 -7.49707s6 -10.833 7 -17.5s1 -13.834 0 -21.501s-2.16699 -14.167 -3.5 -19.5c-2 -8 -7 -19.333 -15 -34s-17.833 -29 -29.5 -43s-24.334 -26.167 -38.001 -36.5s-27.5 -15.5 -41.5 -15.5c-8 0 -14 2 -18 6
s-6.33301 7.16699 -7 9.5s-1 3.83301 -1 4.5s0.333008 1.33398 1 2.00098c0.666992 0 1.66699 -1 3 -3c0.666992 -2.66699 2 -5.33398 4 -8.00098c3.33301 -4.66699 8.33301 -7 15 -7c7.33301 0 15.333 2.33301 24 7s17.334 10.667 26.001 18c22 19.333 39 41 51 65
s18 45.667 18 65c0 4 -0.833008 8.5 -2.5 13.5s-5.5 7.5 -11.5 7.5c-10 0 -24.667 -6.66699 -44 -20c-7.33301 -5.33301 -16.166 -13 -26.499 -23s-20 -21.333 -29 -34s-16.667 -26.167 -23 -40.5s-9.5 -28.166 -9.5 -41.499c0 -18.667 9.33301 -28 28 -28
c9.33301 0 18.5 2.16699 27.5 6.5s17.333 9.33301 25 15s14.167 11 19.5 16l11 10.5c0.666992 0.666992 1 0.666992 1 0c0 -3.33301 -2.83301 -8 -8.5 -14s-13 -12 -22 -18s-18.333 -11.333 -28 -16s-18.5 -7 -26.5 -7c-13.333 0 -22.333 4 -27 12s-7 16 -7 24
c0 17.333 4.66699 36.166 14 56.499s21 39.166 35 56.499s29.167 31.666 45.5 42.999s31.5 17 45.5 17z" />
    <glyph glyph-name="guillemotright" unicode="&#xbb;" horiz-adv-x="165" 
d="M95 112c2 -4.66699 3 -8.33203 3 -10.999s-1.33301 -6.33398 -4 -11.001c-8.66699 -9.33301 -19.667 -17.833 -33 -25.5s-26.666 -18.5 -39.999 -32.5h-1c-4 -1.33301 -6 0 -6 4c-1.33301 4 0.666992 9.5 6 16.5s11.666 14.333 18.999 22s14.5 14.667 21.5 21
s11.833 11.166 14.5 14.499c-0.666992 4 -2.16699 10.333 -4.5 19s-4.5 17.5 -6.5 26.5s-3 17.167 -3 24.5s2 11.666 6 12.999c0.666992 0.666992 1.66699 0.333984 3 -0.999023c0.666992 -5.33301 1.5 -10.333 2.5 -15s2.16699 -8.66699 3.5 -12
c2 -9.33301 4.5 -17.666 7.5 -24.999zM152 112.002c2 -4.66699 3 -8.33203 3 -10.999s-1.33301 -6.33398 -4 -11.001c-8.66699 -9.33301 -19.667 -17.833 -33 -25.5s-26.666 -18.5 -39.999 -32.5h-1c-4 -1.33301 -6 0 -6 4c-1.33301 4 0.666992 9.5 6 16.5
s11.666 14.333 18.999 22s14.5 14.667 21.5 21s11.833 11.166 14.5 14.499c-0.666992 4 -2.16699 10.333 -4.5 19s-4.5 17.5 -6.5 26.5s-3 17.167 -3 24.5s2 11.666 6 12.999c0.666992 0.666992 1.66699 0.333984 3 -0.999023c0.666992 -5.33301 1.5 -10.333 2.5 -15
s2.16699 -8.66699 3.5 -12c2 -9.33301 4.5 -17.666 7.5 -24.999z" />
    <glyph glyph-name="onequarter" unicode="&#xbc;" horiz-adv-x="392" 
d="M172.523 451.504c3.65527 0 5.97852 -1.16113 6.97559 -3.49023c0.99707 -2.32812 1.66113 -4.32324 1.99316 -5.98633c0.333008 -2.99316 -0.331055 -5.7373 -1.99219 -8.23242c-1.66113 -2.49414 -4.15332 -5.57031 -7.47656 -9.22949l-11.4629 -12.9707
c-4.31934 -4.98926 -9.1377 -11.4756 -14.4541 -19.458c-8.63965 -10.9756 -17.7773 -23.9473 -27.4131 -38.9141s-18.4414 -29.7676 -26.416 -44.4023c-7.97461 -14.6338 -14.5371 -28.2705 -19.6875 -40.9092c-5.14941 -12.6396 -7.39258 -22.4512 -6.72852 -29.4355
c0.333008 -2.99316 1.16406 -5.15527 2.49316 -6.48633c1.3291 -1.33008 2.82422 -2.24414 4.48535 -2.74316s3.23926 -0.832031 4.73438 -0.998047s2.24316 -0.415039 2.24316 -0.748047c0 -0.665039 -0.332031 -1.33008 -0.99707 -1.99512
s-1.82812 -0.998047 -3.48926 -0.998047c-5.64844 0 -9.38672 1.74609 -11.2139 5.23926c-1.82715 3.49219 -2.90723 7.40039 -3.24023 11.7236v6.98438c0 2.3291 0.415039 5.23926 1.24609 8.73145s2.24316 7.98242 4.2373 13.4697
c1.99316 5.48828 4.81738 12.5566 8.47266 21.2041c0 0.332031 1.91016 5.07129 5.73145 14.2178s11.8789 24.1973 24.1729 45.1514c-6.31348 -5.6543 -13.374 -10.4775 -21.1816 -14.4688c-7.80859 -3.99121 -15.5342 -5.98633 -23.1768 -5.98633
c-5.31641 0 -9.96777 1.08105 -13.9551 3.24219c-3.9873 2.16211 -7.39355 4.90625 -10.2178 8.23242s-4.98438 6.90137 -6.47949 10.7266s-2.40918 7.40039 -2.74121 10.7266c-0.332031 6.31934 0.99707 9.47852 3.9873 9.47852
c1.99316 0 4.48535 -0.748047 7.47656 -2.24512c2.99023 -1.49707 4.48535 -2.91016 4.48535 -4.24023c-0.332031 -0.998047 -0.664062 -2.16211 -0.99707 -3.49219c-0.332031 -0.998047 -0.581055 -2.24512 -0.74707 -3.74219s-0.0830078 -3.07715 0.249023 -4.74023
c0.665039 -5.6543 2.8252 -10.0615 6.48047 -13.2207c3.65527 -3.16016 7.64258 -4.74023 11.9619 -4.74023c6.31348 0 12.959 2.16211 19.9365 6.48633c6.97754 4.32324 13.7061 9.72754 20.1855 16.2129s12.71 13.4697 18.6914 20.9531l15.9492 20.7041l16.9463 28.1885
c3.9873 6.81738 7.22656 11.8066 9.71875 14.9668c2.49219 3.15918 4.48633 5.1543 5.98145 5.98535c1.49512 0.832031 3.23926 1.24805 5.23242 1.24805zM348.277 469.974c6.43652 0 10.3848 -2.0498 11.8477 -6.15039s2.4873 -7.61523 3.07227 -10.5439
c-12.2881 -11.7158 -26.917 -29.582 -43.8867 -53.5986s-34.8174 -51.2549 -53.543 -81.7148l-56.1758 -95.335l-52.2256 -94.8955l-41.6934 -80.8369c-11.7031 -23.7236 -19.8955 -41.1504 -24.5762 -52.2803c-0.584961 -1.17188 -2.04785 -0.732422 -4.38867 1.31738
s-2.92578 4.24707 -1.75488 6.59082c1.1709 3.51465 5.12109 12.8867 11.8506 28.1172l25.4551 56.6729l34.6709 75.126l40.8145 83.9121l43.4492 83.0332c14.6289 26.9463 28.6729 50.8164 42.1318 71.6113c13.458 20.7949 25.7461 37.4893 36.8643 50.084
c11.1182 12.5938 20.4805 18.8906 28.0879 18.8906zM347.187 32.5234c0.319336 -0.960938 0.31543 -2.48242 -0.00390625 -4.56543c-0.319336 -2.08203 -0.638672 -3.44336 -0.958008 -4.08398c-0.319336 -0.961914 -0.71875 -1.7627 -1.19824 -2.40332
s-1.59766 -1.04102 -3.35449 -1.20117s-4.23242 -0.320312 -7.42676 -0.480469s-7.66699 -0.400391 -13.418 -0.720703c-2.23535 -2.88379 -4.71094 -5.84668 -7.42676 -8.88965l-7.66699 -8.40918l-5.99023 -6.4873c-1.59668 -1.76172 -2.55469 -2.64258 -2.87402 -2.64258
c-1.27832 0 -1.91699 0.640625 -1.91699 1.92188c-0.319336 0.320312 1.11816 2.88281 4.3125 7.68848s6.70801 10.4121 10.542 16.8193c-1.91699 -0.320312 -5.51074 -0.720703 -10.7822 -1.20117c-5.27051 -0.480469 -10.7812 -0.720703 -16.5312 -0.720703
c-5.75098 0 -10.7822 0.400391 -15.0947 1.20117s-6.14941 2.32227 -5.51074 4.56543c0.638672 3.20312 1.19727 5.52539 1.67676 6.9668c0.479492 1.44238 2.07715 4.00488 4.79297 7.68848l13.1777 17.2998c6.06934 7.84863 14.8545 19.9414 26.3555 36.2793
l14.6152 20.4229c5.59082 7.84863 11.1016 16.0977 16.5322 24.7471s10.3027 17.3789 14.6162 26.1885c4.3125 8.80957 7.26758 17.3789 8.86426 25.708c1.27832 6.08691 1.11914 10.8125 -0.477539 14.1768c-1.59766 3.36426 -5.91016 5.0459 -12.9385 5.0459
c-4.47266 0 -10.7021 -1.12109 -18.6885 -3.36426c-7.98633 -2.24219 -16.292 -6.00586 -24.918 -11.292c-8.625 -5.28613 -16.6914 -12.4141 -24.1982 -21.3838s-12.8574 -20.1826 -16.0518 -33.6377l-0.958984 -3.84375c-0.958008 -5.44629 -0.958008 -10.6523 0 -15.6182
s2.23633 -9.45117 3.83398 -13.4561c1.59668 -4.00488 3.11426 -7.36816 4.55176 -10.0908c1.4375 -2.72363 2.15625 -4.40527 2.15625 -5.0459c-0.319336 -1.28125 -1.35742 -3.04297 -3.11426 -5.28516c-1.75684 -2.24316 -3.91309 -3.36426 -6.46875 -3.36426
c-0.958008 0 -1.67676 0.160156 -2.15625 0.480469s-1.03906 0.800781 -1.67871 1.44141c-1.27832 1.60254 -2.71582 3.68457 -4.3125 6.24707c-1.59668 2.56348 -3.03418 5.52637 -4.3125 8.88965c-1.27832 3.36426 -2.07715 7.36914 -2.39648 12.0146
s0.160156 10.0117 1.43848 16.0986c1.91699 9.93066 6.22949 20.1016 12.9375 30.5127s14.7744 19.9414 24.1992 28.5908c9.42383 8.64941 19.7266 15.6973 30.9072 21.1436s22.3613 8.16895 33.542 8.16895c5.11133 0 9.02441 -1.04102 11.7402 -3.12305
s4.63281 -4.56445 5.75098 -7.44824s1.51758 -6.00684 1.19824 -9.37012c-0.319336 -3.36426 -0.638672 -6.32715 -0.958008 -8.88965c-1.59766 -8.00879 -4.31348 -16.418 -8.14648 -25.2275s-8.14551 -17.6992 -12.9375 -26.6689s-9.90332 -17.5391 -15.334 -25.708
l-15.334 -22.3447l-20.8438 -29.0723c-4.95215 -6.8877 -8.70605 -12.2539 -11.2617 -16.0986s-4.63184 -6.80762 -6.22949 -8.88965c-1.59668 -2.08301 -3.51367 -4.40527 -5.75 -6.96777c5.43066 0.320312 12.2188 1.04102 20.3643 2.16211
c8.14648 1.12109 15.5742 2.64258 22.2822 4.56543c3.51465 5.12598 6.23047 9.20996 8.14746 12.2529c1.91699 3.04395 3.43457 5.28613 4.55273 6.72754s1.99609 2.32227 2.63477 2.64258c0.639648 0.321289 1.43848 0.481445 2.39648 0.481445
c2.23633 0 4.3125 -0.960938 6.22949 -2.88379c1.91699 -1.92188 2.55566 -4.00391 1.91699 -6.24707c-0.319336 -0.640625 -0.958008 -1.36133 -1.91602 -2.16211s-3.19434 -3.44336 -6.70898 -7.92871c2.55566 0.320312 4.23242 0.560547 5.03027 0.720703
c0.798828 0.160156 1.51758 0.240234 2.15625 0.240234c2.55566 0 4.15332 -0.960938 4.79199 -2.88281z" />
    <glyph glyph-name="onehalf" unicode="&#xbd;" horiz-adv-x="400" 
d="M371.039 53.3311c1.2207 -1.52441 1.89844 -2.97266 2.05078 -4.34473s0.228516 -2.82031 0.228516 -4.34473c-1.21973 -6.09766 -4.19434 -11.3574 -8.92383 -15.7783s-10.1445 -8.00293 -16.2461 -10.7471c-6.10254 -2.74414 -12.5859 -4.72559 -19.4502 -5.94531
s-13.042 -1.8291 -18.5332 -1.8291c-8.2373 0 -16.3984 0.761719 -24.4834 2.28613s-15.7891 3.35352 -23.1113 5.4873s-14.0342 4.26758 -20.1367 6.40137c-6.10156 2.13379 -11.1357 3.81055 -15.1016 5.03027c-6.71191 -4.57324 -12.8135 -7.0127 -18.3047 -7.31738
h-2.51758c-1.06738 0 -2.13477 0.304688 -3.20215 0.914062c-1.06738 0.610352 -1.98242 1.67773 -2.74512 3.20215s-0.991211 3.65918 -0.686523 6.40332c0 2.74414 1.14453 5.64062 3.43262 8.68945s6.02539 4.57324 11.2119 4.57324
c4.88184 0 10.6787 -1.06738 17.3906 -3.20117l42.332 47.5625c13.5771 15.5498 25.7051 30.0322 36.3838 43.4473s19.2217 25.3818 25.6289 35.9004s9.91602 18.6748 10.5264 24.4678c0.305664 4.87793 -1.98242 8.53711 -6.86426 10.9766
c-4.88184 2.43848 -10.2207 3.96289 -16.0176 4.57324c1.21973 -0.610352 2.44043 -1.37305 3.66113 -2.28809c1.21973 -0.915039 1.83008 -2.13477 1.83008 -3.65918c0 -0.305664 -0.152344 -0.610352 -0.457031 -0.915039
c-0.305664 -0.304688 -0.611328 -0.761719 -0.916992 -1.37207c0 -0.609375 -0.762695 -1.60059 -2.28809 -2.97266s-3.66113 -2.82031 -6.40625 -4.34473c-2.74609 -1.52441 -5.9502 -2.89648 -9.61133 -4.11621s-7.62695 -1.8291 -11.8984 -1.8291
c-1.21973 0 -2.74512 0.152344 -4.57617 0.457031c-1.83105 0.305664 -3.66211 0.916016 -5.49316 1.83105c-1.83008 0.915039 -3.50781 2.28711 -5.0332 4.11621c-1.52637 1.8291 -2.59473 4.4209 -3.20508 7.77539c0.610352 4.57324 4.95801 8.53711 13.043 11.8916
c8.08496 3.35352 18.0771 5.03027 29.9756 5.03027c14.0342 0 24.1025 -2.43945 30.2041 -7.31738c6.10254 -4.87793 9.45898 -10.6709 10.0693 -17.3789c-2.13574 -10.6709 -7.01758 -21.876 -14.6445 -33.6143c-7.62793 -11.7383 -17.0098 -23.9336 -28.1455 -36.5869
s-23.7969 -25.9922 -37.9834 -40.0166l-43.7051 -43.9043c4.88184 -2.13379 10.5264 -4.4209 16.9336 -6.86035c6.40723 -2.43848 13.1191 -4.72461 20.1367 -6.8584c7.0166 -2.13379 14.2627 -3.96289 21.7373 -5.4873s14.7207 -2.28711 21.7383 -2.28711
c5.49121 0 11.2119 0.838867 17.1611 2.51562s11.2881 3.81152 16.0176 6.40332c4.72949 2.59082 8.69531 5.4873 11.8984 8.68848c3.2041 3.20215 4.95898 6.32715 5.26465 9.37598c0.304688 3.04883 -0.0771484 5.03027 -1.14453 5.94531
s-2.21191 1.37207 -3.43262 1.37207c-0.915039 0 -1.83008 -0.152344 -2.74512 -0.457031c-0.915039 -0.305664 -1.67773 -0.458008 -2.28809 -0.458008c-1.21973 0 -1.83008 0.610352 -1.83008 1.83008c0 0.304688 0.304688 0.761719 0.915039 1.37109
c0.610352 0.610352 1.9834 0.915039 4.11914 0.915039c0.610352 0 1.75488 -0.152344 3.43359 -0.457031c1.67773 -0.305664 3.2793 -1.2207 4.80469 -2.74512zM317.028 210.197c-6.10156 0 -12.0498 -0.380859 -17.8467 -1.14355s-10.2207 -2.51562 -13.2715 -5.25879
c-0.305664 -3.04883 0.761719 -5.03027 3.20215 -5.94531s4.88086 -1.37207 7.32129 -1.37207c3.05078 0 5.79688 0.685547 8.23828 2.05762c2.44043 1.37207 4.5 2.89648 6.17871 4.57324c1.67773 1.67676 2.97461 3.20117 3.88965 4.57324
s1.67773 2.05859 2.28809 2.05859v0.457031zM209.026 25.8906c1.83105 0 3.88867 0.458008 6.17676 1.37305s4.19531 2.13477 5.7207 3.65918c-3.05078 0.609375 -5.03418 0.914062 -5.94922 0.914062c-1.83105 0 -3.43262 -0.838867 -4.80566 -2.51562
c-1.37207 -1.67676 -1.75293 -2.82031 -1.14258 -3.43066zM172.514 451.505c3.65527 0 5.97852 -1.16113 6.97559 -3.49023c0.99707 -2.32812 1.66113 -4.32324 1.99316 -5.98633c0.333008 -2.99316 -0.331055 -5.7373 -1.99219 -8.23242
c-1.66113 -2.49414 -4.15332 -5.57031 -7.47656 -9.22949l-11.4629 -12.9707c-4.31934 -4.98926 -9.1377 -11.4756 -14.4541 -19.458c-8.63965 -10.9756 -17.7773 -23.9473 -27.4131 -38.9141s-18.4414 -29.7676 -26.416 -44.4023
c-7.97461 -14.6338 -14.5371 -28.2705 -19.6875 -40.9092c-5.14941 -12.6396 -7.39258 -22.4512 -6.72852 -29.4355c0.333008 -2.99316 1.16406 -5.15527 2.49316 -6.48633c1.3291 -1.33008 2.82422 -2.24414 4.48535 -2.74316s3.23926 -0.832031 4.73438 -0.998047
s2.24316 -0.415039 2.24316 -0.748047c0 -0.665039 -0.332031 -1.33008 -0.99707 -1.99512s-1.82812 -0.998047 -3.48926 -0.998047c-5.64844 0 -9.38672 1.74609 -11.2139 5.23926c-1.82715 3.49219 -2.90723 7.40039 -3.24023 11.7236v6.98438
c0 2.3291 0.415039 5.23926 1.24609 8.73145s2.24316 7.98242 4.2373 13.4697c1.99316 5.48828 4.81738 12.5566 8.47266 21.2041c0 0.332031 1.91016 5.07129 5.73145 14.2178s11.8789 24.1973 24.1729 45.1514c-6.31348 -5.6543 -13.374 -10.4775 -21.1816 -14.4688
c-7.80859 -3.99121 -15.5342 -5.98633 -23.1768 -5.98633c-5.31641 0 -9.96777 1.08105 -13.9551 3.24219c-3.9873 2.16211 -7.39355 4.90625 -10.2178 8.23242s-4.98438 6.90137 -6.47949 10.7266s-2.40918 7.40039 -2.74121 10.7266
c-0.332031 6.31934 0.99707 9.47852 3.9873 9.47852c1.99316 0 4.48535 -0.748047 7.47656 -2.24512c2.99023 -1.49707 4.48535 -2.91016 4.48535 -4.24023c-0.332031 -0.998047 -0.664062 -2.16211 -0.99707 -3.49219
c-0.332031 -0.998047 -0.581055 -2.24512 -0.74707 -3.74219s-0.0830078 -3.07715 0.249023 -4.74023c0.665039 -5.6543 2.8252 -10.0615 6.48047 -13.2207c3.65527 -3.16016 7.64258 -4.74023 11.9619 -4.74023c6.31348 0 12.959 2.16211 19.9365 6.48633
c6.97754 4.32324 13.7061 9.72754 20.1855 16.2129s12.71 13.4697 18.6914 20.9531l15.9492 20.7041l16.9463 28.1885c3.9873 6.81738 7.22656 11.8066 9.71875 14.9668c2.49219 3.15918 4.48633 5.1543 5.98145 5.98535c1.49512 0.832031 3.23926 1.24805 5.23242 1.24805z
M348.268 469.975c6.43652 0 10.3848 -2.0498 11.8477 -6.15039s2.4873 -7.61523 3.07227 -10.5439c-12.2881 -11.7158 -26.917 -29.582 -43.8867 -53.5986s-34.8174 -51.2549 -53.543 -81.7148l-56.1758 -95.335l-52.2256 -94.8955l-41.6934 -80.8369
c-11.7031 -23.7236 -19.8955 -41.1504 -24.5762 -52.2803c-0.584961 -1.17188 -2.04785 -0.732422 -4.38867 1.31738s-2.92578 4.24707 -1.75488 6.59082c1.1709 3.51465 5.12109 12.8867 11.8506 28.1172l25.4551 56.6729l34.6709 75.126l40.8145 83.9121l43.4492 83.0332
c14.6289 26.9463 28.6729 50.8164 42.1318 71.6113c13.458 20.7949 25.7461 37.4893 36.8643 50.084c11.1182 12.5938 20.4805 18.8906 28.0879 18.8906z" />
    <glyph glyph-name="threequarters" unicode="&#xbe;" horiz-adv-x="400" 
d="M178.14 460.21c3.28418 -4.26074 3.61621 -10.9795 0.988281 -20.1562c-2.62793 -9.17578 -6.73438 -18.5156 -12.3184 -28.0195c-5.58496 -9.50391 -11.7441 -18.1885 -18.4775 -26.0537c-6.73438 -7.86523 -12.4014 -12.4531 -17 -13.7637
c0.985352 -0.328125 3.03809 -1.14746 6.1582 -2.45801c3.12109 -1.31152 6.40625 -3.27832 9.85547 -5.90039s6.4873 -6.06348 9.11523 -10.3242s3.94238 -9.50391 3.94238 -15.7305v-1.96582v-1.47461v-0.983398c0 -11.4697 -1.9707 -23.0215 -5.91309 -34.6553
s-9.60938 -22.0391 -17.001 -31.2148c-7.39062 -9.17676 -16.3418 -16.6328 -26.8535 -22.3682s-22.3379 -8.60254 -35.4775 -8.60254c-9.52637 0 -17.6562 1.47461 -24.3906 4.4248c-6.7334 2.94922 -12.2354 6.88184 -16.5059 11.7969
c-4.27051 4.91602 -7.3916 10.4053 -9.3623 16.4688c-1.97168 6.0625 -2.95703 12.207 -2.95703 18.4336c0 8.52051 0.739258 15.5664 2.21777 21.1377s2.5459 8.35742 3.20312 8.35742c1.31348 0 1.9707 -0.819336 1.9707 -2.45801
c0 -0.983398 -0.246094 -3.19531 -0.739258 -6.63672c-0.493164 -3.44043 -0.739258 -7.94629 -0.739258 -13.5176c1.31445 -16.0576 5.66699 -27.6094 13.0576 -34.6553c7.3916 -7.0459 17.9854 -10.5684 31.7812 -10.5684c9.85449 0 19.627 2.45801 29.3174 7.37402
c9.69043 4.91504 18.2314 11.3877 25.623 19.417s13.3867 17.2871 17.9854 27.7744s6.89844 21.3018 6.89844 32.4434c0 6.22656 -2.46387 11.2246 -7.3916 14.9932c-4.92676 3.76855 -10.1006 6.88184 -15.5215 9.33984
c-5.41992 2.45801 -9.85449 4.58789 -13.3037 6.38965c-3.44922 1.80273 -3.85938 3.6875 -1.23145 5.65332c0.657227 0.327148 1.06738 0.573242 1.23145 0.737305s0.575195 0.492188 1.23242 0.983398l3.69531 2.70312c1.80664 1.31152 4.84473 3.27832 9.11523 5.90039
c5.91309 3.93262 11.415 9.66797 16.5068 17.2061s9.44434 15.1572 13.0576 22.8584s6.24121 14.4189 7.88379 20.1543s1.80664 8.60254 0.493164 8.60254h-3.94238c-11.1689 0 -22.1738 -1.47461 -33.0146 -4.42383c-10.8398 -2.94922 -21.5156 -4.42383 -32.0273 -4.42383
c-1.97168 0 -3.53223 1.06543 -4.68164 3.19531s-1.72363 4.50586 -1.72363 7.12793c0 2.62109 3.94141 4.91504 11.8252 6.88184c7.88379 1.96582 16.917 3.3584 27.1006 4.17773c10.1826 0.819336 19.791 0.983398 28.8252 0.492188
c9.0332 -0.491211 14.8643 -2.04785 17.4922 -4.66992zM348.284 469.971c6.43652 0 10.3848 -2.0498 11.8477 -6.15039s2.4873 -7.61523 3.07227 -10.5439c-12.2881 -11.7158 -26.917 -29.582 -43.8867 -53.5986s-34.8174 -51.2549 -53.543 -81.7148l-56.1758 -95.335
l-52.2256 -94.8955l-41.6934 -80.8369c-11.7031 -23.7236 -19.8955 -41.1504 -24.5762 -52.2803c-0.584961 -1.17188 -2.04785 -0.732422 -4.38867 1.31738s-2.92578 4.24707 -1.75488 6.59082c1.1709 3.51465 5.12109 12.8867 11.8506 28.1172l25.4551 56.6729
l34.6709 75.126l40.8145 83.9121l43.4492 83.0332c14.6289 26.9463 28.6729 50.8164 42.1318 71.6113c13.458 20.7949 25.7461 37.4893 36.8643 50.084c11.1182 12.5938 20.4805 18.8906 28.0879 18.8906zM347.193 32.5205
c0.319336 -0.960938 0.31543 -2.48242 -0.00390625 -4.56543c-0.319336 -2.08203 -0.638672 -3.44336 -0.958008 -4.08398c-0.319336 -0.961914 -0.71875 -1.7627 -1.19824 -2.40332s-1.59766 -1.04102 -3.35449 -1.20117s-4.23242 -0.320312 -7.42676 -0.480469
s-7.66699 -0.400391 -13.418 -0.720703c-2.23535 -2.88379 -4.71094 -5.84668 -7.42676 -8.88965l-7.66699 -8.40918l-5.99023 -6.4873c-1.59668 -1.76172 -2.55469 -2.64258 -2.87402 -2.64258c-1.27832 0 -1.91699 0.640625 -1.91699 1.92188
c-0.319336 0.320312 1.11816 2.88281 4.3125 7.68848s6.70801 10.4121 10.542 16.8193c-1.91699 -0.320312 -5.51074 -0.720703 -10.7822 -1.20117c-5.27051 -0.480469 -10.7812 -0.720703 -16.5312 -0.720703c-5.75098 0 -10.7822 0.400391 -15.0947 1.20117
s-6.14941 2.32227 -5.51074 4.56543c0.638672 3.20312 1.19727 5.52539 1.67676 6.9668c0.479492 1.44238 2.07715 4.00488 4.79297 7.68848l13.1777 17.2998c6.06934 7.84863 14.8545 19.9414 26.3555 36.2793l14.6152 20.4229
c5.59082 7.84863 11.1016 16.0977 16.5322 24.7471s10.3027 17.3789 14.6162 26.1885c4.3125 8.80957 7.26758 17.3789 8.86426 25.708c1.27832 6.08691 1.11914 10.8125 -0.477539 14.1768c-1.59766 3.36426 -5.91016 5.0459 -12.9385 5.0459
c-4.47266 0 -10.7021 -1.12109 -18.6885 -3.36426c-7.98633 -2.24219 -16.292 -6.00586 -24.918 -11.292c-8.625 -5.28613 -16.6914 -12.4141 -24.1982 -21.3838s-12.8574 -20.1826 -16.0518 -33.6377l-0.958984 -3.84375c-0.958008 -5.44629 -0.958008 -10.6523 0 -15.6182
s2.23633 -9.45117 3.83398 -13.4561c1.59668 -4.00488 3.11426 -7.36816 4.55176 -10.0908c1.4375 -2.72363 2.15625 -4.40527 2.15625 -5.0459c-0.319336 -1.28125 -1.35742 -3.04297 -3.11426 -5.28516c-1.75684 -2.24316 -3.91309 -3.36426 -6.46875 -3.36426
c-0.958008 0 -1.67676 0.160156 -2.15625 0.480469s-1.03906 0.800781 -1.67871 1.44141c-1.27832 1.60254 -2.71582 3.68457 -4.3125 6.24707c-1.59668 2.56348 -3.03418 5.52637 -4.3125 8.88965c-1.27832 3.36426 -2.07715 7.36914 -2.39648 12.0146
s0.160156 10.0117 1.43848 16.0986c1.91699 9.93066 6.22949 20.1016 12.9375 30.5127s14.7744 19.9414 24.1992 28.5908c9.42383 8.64941 19.7266 15.6973 30.9072 21.1436s22.3613 8.16895 33.542 8.16895c5.11133 0 9.02441 -1.04102 11.7402 -3.12305
s4.63281 -4.56445 5.75098 -7.44824s1.51758 -6.00684 1.19824 -9.37012c-0.319336 -3.36426 -0.638672 -6.32715 -0.958008 -8.88965c-1.59766 -8.00879 -4.31348 -16.418 -8.14648 -25.2275s-8.14551 -17.6992 -12.9375 -26.6689s-9.90332 -17.5391 -15.334 -25.708
l-15.334 -22.3447l-20.8438 -29.0723c-4.95215 -6.8877 -8.70605 -12.2539 -11.2617 -16.0986s-4.63184 -6.80762 -6.22949 -8.88965c-1.59668 -2.08301 -3.51367 -4.40527 -5.75 -6.96777c5.43066 0.320312 12.2188 1.04102 20.3643 2.16211
c8.14648 1.12109 15.5742 2.64258 22.2822 4.56543c3.51465 5.12598 6.23047 9.20996 8.14746 12.2529c1.91699 3.04395 3.43457 5.28613 4.55273 6.72754s1.99609 2.32227 2.63477 2.64258c0.639648 0.321289 1.43848 0.481445 2.39648 0.481445
c2.23633 0 4.3125 -0.960938 6.22949 -2.88379c1.91699 -1.92188 2.55566 -4.00391 1.91699 -6.24707c-0.319336 -0.640625 -0.958008 -1.36133 -1.91602 -2.16211s-3.19434 -3.44336 -6.70898 -7.92871c2.55566 0.320312 4.23242 0.560547 5.03027 0.720703
c0.798828 0.160156 1.51758 0.240234 2.15625 0.240234c2.55566 0 4.15332 -0.960938 4.79199 -2.88281z" />
    <glyph glyph-name="questiondown" unicode="&#xbf;" horiz-adv-x="316" 
d="M294.002 182.011c1.33301 -2 3.1709 -6.49805 5.50391 -13.4971s3.5 -15.832 3.5 -26.498c0 -19.999 -7 -41.498 -20.999 -64.4971s-31.498 -44.8311 -52.4971 -65.4961s-43.998 -39.1641 -68.9971 -55.4971c-24.999 -16.332 -48.1641 -28.1641 -69.4961 -35.4971
s-39.1641 -8.83301 -53.4961 -4.5c-14.333 4.33301 -21.833 16.499 -22.5 36.498c2 17.999 6.83301 36.998 14.499 56.9971s16.999 39.8311 27.998 59.4961s22.665 38.3311 34.998 55.9971c12.333 17.665 23.832 33.1641 34.498 46.4971l64.9961 79.9951
c15.332 19.332 28.3311 32.3311 38.9971 38.9971c-9.33301 1.33301 -16.166 2.16602 -20.499 2.49902s-6.5 2.16602 -6.5 5.49902s1.16699 8.66602 3.5 15.999s4.83301 10.999 7.49902 10.999l6 -3.5l13.999 -8.49902c5.33301 -3.33301 10.166 -6.99902 14.499 -10.998
c4.33301 -4 6.5 -8 6.5 -12c0 -1.99902 -0.166992 -3.99902 -0.5 -5.99902s-1.33301 -4.66699 -3 -8s-4.66699 -7.66602 -9 -12.999s-10.833 -12.666 -19.499 -21.999c-2 -2.66602 -7.33301 -8.66504 -15.999 -17.998s-19.165 -21.499 -31.498 -36.498l-40.498 -50.9971
c-14.665 -18.999 -28.9971 -39.498 -42.9961 -61.4971l-17.999 -28.498c-6.66602 -10.333 -12.832 -20.832 -18.499 -31.498c-5.66602 -10.666 -10.332 -21.499 -13.999 -32.498c-3.66602 -10.999 -5.49902 -21.832 -5.49902 -32.498
c0 -11.333 5.83301 -17.166 17.498 -17.499c11.666 -0.333008 26.332 3.16699 43.998 10.5c17.665 7.33301 36.8301 17.832 57.4951 31.498s39.8311 28.998 57.4971 45.9971c17.665 16.999 32.3311 34.8311 43.9971 53.4961s17.499 36.3311 17.499 52.9971
c0 17.332 -2.16699 29.3311 -6.5 35.9971c-4.33301 6.66699 -6.49902 11.667 -6.49902 15s1.66602 7.16602 4.99902 11.499s7.33301 6.49902 11.999 6.49902c5.33301 0 10.333 -4.66602 15 -13.999zM249.009 322.004c-7.33301 5.33301 -10.999 12.666 -10.999 21.999
c0 7.33301 2.5 13.333 7.5 18c4.99902 4.66699 10.832 7 17.498 7c7.33301 0 13.666 -2.66699 18.999 -8s8 -11.333 8 -17.999c0 -7.33301 -2.5 -13.333 -7.5 -18c-4.99902 -4.66602 -11.165 -6.99902 -18.498 -6.99902c-5.33301 0 -10.333 1.33301 -15 3.99902z" />
    <glyph glyph-name="Agrave" unicode="&#xc0;" horiz-adv-x="516" 
d="M216 191c0 15.333 -8.33594 22.999 -25.0029 22.999c-18 0 -36.167 -4.33301 -54.5 -13s-35.166 -20.167 -50.499 -34.5s-27.833 -30.666 -37.5 -48.999s-14.5 -37.166 -14.5 -56.499c0 -16 5 -31.667 15 -47s24 -23 42 -23c19.333 0 40.833 7.16699 64.5 21.5
s47.167 31.333 70.5 51s45.666 39.834 66.999 60.501s39.666 37.667 54.999 51l-29 -2c-12.667 0 -22.667 1 -30 3s-13 4.66699 -17 8s-6.66699 7.16602 -8 11.499s-2 9.16602 -2 14.499c0 2.66699 0.666992 6.16699 2 10.5s3 8.5 5 12.5s4.5 7.5 7.5 10.5s6.5 4.5 10.5 4.5
c1.33301 0 2.5 -0.833008 3.5 -2.5s1.5 -3.16699 1.5 -4.5c0 -4 -2.5 -9 -7.5 -15s-9 -12 -12 -18s-3 -11.167 0 -15.5s12.5 -6.5 28.5 -6.5c11.333 0 23.333 1.5 36 4.5s24.334 5.5 35.001 7.5l146.5 131c45.667 41.333 91.834 79 138.501 113
c8 4.66699 15.667 6.66699 23 6s11.666 -2 12.999 -4s2.66602 -4.33301 3.99902 -7s2.5 -5.66699 3.5 -9s1.5 -7.33301 1.5 -12c0 -1.33301 -4.33301 -6.66602 -13 -15.999l-34.5 -37.5l-48.5 -53.5l-55.5 -63l-56 -67c-18.333 -22.667 -34.666 -44.167 -48.999 -64.5
s-26 -39 -35 -56s-13.5 -30.833 -13.5 -41.5c0 -4.66699 1.5 -7.33398 4.5 -8.00098s6.5 -1 10.5 -1c2.66699 0 6.33398 1 11.001 3s9 4.66699 13 8s7.5 6.83301 10.5 10.5s4.5 7.5 4.5 11.5s-1.5 7.16699 -4.5 9.5s-6.5 4.5 -10.5 6.5s-7.5 3.66699 -10.5 5
s-4.5 2.66602 -4.5 3.99902s1 3.33301 3 6s4.66699 4 8 4c8.66699 0 16.667 -4.16699 24 -12.5s9.66602 -16.833 6.99902 -25.5c-3.33301 -11.333 -10.333 -22 -21 -32s-22.667 -15 -36 -15c-7.33301 0 -12.833 1 -16.5 3s-6.33398 4.5 -8.00098 7.5s-2.5 6 -2.5 9
s-0.333008 5.83301 -1 8.5c0 15.333 4.5 31.666 13.5 48.999s21.167 38 36.5 62c37.333 55.333 77 108.833 119 160.5s87.667 100.834 137 147.501c-7.33301 2.66699 -15.666 1 -24.999 -5c-1.33301 0 -8.5 -5.5 -21.5 -16.5s-30.5 -26.667 -52.5 -47l-78 -72.5l-97 -93
c0.666992 0.666992 2.16699 1 4.5 1h5.5c1.33301 0 4.33301 -0.666992 9 -2s9.33398 -3 14.001 -5s8.83398 -4.33301 12.501 -7s5.5 -5.33398 5.5 -8.00098c0 -0.666992 -3.16699 -1.16699 -9.5 -1.5s-13.666 -0.666016 -21.999 -0.999023l-26 -1
c-9 -0.333008 -15.833 -0.5 -20.5 -0.5l-56 -58c-22 -22.667 -45.5 -44.5 -70.5 -65.5s-50.833 -39.333 -77.5 -55s-52.334 -24.167 -77.001 -25.5c-13.333 -0.666992 -25.166 1.33301 -35.499 6s-19.166 11.167 -26.499 19.5s-13 18 -17 29s-6 22.5 -6 34.5
c0 20.667 4.5 41.5 13.5 62.5s21.167 39.833 36.5 56.5s33.166 30.334 53.499 41.001s42.166 16 65.499 16c18.667 0 33.167 -5.5 43.5 -16.5s15.5 -25.167 15.5 -42.5v-7c0 -4 -0.666992 -7.66699 -2 -11c-2 -8 -5.33301 -16.167 -10 -24.5s-9.5 -16 -14.5 -23
s-9.66699 -12.667 -14 -17l-7.5 -7.5c-3.33301 -1.33301 -7.16602 -0.666016 -11.499 2.00098s-7.5 5 -9.5 7c-3.33301 2 -4.66602 3.83301 -3.99902 5.5s2.66699 4.16699 6 7.5l2 2c17.333 28.667 27.666 48.167 30.999 58.5s5 16.166 5 17.499zM663.997 491.999
c-2 1.33301 -3.83301 4.16895 -5.5 8.50195s-1.16699 7.83301 1.5 10.5c4 5.33301 9.33301 5.66602 16 0.999023c4 -2.66699 7 -5 9 -7c5.33301 -4.66699 10 -8.33398 14 -11.001s10.667 -6.33398 20 -11.001c1.33301 -1.33301 1 -2.66602 -1 -3.99902s-3.66699 -2 -5 -2
c-9.33301 1.33301 -18.5 3.33301 -27.5 6s-16.167 5.66699 -21.5 9z" />
    <glyph glyph-name="Aacute" unicode="&#xc1;" horiz-adv-x="516" 
d="M216 191c0 15.333 -8.33594 22.999 -25.0029 22.999c-18 0 -36.167 -4.33301 -54.5 -13s-35.166 -20.167 -50.499 -34.5s-27.833 -30.666 -37.5 -48.999s-14.5 -37.166 -14.5 -56.499c0 -16 5 -31.667 15 -47s24 -23 42 -23c19.333 0 40.833 7.16699 64.5 21.5
s47.167 31.333 70.5 51s45.666 39.834 66.999 60.501s39.666 37.667 54.999 51l-29 -2c-12.667 0 -22.667 1 -30 3s-13 4.66699 -17 8s-6.66699 7.16602 -8 11.499s-2 9.16602 -2 14.499c0 2.66699 0.666992 6.16699 2 10.5s3 8.5 5 12.5s4.5 7.5 7.5 10.5s6.5 4.5 10.5 4.5
c1.33301 0 2.5 -0.833008 3.5 -2.5s1.5 -3.16699 1.5 -4.5c0 -4 -2.5 -9 -7.5 -15s-9 -12 -12 -18s-3 -11.167 0 -15.5s12.5 -6.5 28.5 -6.5c11.333 0 23.333 1.5 36 4.5s24.334 5.5 35.001 7.5l146.5 131c45.667 41.333 91.834 79 138.501 113
c8 4.66699 15.667 6.66699 23 6s11.666 -2 12.999 -4s2.66602 -4.33301 3.99902 -7s2.5 -5.66699 3.5 -9s1.5 -7.33301 1.5 -12c0 -1.33301 -4.33301 -6.66602 -13 -15.999l-34.5 -37.5l-48.5 -53.5l-55.5 -63l-56 -67c-18.333 -22.667 -34.666 -44.167 -48.999 -64.5
s-26 -39 -35 -56s-13.5 -30.833 -13.5 -41.5c0 -4.66699 1.5 -7.33398 4.5 -8.00098s6.5 -1 10.5 -1c2.66699 0 6.33398 1 11.001 3s9 4.66699 13 8s7.5 6.83301 10.5 10.5s4.5 7.5 4.5 11.5s-1.5 7.16699 -4.5 9.5s-6.5 4.5 -10.5 6.5s-7.5 3.66699 -10.5 5
s-4.5 2.66602 -4.5 3.99902s1 3.33301 3 6s4.66699 4 8 4c8.66699 0 16.667 -4.16699 24 -12.5s9.66602 -16.833 6.99902 -25.5c-3.33301 -11.333 -10.333 -22 -21 -32s-22.667 -15 -36 -15c-7.33301 0 -12.833 1 -16.5 3s-6.33398 4.5 -8.00098 7.5s-2.5 6 -2.5 9
s-0.333008 5.83301 -1 8.5c0 15.333 4.5 31.666 13.5 48.999s21.167 38 36.5 62c37.333 55.333 77 108.833 119 160.5s87.667 100.834 137 147.501c-7.33301 2.66699 -15.666 1 -24.999 -5c-1.33301 0 -8.5 -5.5 -21.5 -16.5s-30.5 -26.667 -52.5 -47l-78 -72.5l-97 -93
c0.666992 0.666992 2.16699 1 4.5 1h5.5c1.33301 0 4.33301 -0.666992 9 -2s9.33398 -3 14.001 -5s8.83398 -4.33301 12.501 -7s5.5 -5.33398 5.5 -8.00098c0 -0.666992 -3.16699 -1.16699 -9.5 -1.5s-13.666 -0.666016 -21.999 -0.999023l-26 -1
c-9 -0.333008 -15.833 -0.5 -20.5 -0.5l-56 -58c-22 -22.667 -45.5 -44.5 -70.5 -65.5s-50.833 -39.333 -77.5 -55s-52.334 -24.167 -77.001 -25.5c-13.333 -0.666992 -25.166 1.33301 -35.499 6s-19.166 11.167 -26.499 19.5s-13 18 -17 29s-6 22.5 -6 34.5
c0 20.667 4.5 41.5 13.5 62.5s21.167 39.833 36.5 56.5s33.166 30.334 53.499 41.001s42.166 16 65.499 16c18.667 0 33.167 -5.5 43.5 -16.5s15.5 -25.167 15.5 -42.5v-7c0 -4 -0.666992 -7.66699 -2 -11c-2 -8 -5.33301 -16.167 -10 -24.5s-9.5 -16 -14.5 -23
s-9.66699 -12.667 -14 -17l-7.5 -7.5c-3.33301 -1.33301 -7.16602 -0.666016 -11.499 2.00098s-7.5 5 -9.5 7c-3.33301 2 -4.66602 3.83301 -3.99902 5.5s2.66699 4.16699 6 7.5l2 2c17.333 28.667 27.666 48.167 30.999 58.5s5 16.166 5 17.499zM710.997 493.999
c-5.33301 -3.33301 -12.5 -6.33594 -21.5 -9.00293s-18.167 -4.66699 -27.5 -6c-1.33301 0 -3 0.666992 -5 2s-2.33301 2.66602 -1 3.99902c9.33301 4.66699 16 8.33398 20 11.001s8.66699 6.33398 14 11.001c2 2 5 4.33301 9 7c6.66699 4.66699 12 4.33398 16 -0.999023
c2.66699 -2.66699 3.16699 -6.16699 1.5 -10.5s-3.5 -7.16602 -5.5 -8.49902z" />
    <glyph glyph-name="Acircumflex" unicode="&#xc2;" horiz-adv-x="516" 
d="M216 191c0 15.333 -8.33594 22.999 -25.0029 22.999c-18 0 -36.167 -4.33301 -54.5 -13s-35.166 -20.167 -50.499 -34.5s-27.833 -30.666 -37.5 -48.999s-14.5 -37.166 -14.5 -56.499c0 -16 5 -31.667 15 -47s24 -23 42 -23c19.333 0 40.833 7.16699 64.5 21.5
s47.167 31.333 70.5 51s45.666 39.834 66.999 60.501s39.666 37.667 54.999 51l-29 -2c-12.667 0 -22.667 1 -30 3s-13 4.66699 -17 8s-6.66699 7.16602 -8 11.499s-2 9.16602 -2 14.499c0 2.66699 0.666992 6.16699 2 10.5s3 8.5 5 12.5s4.5 7.5 7.5 10.5s6.5 4.5 10.5 4.5
c1.33301 0 2.5 -0.833008 3.5 -2.5s1.5 -3.16699 1.5 -4.5c0 -4 -2.5 -9 -7.5 -15s-9 -12 -12 -18s-3 -11.167 0 -15.5s12.5 -6.5 28.5 -6.5c11.333 0 23.333 1.5 36 4.5s24.334 5.5 35.001 7.5l146.5 131c45.667 41.333 91.834 79 138.501 113
c8 4.66699 15.667 6.66699 23 6s11.666 -2 12.999 -4s2.66602 -4.33301 3.99902 -7s2.5 -5.66699 3.5 -9s1.5 -7.33301 1.5 -12c0 -1.33301 -4.33301 -6.66602 -13 -15.999l-34.5 -37.5l-48.5 -53.5l-55.5 -63l-56 -67c-18.333 -22.667 -34.666 -44.167 -48.999 -64.5
s-26 -39 -35 -56s-13.5 -30.833 -13.5 -41.5c0 -4.66699 1.5 -7.33398 4.5 -8.00098s6.5 -1 10.5 -1c2.66699 0 6.33398 1 11.001 3s9 4.66699 13 8s7.5 6.83301 10.5 10.5s4.5 7.5 4.5 11.5s-1.5 7.16699 -4.5 9.5s-6.5 4.5 -10.5 6.5s-7.5 3.66699 -10.5 5
s-4.5 2.66602 -4.5 3.99902s1 3.33301 3 6s4.66699 4 8 4c8.66699 0 16.667 -4.16699 24 -12.5s9.66602 -16.833 6.99902 -25.5c-3.33301 -11.333 -10.333 -22 -21 -32s-22.667 -15 -36 -15c-7.33301 0 -12.833 1 -16.5 3s-6.33398 4.5 -8.00098 7.5s-2.5 6 -2.5 9
s-0.333008 5.83301 -1 8.5c0 15.333 4.5 31.666 13.5 48.999s21.167 38 36.5 62c37.333 55.333 77 108.833 119 160.5s87.667 100.834 137 147.501c-7.33301 2.66699 -15.666 1 -24.999 -5c-1.33301 0 -8.5 -5.5 -21.5 -16.5s-30.5 -26.667 -52.5 -47l-78 -72.5l-97 -93
c0.666992 0.666992 2.16699 1 4.5 1h5.5c1.33301 0 4.33301 -0.666992 9 -2s9.33398 -3 14.001 -5s8.83398 -4.33301 12.501 -7s5.5 -5.33398 5.5 -8.00098c0 -0.666992 -3.16699 -1.16699 -9.5 -1.5s-13.666 -0.666016 -21.999 -0.999023l-26 -1
c-9 -0.333008 -15.833 -0.5 -20.5 -0.5l-56 -58c-22 -22.667 -45.5 -44.5 -70.5 -65.5s-50.833 -39.333 -77.5 -55s-52.334 -24.167 -77.001 -25.5c-13.333 -0.666992 -25.166 1.33301 -35.499 6s-19.166 11.167 -26.499 19.5s-13 18 -17 29s-6 22.5 -6 34.5
c0 20.667 4.5 41.5 13.5 62.5s21.167 39.833 36.5 56.5s33.166 30.334 53.499 41.001s42.166 16 65.499 16c18.667 0 33.167 -5.5 43.5 -16.5s15.5 -25.167 15.5 -42.5v-7c0 -4 -0.666992 -7.66699 -2 -11c-2 -8 -5.33301 -16.167 -10 -24.5s-9.5 -16 -14.5 -23
s-9.66699 -12.667 -14 -17l-7.5 -7.5c-3.33301 -1.33301 -7.16602 -0.666016 -11.499 2.00098s-7.5 5 -9.5 7c-3.33301 2 -4.66602 3.83301 -3.99902 5.5s2.66699 4.16699 6 7.5l2 2c17.333 28.667 27.666 48.167 30.999 58.5s5 16.166 5 17.499zM702.997 512.999
c1.33301 0 3.33203 -0.669922 5.99902 -2.00293l3 -5c2.66699 -2 5 -5 7 -9c4 -6 7.5 -10.833 10.5 -14.5s8.16699 -9.16699 15.5 -16.5c1.33301 -1.33301 0.666016 -2.5 -2.00098 -3.5s-4.66699 -1.16699 -6 -0.5c-7.33301 3.33301 -14.666 7.33301 -21.999 12
s-13.333 9.33398 -18 14.001c-6 -1.33301 -13.333 -1.66602 -22 -0.999023s-17 1.66699 -25 3c-1.33301 0.666992 -2.66602 1.83398 -3.99902 3.50098s-1.33301 2.83398 0 3.50098c10 1.33301 17.333 2.83301 22 4.5l18 6.5c1.33301 1.33301 3 2.16602 5 2.49902
s3.66699 0.833008 5 1.5l6 1h1v0z" />
    <glyph glyph-name="Atilde" unicode="&#xc3;" horiz-adv-x="516" 
d="M216 191c0 15.333 -8.33594 22.999 -25.0029 22.999c-18 0 -36.167 -4.33301 -54.5 -13s-35.166 -20.167 -50.499 -34.5s-27.833 -30.666 -37.5 -48.999s-14.5 -37.166 -14.5 -56.499c0 -16 5 -31.667 15 -47s24 -23 42 -23c19.333 0 40.833 7.16699 64.5 21.5
s47.167 31.333 70.5 51s45.666 39.834 66.999 60.501s39.666 37.667 54.999 51l-29 -2c-12.667 0 -22.667 1 -30 3s-13 4.66699 -17 8s-6.66699 7.16602 -8 11.499s-2 9.16602 -2 14.499c0 2.66699 0.666992 6.16699 2 10.5s3 8.5 5 12.5s4.5 7.5 7.5 10.5s6.5 4.5 10.5 4.5
c1.33301 0 2.5 -0.833008 3.5 -2.5s1.5 -3.16699 1.5 -4.5c0 -4 -2.5 -9 -7.5 -15s-9 -12 -12 -18s-3 -11.167 0 -15.5s12.5 -6.5 28.5 -6.5c11.333 0 23.333 1.5 36 4.5s24.334 5.5 35.001 7.5l146.5 131c45.667 41.333 91.834 79 138.501 113
c8 4.66699 15.667 6.66699 23 6s11.666 -2 12.999 -4s2.66602 -4.33301 3.99902 -7s2.5 -5.66699 3.5 -9s1.5 -7.33301 1.5 -12c0 -1.33301 -4.33301 -6.66602 -13 -15.999l-34.5 -37.5l-48.5 -53.5l-55.5 -63l-56 -67c-18.333 -22.667 -34.666 -44.167 -48.999 -64.5
s-26 -39 -35 -56s-13.5 -30.833 -13.5 -41.5c0 -4.66699 1.5 -7.33398 4.5 -8.00098s6.5 -1 10.5 -1c2.66699 0 6.33398 1 11.001 3s9 4.66699 13 8s7.5 6.83301 10.5 10.5s4.5 7.5 4.5 11.5s-1.5 7.16699 -4.5 9.5s-6.5 4.5 -10.5 6.5s-7.5 3.66699 -10.5 5
s-4.5 2.66602 -4.5 3.99902s1 3.33301 3 6s4.66699 4 8 4c8.66699 0 16.667 -4.16699 24 -12.5s9.66602 -16.833 6.99902 -25.5c-3.33301 -11.333 -10.333 -22 -21 -32s-22.667 -15 -36 -15c-7.33301 0 -12.833 1 -16.5 3s-6.33398 4.5 -8.00098 7.5s-2.5 6 -2.5 9
s-0.333008 5.83301 -1 8.5c0 15.333 4.5 31.666 13.5 48.999s21.167 38 36.5 62c37.333 55.333 77 108.833 119 160.5s87.667 100.834 137 147.501c-7.33301 2.66699 -15.666 1 -24.999 -5c-1.33301 0 -8.5 -5.5 -21.5 -16.5s-30.5 -26.667 -52.5 -47l-78 -72.5l-97 -93
c0.666992 0.666992 2.16699 1 4.5 1h5.5c1.33301 0 4.33301 -0.666992 9 -2s9.33398 -3 14.001 -5s8.83398 -4.33301 12.501 -7s5.5 -5.33398 5.5 -8.00098c0 -0.666992 -3.16699 -1.16699 -9.5 -1.5s-13.666 -0.666016 -21.999 -0.999023l-26 -1
c-9 -0.333008 -15.833 -0.5 -20.5 -0.5l-56 -58c-22 -22.667 -45.5 -44.5 -70.5 -65.5s-50.833 -39.333 -77.5 -55s-52.334 -24.167 -77.001 -25.5c-13.333 -0.666992 -25.166 1.33301 -35.499 6s-19.166 11.167 -26.499 19.5s-13 18 -17 29s-6 22.5 -6 34.5
c0 20.667 4.5 41.5 13.5 62.5s21.167 39.833 36.5 56.5s33.166 30.334 53.499 41.001s42.166 16 65.499 16c18.667 0 33.167 -5.5 43.5 -16.5s15.5 -25.167 15.5 -42.5v-7c0 -4 -0.666992 -7.66699 -2 -11c-2 -8 -5.33301 -16.167 -10 -24.5s-9.5 -16 -14.5 -23
s-9.66699 -12.667 -14 -17l-7.5 -7.5c-3.33301 -1.33301 -7.16602 -0.666016 -11.499 2.00098s-7.5 5 -9.5 7c-3.33301 2 -4.66602 3.83301 -3.99902 5.5s2.66699 4.16699 6 7.5l2 2c17.333 28.667 27.666 48.167 30.999 58.5s5 16.166 5 17.499zM683.997 498.999
c-4.66699 2 -8.99902 2.66699 -12.999 2s-8.66699 -1 -14 -1c-2 0 -4 1.33301 -6 4s-1 5.66699 3 9c1.33301 0.666992 2.83301 1.16699 4.5 1.5s4.16699 0.5 7.5 0.5c5.33301 0 9.5 -0.833008 12.5 -2.5s6.16699 -3.83398 9.5 -6.50098
c4.66699 -3.33301 10.167 -6.66602 16.5 -9.99902s12.166 -5.33301 17.499 -6c7.33301 1.33301 12.5 2 15.5 2s4.83301 -1.66699 5.5 -5c0 -4 -2 -6.66699 -6 -8s-8.66699 -2 -14 -2c-7.33301 0 -13 2.5 -17 7.5s-11.333 9.83301 -22 14.5z" />
    </font>
</defs>
</svg>
